<svg xmlns="http://www.w3.org/2000/svg" viewBox="-9.00 -9.00 444.05 60.50">
  <defs>
    <!-- Main gradient -->
    <linearGradient id="mainGradient" x1="0%" y1="0%" x2="0%" y2="100%">
      <stop offset="0%" style="stop-color:#C4B5FD"/>
      <stop offset="30%" style="stop-color:#A78BFA"/>
      <stop offset="70%" style="stop-color:#8B5CF6"/>
      <stop offset="100%" style="stop-color:#7C3AED"/>
    </linearGradient>
    
    <!-- Highlight gradient -->
    <linearGradient id="highlightGradient" x1="0%" y1="0%" x2="0%" y2="100%">
      <stop offset="0%" style="stop-color:#FFFFFF" stop-opacity="0.8"/>
      <stop offset="40%" style="stop-color:#FFFFFF" stop-opacity="0.2"/>
      <stop offset="60%" style="stop-color:#FFFFFF" stop-opacity="0"/>
    </linearGradient>
    
    <!-- Clip path for bubbles -->
    <clipPath id="contactClip">
      <path d="M2.0 22.0Q2.0 13.049999999999997 7.3500000000000005 7.849999999999998Q12.700000000000001 2.6499999999999986 24.0 2.6499999999999986Q39.800000000000004 2.6499999999999986 45.150000000000006 13.5Q40.650000000000006 15.049999999999997 34.6 18.15Q33.15 15.349999999999998 30.025 13.999999999999998Q26.900000000000002 12.649999999999999 23.650000000000002 12.649999999999999Q18.85 12.649999999999999 16.5 15.174999999999999Q14.15 17.7 14.15 21.4Q14.15 25.4 16.675 27.924999999999997Q19.200000000000003 30.45 24.400000000000002 30.45Q28.55 30.45 31.0 29.075Q33.45 27.7 34.6 24.7Q38.7 26.9 45.1 29.65Q42.6 35.7 36.75 38.1Q30.900000000000002 40.5 24.0 40.5Q12.700000000000001 40.5 7.3500000000000005 35.7Q2.0 30.9 2.0 22.0Z" transform="translate(0, 0)"/>
        <path d="M2.0 21.55Q2.0 12.649999999999999 7.375 7.649999999999999Q12.75 2.6499999999999986 24.25 2.6499999999999986Q35.800000000000004 2.6499999999999986 41.175000000000004 7.649999999999999Q46.550000000000004 12.649999999999999 46.550000000000004 21.55Q46.550000000000004 30.6 41.2 35.55Q35.85 40.5 24.25 40.5Q12.8 40.5 7.4 35.525Q2.0 30.549999999999997 2.0 21.55ZM34.7 21.55Q34.7 17.15 32.25 14.999999999999998Q29.8 12.849999999999998 24.25 12.849999999999998Q18.75 12.849999999999998 16.3 14.999999999999998Q13.850000000000001 17.15 13.850000000000001 21.55Q13.850000000000001 26.0 16.3 28.15Q18.75 30.299999999999997 24.25 30.299999999999997Q29.8 30.299999999999997 32.25 28.174999999999997Q34.7 26.049999999999997 34.7 21.55Z" transform="translate(45.150000000000006, 0)"/>
        <path d="M43.95 3.75Q43.6 12.2 43.6 21.849999999999998Q43.6 31.549999999999997 43.95 40.0H26.05L13.950000000000001 12.7L14.850000000000001 40.0H2.0Q2.4000000000000004 30.299999999999997 2.4000000000000004 21.849999999999998Q2.4000000000000004 13.45 2.0 3.75H20.400000000000002L32.550000000000004 31.799999999999997L31.700000000000003 3.75Z" transform="translate(91.70000000000002, 0)"/>
        <path d="M44.95 14.2Q37.1 13.95 29.700000000000003 13.899999999999999V40.0H17.2V13.899999999999999Q9.75 13.95 2.0 14.2V3.6999999999999957H44.95Z" transform="translate(135.65000000000003, 0)"/>
        <path d="M33.550000000000004 40.0Q32.6 37.15 31.0 32.85H15.05L12.55 40.0H0.0L14.0 3.6999999999999957H32.4L46.5 40.0ZM28.150000000000002 25.049999999999997Q26.25 19.799999999999997 24.25 14.549999999999997L23.05 11.299999999999997Q21.3 15.849999999999998 17.900000000000002 25.049999999999997Z" transform="translate(180.60000000000002, 0)"/>
        <path d="M2.0 22.0Q2.0 13.049999999999997 7.3500000000000005 7.849999999999998Q12.700000000000001 2.6499999999999986 24.0 2.6499999999999986Q39.800000000000004 2.6499999999999986 45.150000000000006 13.5Q40.650000000000006 15.049999999999997 34.6 18.15Q33.15 15.349999999999998 30.025 13.999999999999998Q26.900000000000002 12.649999999999999 23.650000000000002 12.649999999999999Q18.85 12.649999999999999 16.5 15.174999999999999Q14.15 17.7 14.15 21.4Q14.15 25.4 16.675 27.924999999999997Q19.200000000000003 30.45 24.400000000000002 30.45Q28.55 30.45 31.0 29.075Q33.45 27.7 34.6 24.7Q38.7 26.9 45.1 29.65Q42.6 35.7 36.75 38.1Q30.900000000000002 40.5 24.0 40.5Q12.700000000000001 40.5 7.3500000000000005 35.7Q2.0 30.9 2.0 22.0Z" transform="translate(225.75000000000003, 0)"/>
        <path d="M44.95 14.2Q37.1 13.95 29.700000000000003 13.899999999999999V40.0H17.2V13.899999999999999Q9.75 13.95 2.0 14.2V3.6999999999999957H44.95Z" transform="translate(270.90000000000003, 0)"/>
        <path d="M31.6 3.6499999999999986H44.0V23.55Q43.900000000000006 30.9 38.97500000000001 35.7Q34.050000000000004 40.5 22.400000000000002 40.5Q10.600000000000001 40.5 6.250000000000001 35.925Q1.9000000000000001 31.35 2.0 23.9V3.6499999999999986H14.4V23.099999999999998Q14.4 25.299999999999997 14.725000000000001 26.674999999999997Q15.05 28.049999999999997 16.825000000000003 29.25Q18.6 30.45 22.55 30.45Q26.85 30.45 28.85 29.225Q30.85 28.0 31.225 26.5Q31.6 25.0 31.6 22.65Z" transform="translate(330.85, 0)"/>
        <path d="M7.0 25.85Q10.55 27.9 15.250000000000002 29.049999999999997Q19.950000000000003 30.2 24.0 30.2Q28.150000000000002 30.2 29.85 29.475Q31.55 28.75 31.55 27.9Q31.55 24.85 22.25 24.85Q12.05 24.85 7.45 22.725Q2.85 20.599999999999998 2.85 15.849999999999998Q2.85 9.099999999999998 8.450000000000001 5.899999999999997Q14.05 2.6999999999999957 23.0 2.6999999999999957Q28.200000000000003 2.6999999999999957 33.675000000000004 4.024999999999999Q39.150000000000006 5.350000000000001 43.550000000000004 7.649999999999999Q42.1 10.95 40.5 15.7Q40.2 16.7 40.0 17.2Q37.45 15.149999999999999 32.300000000000004 13.774999999999999Q27.150000000000002 12.399999999999999 23.200000000000003 12.399999999999999Q18.45 12.399999999999999 16.8 13.024999999999999Q15.15 13.649999999999999 15.15 14.849999999999998Q15.15 16.049999999999997 17.425 16.775Q19.700000000000003 17.5 24.0 17.5Q34.6 17.5 39.400000000000006 19.924999999999997Q44.2 22.349999999999998 44.2 27.35Q44.2 34.35 39.1 37.425Q34.0 40.5 23.650000000000002 40.5Q18.1 40.5 12.350000000000001 39.275Q6.6000000000000005 38.05 2.0 35.7Q3.7 33.15 4.825 30.95Q5.95 28.75 7.0 25.85Z" transform="translate(374.85, 0)"/>
    </clipPath>
  </defs>

  <!-- WHITE BORDER LAYER (behind everything) -->
  <g fill="none" stroke="#FFFFFF" stroke-width="16" stroke-linejoin="round">
    <path d="M2.0 22.0Q2.0 13.049999999999997 7.3500000000000005 7.849999999999998Q12.700000000000001 2.6499999999999986 24.0 2.6499999999999986Q39.800000000000004 2.6499999999999986 45.150000000000006 13.5Q40.650000000000006 15.049999999999997 34.6 18.15Q33.15 15.349999999999998 30.025 13.999999999999998Q26.900000000000002 12.649999999999999 23.650000000000002 12.649999999999999Q18.85 12.649999999999999 16.5 15.174999999999999Q14.15 17.7 14.15 21.4Q14.15 25.4 16.675 27.924999999999997Q19.200000000000003 30.45 24.400000000000002 30.45Q28.55 30.45 31.0 29.075Q33.45 27.7 34.6 24.7Q38.7 26.9 45.1 29.65Q42.6 35.7 36.75 38.1Q30.900000000000002 40.5 24.0 40.5Q12.700000000000001 40.5 7.3500000000000005 35.7Q2.0 30.9 2.0 22.0Z" transform="translate(0, 0)"/>
      <path d="M2.0 21.55Q2.0 12.649999999999999 7.375 7.649999999999999Q12.75 2.6499999999999986 24.25 2.6499999999999986Q35.800000000000004 2.6499999999999986 41.175000000000004 7.649999999999999Q46.550000000000004 12.649999999999999 46.550000000000004 21.55Q46.550000000000004 30.6 41.2 35.55Q35.85 40.5 24.25 40.5Q12.8 40.5 7.4 35.525Q2.0 30.549999999999997 2.0 21.55ZM34.7 21.55Q34.7 17.15 32.25 14.999999999999998Q29.8 12.849999999999998 24.25 12.849999999999998Q18.75 12.849999999999998 16.3 14.999999999999998Q13.850000000000001 17.15 13.850000000000001 21.55Q13.850000000000001 26.0 16.3 28.15Q18.75 30.299999999999997 24.25 30.299999999999997Q29.8 30.299999999999997 32.25 28.174999999999997Q34.7 26.049999999999997 34.7 21.55Z" transform="translate(45.150000000000006, 0)"/>
      <path d="M43.95 3.75Q43.6 12.2 43.6 21.849999999999998Q43.6 31.549999999999997 43.95 40.0H26.05L13.950000000000001 12.7L14.850000000000001 40.0H2.0Q2.4000000000000004 30.299999999999997 2.4000000000000004 21.849999999999998Q2.4000000000000004 13.45 2.0 3.75H20.400000000000002L32.550000000000004 31.799999999999997L31.700000000000003 3.75Z" transform="translate(91.70000000000002, 0)"/>
      <path d="M44.95 14.2Q37.1 13.95 29.700000000000003 13.899999999999999V40.0H17.2V13.899999999999999Q9.75 13.95 2.0 14.2V3.6999999999999957H44.95Z" transform="translate(135.65000000000003, 0)"/>
      <path d="M33.550000000000004 40.0Q32.6 37.15 31.0 32.85H15.05L12.55 40.0H0.0L14.0 3.6999999999999957H32.4L46.5 40.0ZM28.150000000000002 25.049999999999997Q26.25 19.799999999999997 24.25 14.549999999999997L23.05 11.299999999999997Q21.3 15.849999999999998 17.900000000000002 25.049999999999997Z" transform="translate(180.60000000000002, 0)"/>
      <path d="M2.0 22.0Q2.0 13.049999999999997 7.3500000000000005 7.849999999999998Q12.700000000000001 2.6499999999999986 24.0 2.6499999999999986Q39.800000000000004 2.6499999999999986 45.150000000000006 13.5Q40.650000000000006 15.049999999999997 34.6 18.15Q33.15 15.349999999999998 30.025 13.999999999999998Q26.900000000000002 12.649999999999999 23.650000000000002 12.649999999999999Q18.85 12.649999999999999 16.5 15.174999999999999Q14.15 17.7 14.15 21.4Q14.15 25.4 16.675 27.924999999999997Q19.200000000000003 30.45 24.400000000000002 30.45Q28.55 30.45 31.0 29.075Q33.45 27.7 34.6 24.7Q38.7 26.9 45.1 29.65Q42.6 35.7 36.75 38.1Q30.900000000000002 40.5 24.0 40.5Q12.700000000000001 40.5 7.3500000000000005 35.7Q2.0 30.9 2.0 22.0Z" transform="translate(225.75000000000003, 0)"/>
      <path d="M44.95 14.2Q37.1 13.95 29.700000000000003 13.899999999999999V40.0H17.2V13.899999999999999Q9.75 13.95 2.0 14.2V3.6999999999999957H44.95Z" transform="translate(270.90000000000003, 0)"/>
      <path d="M31.6 3.6499999999999986H44.0V23.55Q43.900000000000006 30.9 38.97500000000001 35.7Q34.050000000000004 40.5 22.400000000000002 40.5Q10.600000000000001 40.5 6.250000000000001 35.925Q1.9000000000000001 31.35 2.0 23.9V3.6499999999999986H14.4V23.099999999999998Q14.4 25.299999999999997 14.725000000000001 26.674999999999997Q15.05 28.049999999999997 16.825000000000003 29.25Q18.6 30.45 22.55 30.45Q26.85 30.45 28.85 29.225Q30.85 28.0 31.225 26.5Q31.6 25.0 31.6 22.65Z" transform="translate(330.85, 0)"/>
      <path d="M7.0 25.85Q10.55 27.9 15.250000000000002 29.049999999999997Q19.950000000000003 30.2 24.0 30.2Q28.150000000000002 30.2 29.85 29.475Q31.55 28.75 31.55 27.9Q31.55 24.85 22.25 24.85Q12.05 24.85 7.45 22.725Q2.85 20.599999999999998 2.85 15.849999999999998Q2.85 9.099999999999998 8.450000000000001 5.899999999999997Q14.05 2.6999999999999957 23.0 2.6999999999999957Q28.200000000000003 2.6999999999999957 33.675000000000004 4.024999999999999Q39.150000000000006 5.350000000000001 43.550000000000004 7.649999999999999Q42.1 10.95 40.5 15.7Q40.2 16.7 40.0 17.2Q37.45 15.149999999999999 32.300000000000004 13.774999999999999Q27.150000000000002 12.399999999999999 23.200000000000003 12.399999999999999Q18.45 12.399999999999999 16.8 13.024999999999999Q15.15 13.649999999999999 15.15 14.849999999999998Q15.15 16.049999999999997 17.425 16.775Q19.700000000000003 17.5 24.0 17.5Q34.6 17.5 39.400000000000006 19.924999999999997Q44.2 22.349999999999998 44.2 27.35Q44.2 34.35 39.1 37.425Q34.0 40.5 23.650000000000002 40.5Q18.1 40.5 12.350000000000001 39.275Q6.6000000000000005 38.05 2.0 35.7Q3.7 33.15 4.825 30.95Q5.95 28.75 7.0 25.85Z" transform="translate(374.85, 0)"/>
  </g>

  <!-- Contact Us Content -->
  <g>
    <!-- 3D Extrusion layers -->
    <g fill="#4C1D95" transform="translate(5, 5)">
      <path d="M2.0 22.0Q2.0 13.049999999999997 7.3500000000000005 7.849999999999998Q12.700000000000001 2.6499999999999986 24.0 2.6499999999999986Q39.800000000000004 2.6499999999999986 45.150000000000006 13.5Q40.650000000000006 15.049999999999997 34.6 18.15Q33.15 15.349999999999998 30.025 13.999999999999998Q26.900000000000002 12.649999999999999 23.650000000000002 12.649999999999999Q18.85 12.649999999999999 16.5 15.174999999999999Q14.15 17.7 14.15 21.4Q14.15 25.4 16.675 27.924999999999997Q19.200000000000003 30.45 24.400000000000002 30.45Q28.55 30.45 31.0 29.075Q33.45 27.7 34.6 24.7Q38.7 26.9 45.1 29.65Q42.6 35.7 36.75 38.1Q30.900000000000002 40.5 24.0 40.5Q12.700000000000001 40.5 7.3500000000000005 35.7Q2.0 30.9 2.0 22.0Z" transform="translate(0, 0)"/>
      <path d="M2.0 21.55Q2.0 12.649999999999999 7.375 7.649999999999999Q12.75 2.6499999999999986 24.25 2.6499999999999986Q35.800000000000004 2.6499999999999986 41.175000000000004 7.649999999999999Q46.550000000000004 12.649999999999999 46.550000000000004 21.55Q46.550000000000004 30.6 41.2 35.55Q35.85 40.5 24.25 40.5Q12.8 40.5 7.4 35.525Q2.0 30.549999999999997 2.0 21.55ZM34.7 21.55Q34.7 17.15 32.25 14.999999999999998Q29.8 12.849999999999998 24.25 12.849999999999998Q18.75 12.849999999999998 16.3 14.999999999999998Q13.850000000000001 17.15 13.850000000000001 21.55Q13.850000000000001 26.0 16.3 28.15Q18.75 30.299999999999997 24.25 30.299999999999997Q29.8 30.299999999999997 32.25 28.174999999999997Q34.7 26.049999999999997 34.7 21.55Z" transform="translate(45.150000000000006, 0)"/>
      <path d="M43.95 3.75Q43.6 12.2 43.6 21.849999999999998Q43.6 31.549999999999997 43.95 40.0H26.05L13.950000000000001 12.7L14.850000000000001 40.0H2.0Q2.4000000000000004 30.299999999999997 2.4000000000000004 21.849999999999998Q2.4000000000000004 13.45 2.0 3.75H20.400000000000002L32.550000000000004 31.799999999999997L31.700000000000003 3.75Z" transform="translate(91.70000000000002, 0)"/>
      <path d="M44.95 14.2Q37.1 13.95 29.700000000000003 13.899999999999999V40.0H17.2V13.899999999999999Q9.75 13.95 2.0 14.2V3.6999999999999957H44.95Z" transform="translate(135.65000000000003, 0)"/>
      <path d="M33.550000000000004 40.0Q32.6 37.15 31.0 32.85H15.05L12.55 40.0H0.0L14.0 3.6999999999999957H32.4L46.5 40.0ZM28.150000000000002 25.049999999999997Q26.25 19.799999999999997 24.25 14.549999999999997L23.05 11.299999999999997Q21.3 15.849999999999998 17.900000000000002 25.049999999999997Z" transform="translate(180.60000000000002, 0)"/>
      <path d="M2.0 22.0Q2.0 13.049999999999997 7.3500000000000005 7.849999999999998Q12.700000000000001 2.6499999999999986 24.0 2.6499999999999986Q39.800000000000004 2.6499999999999986 45.150000000000006 13.5Q40.650000000000006 15.049999999999997 34.6 18.15Q33.15 15.349999999999998 30.025 13.999999999999998Q26.900000000000002 12.649999999999999 23.650000000000002 12.649999999999999Q18.85 12.649999999999999 16.5 15.174999999999999Q14.15 17.7 14.15 21.4Q14.15 25.4 16.675 27.924999999999997Q19.200000000000003 30.45 24.400000000000002 30.45Q28.55 30.45 31.0 29.075Q33.45 27.7 34.6 24.7Q38.7 26.9 45.1 29.65Q42.6 35.7 36.75 38.1Q30.900000000000002 40.5 24.0 40.5Q12.700000000000001 40.5 7.3500000000000005 35.7Q2.0 30.9 2.0 22.0Z" transform="translate(225.75000000000003, 0)"/>
      <path d="M44.95 14.2Q37.1 13.95 29.700000000000003 13.899999999999999V40.0H17.2V13.899999999999999Q9.75 13.95 2.0 14.2V3.6999999999999957H44.95Z" transform="translate(270.90000000000003, 0)"/>
      <path d="M31.6 3.6499999999999986H44.0V23.55Q43.900000000000006 30.9 38.97500000000001 35.7Q34.050000000000004 40.5 22.400000000000002 40.5Q10.600000000000001 40.5 6.250000000000001 35.925Q1.9000000000000001 31.35 2.0 23.9V3.6499999999999986H14.4V23.099999999999998Q14.4 25.299999999999997 14.725000000000001 26.674999999999997Q15.05 28.049999999999997 16.825000000000003 29.25Q18.6 30.45 22.55 30.45Q26.85 30.45 28.85 29.225Q30.85 28.0 31.225 26.5Q31.6 25.0 31.6 22.65Z" transform="translate(330.85, 0)"/>
      <path d="M7.0 25.85Q10.55 27.9 15.250000000000002 29.049999999999997Q19.950000000000003 30.2 24.0 30.2Q28.150000000000002 30.2 29.85 29.475Q31.55 28.75 31.55 27.9Q31.55 24.85 22.25 24.85Q12.05 24.85 7.45 22.725Q2.85 20.599999999999998 2.85 15.849999999999998Q2.85 9.099999999999998 8.450000000000001 5.899999999999997Q14.05 2.6999999999999957 23.0 2.6999999999999957Q28.200000000000003 2.6999999999999957 33.675000000000004 4.024999999999999Q39.150000000000006 5.350000000000001 43.550000000000004 7.649999999999999Q42.1 10.95 40.5 15.7Q40.2 16.7 40.0 17.2Q37.45 15.149999999999999 32.300000000000004 13.774999999999999Q27.150000000000002 12.399999999999999 23.200000000000003 12.399999999999999Q18.45 12.399999999999999 16.8 13.024999999999999Q15.15 13.649999999999999 15.15 14.849999999999998Q15.15 16.049999999999997 17.425 16.775Q19.700000000000003 17.5 24.0 17.5Q34.6 17.5 39.400000000000006 19.924999999999997Q44.2 22.349999999999998 44.2 27.35Q44.2 34.35 39.1 37.425Q34.0 40.5 23.650000000000002 40.5Q18.1 40.5 12.350000000000001 39.275Q6.6000000000000005 38.05 2.0 35.7Q3.7 33.15 4.825 30.95Q5.95 28.75 7.0 25.85Z" transform="translate(374.85, 0)"/>
    </g>
    <g fill="#5B21B6" transform="translate(4, 4)">
      <path d="M2.0 22.0Q2.0 13.049999999999997 7.3500000000000005 7.849999999999998Q12.700000000000001 2.6499999999999986 24.0 2.6499999999999986Q39.800000000000004 2.6499999999999986 45.150000000000006 13.5Q40.650000000000006 15.049999999999997 34.6 18.15Q33.15 15.349999999999998 30.025 13.999999999999998Q26.900000000000002 12.649999999999999 23.650000000000002 12.649999999999999Q18.85 12.649999999999999 16.5 15.174999999999999Q14.15 17.7 14.15 21.4Q14.15 25.4 16.675 27.924999999999997Q19.200000000000003 30.45 24.400000000000002 30.45Q28.55 30.45 31.0 29.075Q33.45 27.7 34.6 24.7Q38.7 26.9 45.1 29.65Q42.6 35.7 36.75 38.1Q30.900000000000002 40.5 24.0 40.5Q12.700000000000001 40.5 7.3500000000000005 35.7Q2.0 30.9 2.0 22.0Z" transform="translate(0, 0)"/>
      <path d="M2.0 21.55Q2.0 12.649999999999999 7.375 7.649999999999999Q12.75 2.6499999999999986 24.25 2.6499999999999986Q35.800000000000004 2.6499999999999986 41.175000000000004 7.649999999999999Q46.550000000000004 12.649999999999999 46.550000000000004 21.55Q46.550000000000004 30.6 41.2 35.55Q35.85 40.5 24.25 40.5Q12.8 40.5 7.4 35.525Q2.0 30.549999999999997 2.0 21.55ZM34.7 21.55Q34.7 17.15 32.25 14.999999999999998Q29.8 12.849999999999998 24.25 12.849999999999998Q18.75 12.849999999999998 16.3 14.999999999999998Q13.850000000000001 17.15 13.850000000000001 21.55Q13.850000000000001 26.0 16.3 28.15Q18.75 30.299999999999997 24.25 30.299999999999997Q29.8 30.299999999999997 32.25 28.174999999999997Q34.7 26.049999999999997 34.7 21.55Z" transform="translate(45.150000000000006, 0)"/>
      <path d="M43.95 3.75Q43.6 12.2 43.6 21.849999999999998Q43.6 31.549999999999997 43.95 40.0H26.05L13.950000000000001 12.7L14.850000000000001 40.0H2.0Q2.4000000000000004 30.299999999999997 2.4000000000000004 21.849999999999998Q2.4000000000000004 13.45 2.0 3.75H20.400000000000002L32.550000000000004 31.799999999999997L31.700000000000003 3.75Z" transform="translate(91.70000000000002, 0)"/>
      <path d="M44.95 14.2Q37.1 13.95 29.700000000000003 13.899999999999999V40.0H17.2V13.899999999999999Q9.75 13.95 2.0 14.2V3.6999999999999957H44.95Z" transform="translate(135.65000000000003, 0)"/>
      <path d="M33.550000000000004 40.0Q32.6 37.15 31.0 32.85H15.05L12.55 40.0H0.0L14.0 3.6999999999999957H32.4L46.5 40.0ZM28.150000000000002 25.049999999999997Q26.25 19.799999999999997 24.25 14.549999999999997L23.05 11.299999999999997Q21.3 15.849999999999998 17.900000000000002 25.049999999999997Z" transform="translate(180.60000000000002, 0)"/>
      <path d="M2.0 22.0Q2.0 13.049999999999997 7.3500000000000005 7.849999999999998Q12.700000000000001 2.6499999999999986 24.0 2.6499999999999986Q39.800000000000004 2.6499999999999986 45.150000000000006 13.5Q40.650000000000006 15.049999999999997 34.6 18.15Q33.15 15.349999999999998 30.025 13.999999999999998Q26.900000000000002 12.649999999999999 23.650000000000002 12.649999999999999Q18.85 12.649999999999999 16.5 15.174999999999999Q14.15 17.7 14.15 21.4Q14.15 25.4 16.675 27.924999999999997Q19.200000000000003 30.45 24.400000000000002 30.45Q28.55 30.45 31.0 29.075Q33.45 27.7 34.6 24.7Q38.7 26.9 45.1 29.65Q42.6 35.7 36.75 38.1Q30.900000000000002 40.5 24.0 40.5Q12.700000000000001 40.5 7.3500000000000005 35.7Q2.0 30.9 2.0 22.0Z" transform="translate(225.75000000000003, 0)"/>
      <path d="M44.95 14.2Q37.1 13.95 29.700000000000003 13.899999999999999V40.0H17.2V13.899999999999999Q9.75 13.95 2.0 14.2V3.6999999999999957H44.95Z" transform="translate(270.90000000000003, 0)"/>
      <path d="M31.6 3.6499999999999986H44.0V23.55Q43.900000000000006 30.9 38.97500000000001 35.7Q34.050000000000004 40.5 22.400000000000002 40.5Q10.600000000000001 40.5 6.250000000000001 35.925Q1.9000000000000001 31.35 2.0 23.9V3.6499999999999986H14.4V23.099999999999998Q14.4 25.299999999999997 14.725000000000001 26.674999999999997Q15.05 28.049999999999997 16.825000000000003 29.25Q18.6 30.45 22.55 30.45Q26.85 30.45 28.85 29.225Q30.85 28.0 31.225 26.5Q31.6 25.0 31.6 22.65Z" transform="translate(330.85, 0)"/>
      <path d="M7.0 25.85Q10.55 27.9 15.250000000000002 29.049999999999997Q19.950000000000003 30.2 24.0 30.2Q28.150000000000002 30.2 29.85 29.475Q31.55 28.75 31.55 27.9Q31.55 24.85 22.25 24.85Q12.05 24.85 7.45 22.725Q2.85 20.599999999999998 2.85 15.849999999999998Q2.85 9.099999999999998 8.450000000000001 5.899999999999997Q14.05 2.6999999999999957 23.0 2.6999999999999957Q28.200000000000003 2.6999999999999957 33.675000000000004 4.024999999999999Q39.150000000000006 5.350000000000001 43.550000000000004 7.649999999999999Q42.1 10.95 40.5 15.7Q40.2 16.7 40.0 17.2Q37.45 15.149999999999999 32.300000000000004 13.774999999999999Q27.150000000000002 12.399999999999999 23.200000000000003 12.399999999999999Q18.45 12.399999999999999 16.8 13.024999999999999Q15.15 13.649999999999999 15.15 14.849999999999998Q15.15 16.049999999999997 17.425 16.775Q19.700000000000003 17.5 24.0 17.5Q34.6 17.5 39.400000000000006 19.924999999999997Q44.2 22.349999999999998 44.2 27.35Q44.2 34.35 39.1 37.425Q34.0 40.5 23.650000000000002 40.5Q18.1 40.5 12.350000000000001 39.275Q6.6000000000000005 38.05 2.0 35.7Q3.7 33.15 4.825 30.95Q5.95 28.75 7.0 25.85Z" transform="translate(374.85, 0)"/>
    </g>
    <g fill="#6D28D9" transform="translate(3, 3)">
      <path d="M2.0 22.0Q2.0 13.049999999999997 7.3500000000000005 7.849999999999998Q12.700000000000001 2.6499999999999986 24.0 2.6499999999999986Q39.800000000000004 2.6499999999999986 45.150000000000006 13.5Q40.650000000000006 15.049999999999997 34.6 18.15Q33.15 15.349999999999998 30.025 13.999999999999998Q26.900000000000002 12.649999999999999 23.650000000000002 12.649999999999999Q18.85 12.649999999999999 16.5 15.174999999999999Q14.15 17.7 14.15 21.4Q14.15 25.4 16.675 27.924999999999997Q19.200000000000003 30.45 24.400000000000002 30.45Q28.55 30.45 31.0 29.075Q33.45 27.7 34.6 24.7Q38.7 26.9 45.1 29.65Q42.6 35.7 36.75 38.1Q30.900000000000002 40.5 24.0 40.5Q12.700000000000001 40.5 7.3500000000000005 35.7Q2.0 30.9 2.0 22.0Z" transform="translate(0, 0)"/>
      <path d="M2.0 21.55Q2.0 12.649999999999999 7.375 7.649999999999999Q12.75 2.6499999999999986 24.25 2.6499999999999986Q35.800000000000004 2.6499999999999986 41.175000000000004 7.649999999999999Q46.550000000000004 12.649999999999999 46.550000000000004 21.55Q46.550000000000004 30.6 41.2 35.55Q35.85 40.5 24.25 40.5Q12.8 40.5 7.4 35.525Q2.0 30.549999999999997 2.0 21.55ZM34.7 21.55Q34.7 17.15 32.25 14.999999999999998Q29.8 12.849999999999998 24.25 12.849999999999998Q18.75 12.849999999999998 16.3 14.999999999999998Q13.850000000000001 17.15 13.850000000000001 21.55Q13.850000000000001 26.0 16.3 28.15Q18.75 30.299999999999997 24.25 30.299999999999997Q29.8 30.299999999999997 32.25 28.174999999999997Q34.7 26.049999999999997 34.7 21.55Z" transform="translate(45.150000000000006, 0)"/>
      <path d="M43.95 3.75Q43.6 12.2 43.6 21.849999999999998Q43.6 31.549999999999997 43.95 40.0H26.05L13.950000000000001 12.7L14.850000000000001 40.0H2.0Q2.4000000000000004 30.299999999999997 2.4000000000000004 21.849999999999998Q2.4000000000000004 13.45 2.0 3.75H20.400000000000002L32.550000000000004 31.799999999999997L31.700000000000003 3.75Z" transform="translate(91.70000000000002, 0)"/>
      <path d="M44.95 14.2Q37.1 13.95 29.700000000000003 13.899999999999999V40.0H17.2V13.899999999999999Q9.75 13.95 2.0 14.2V3.6999999999999957H44.95Z" transform="translate(135.65000000000003, 0)"/>
      <path d="M33.550000000000004 40.0Q32.6 37.15 31.0 32.85H15.05L12.55 40.0H0.0L14.0 3.6999999999999957H32.4L46.5 40.0ZM28.150000000000002 25.049999999999997Q26.25 19.799999999999997 24.25 14.549999999999997L23.05 11.299999999999997Q21.3 15.849999999999998 17.900000000000002 25.049999999999997Z" transform="translate(180.60000000000002, 0)"/>
      <path d="M2.0 22.0Q2.0 13.049999999999997 7.3500000000000005 7.849999999999998Q12.700000000000001 2.6499999999999986 24.0 2.6499999999999986Q39.800000000000004 2.6499999999999986 45.150000000000006 13.5Q40.650000000000006 15.049999999999997 34.6 18.15Q33.15 15.349999999999998 30.025 13.999999999999998Q26.900000000000002 12.649999999999999 23.650000000000002 12.649999999999999Q18.85 12.649999999999999 16.5 15.174999999999999Q14.15 17.7 14.15 21.4Q14.15 25.4 16.675 27.924999999999997Q19.200000000000003 30.45 24.400000000000002 30.45Q28.55 30.45 31.0 29.075Q33.45 27.7 34.6 24.7Q38.7 26.9 45.1 29.65Q42.6 35.7 36.75 38.1Q30.900000000000002 40.5 24.0 40.5Q12.700000000000001 40.5 7.3500000000000005 35.7Q2.0 30.9 2.0 22.0Z" transform="translate(225.75000000000003, 0)"/>
      <path d="M44.95 14.2Q37.1 13.95 29.700000000000003 13.899999999999999V40.0H17.2V13.899999999999999Q9.75 13.95 2.0 14.2V3.6999999999999957H44.95Z" transform="translate(270.90000000000003, 0)"/>
      <path d="M31.6 3.6499999999999986H44.0V23.55Q43.900000000000006 30.9 38.97500000000001 35.7Q34.050000000000004 40.5 22.400000000000002 40.5Q10.600000000000001 40.5 6.250000000000001 35.925Q1.9000000000000001 31.35 2.0 23.9V3.6499999999999986H14.4V23.099999999999998Q14.4 25.299999999999997 14.725000000000001 26.674999999999997Q15.05 28.049999999999997 16.825000000000003 29.25Q18.6 30.45 22.55 30.45Q26.85 30.45 28.85 29.225Q30.85 28.0 31.225 26.5Q31.6 25.0 31.6 22.65Z" transform="translate(330.85, 0)"/>
      <path d="M7.0 25.85Q10.55 27.9 15.250000000000002 29.049999999999997Q19.950000000000003 30.2 24.0 30.2Q28.150000000000002 30.2 29.85 29.475Q31.55 28.75 31.55 27.9Q31.55 24.85 22.25 24.85Q12.05 24.85 7.45 22.725Q2.85 20.599999999999998 2.85 15.849999999999998Q2.85 9.099999999999998 8.450000000000001 5.899999999999997Q14.05 2.6999999999999957 23.0 2.6999999999999957Q28.200000000000003 2.6999999999999957 33.675000000000004 4.024999999999999Q39.150000000000006 5.350000000000001 43.550000000000004 7.649999999999999Q42.1 10.95 40.5 15.7Q40.2 16.7 40.0 17.2Q37.45 15.149999999999999 32.300000000000004 13.774999999999999Q27.150000000000002 12.399999999999999 23.200000000000003 12.399999999999999Q18.45 12.399999999999999 16.8 13.024999999999999Q15.15 13.649999999999999 15.15 14.849999999999998Q15.15 16.049999999999997 17.425 16.775Q19.700000000000003 17.5 24.0 17.5Q34.6 17.5 39.400000000000006 19.924999999999997Q44.2 22.349999999999998 44.2 27.35Q44.2 34.35 39.1 37.425Q34.0 40.5 23.650000000000002 40.5Q18.1 40.5 12.350000000000001 39.275Q6.6000000000000005 38.05 2.0 35.7Q3.7 33.15 4.825 30.95Q5.95 28.75 7.0 25.85Z" transform="translate(374.85, 0)"/>
    </g>
    <g fill="#7C3AED" transform="translate(2, 2)">
      <path d="M2.0 22.0Q2.0 13.049999999999997 7.3500000000000005 7.849999999999998Q12.700000000000001 2.6499999999999986 24.0 2.6499999999999986Q39.800000000000004 2.6499999999999986 45.150000000000006 13.5Q40.650000000000006 15.049999999999997 34.6 18.15Q33.15 15.349999999999998 30.025 13.999999999999998Q26.900000000000002 12.649999999999999 23.650000000000002 12.649999999999999Q18.85 12.649999999999999 16.5 15.174999999999999Q14.15 17.7 14.15 21.4Q14.15 25.4 16.675 27.924999999999997Q19.200000000000003 30.45 24.400000000000002 30.45Q28.55 30.45 31.0 29.075Q33.45 27.7 34.6 24.7Q38.7 26.9 45.1 29.65Q42.6 35.7 36.75 38.1Q30.900000000000002 40.5 24.0 40.5Q12.700000000000001 40.5 7.3500000000000005 35.7Q2.0 30.9 2.0 22.0Z" transform="translate(0, 0)"/>
      <path d="M2.0 21.55Q2.0 12.649999999999999 7.375 7.649999999999999Q12.75 2.6499999999999986 24.25 2.6499999999999986Q35.800000000000004 2.6499999999999986 41.175000000000004 7.649999999999999Q46.550000000000004 12.649999999999999 46.550000000000004 21.55Q46.550000000000004 30.6 41.2 35.55Q35.85 40.5 24.25 40.5Q12.8 40.5 7.4 35.525Q2.0 30.549999999999997 2.0 21.55ZM34.7 21.55Q34.7 17.15 32.25 14.999999999999998Q29.8 12.849999999999998 24.25 12.849999999999998Q18.75 12.849999999999998 16.3 14.999999999999998Q13.850000000000001 17.15 13.850000000000001 21.55Q13.850000000000001 26.0 16.3 28.15Q18.75 30.299999999999997 24.25 30.299999999999997Q29.8 30.299999999999997 32.25 28.174999999999997Q34.7 26.049999999999997 34.7 21.55Z" transform="translate(45.150000000000006, 0)"/>
      <path d="M43.95 3.75Q43.6 12.2 43.6 21.849999999999998Q43.6 31.549999999999997 43.95 40.0H26.05L13.950000000000001 12.7L14.850000000000001 40.0H2.0Q2.4000000000000004 30.299999999999997 2.4000000000000004 21.849999999999998Q2.4000000000000004 13.45 2.0 3.75H20.400000000000002L32.550000000000004 31.799999999999997L31.700000000000003 3.75Z" transform="translate(91.70000000000002, 0)"/>
      <path d="M44.95 14.2Q37.1 13.95 29.700000000000003 13.899999999999999V40.0H17.2V13.899999999999999Q9.75 13.95 2.0 14.2V3.6999999999999957H44.95Z" transform="translate(135.65000000000003, 0)"/>
      <path d="M33.550000000000004 40.0Q32.6 37.15 31.0 32.85H15.05L12.55 40.0H0.0L14.0 3.6999999999999957H32.4L46.5 40.0ZM28.150000000000002 25.049999999999997Q26.25 19.799999999999997 24.25 14.549999999999997L23.05 11.299999999999997Q21.3 15.849999999999998 17.900000000000002 25.049999999999997Z" transform="translate(180.60000000000002, 0)"/>
      <path d="M2.0 22.0Q2.0 13.049999999999997 7.3500000000000005 7.849999999999998Q12.700000000000001 2.6499999999999986 24.0 2.6499999999999986Q39.800000000000004 2.6499999999999986 45.150000000000006 13.5Q40.650000000000006 15.049999999999997 34.6 18.15Q33.15 15.349999999999998 30.025 13.999999999999998Q26.900000000000002 12.649999999999999 23.650000000000002 12.649999999999999Q18.85 12.649999999999999 16.5 15.174999999999999Q14.15 17.7 14.15 21.4Q14.15 25.4 16.675 27.924999999999997Q19.200000000000003 30.45 24.400000000000002 30.45Q28.55 30.45 31.0 29.075Q33.45 27.7 34.6 24.7Q38.7 26.9 45.1 29.65Q42.6 35.7 36.75 38.1Q30.900000000000002 40.5 24.0 40.5Q12.700000000000001 40.5 7.3500000000000005 35.7Q2.0 30.9 2.0 22.0Z" transform="translate(225.75000000000003, 0)"/>
      <path d="M44.95 14.2Q37.1 13.95 29.700000000000003 13.899999999999999V40.0H17.2V13.899999999999999Q9.75 13.95 2.0 14.2V3.6999999999999957H44.95Z" transform="translate(270.90000000000003, 0)"/>
      <path d="M31.6 3.6499999999999986H44.0V23.55Q43.900000000000006 30.9 38.97500000000001 35.7Q34.050000000000004 40.5 22.400000000000002 40.5Q10.600000000000001 40.5 6.250000000000001 35.925Q1.9000000000000001 31.35 2.0 23.9V3.6499999999999986H14.4V23.099999999999998Q14.4 25.299999999999997 14.725000000000001 26.674999999999997Q15.05 28.049999999999997 16.825000000000003 29.25Q18.6 30.45 22.55 30.45Q26.85 30.45 28.85 29.225Q30.85 28.0 31.225 26.5Q31.6 25.0 31.6 22.65Z" transform="translate(330.85, 0)"/>
      <path d="M7.0 25.85Q10.55 27.9 15.250000000000002 29.049999999999997Q19.950000000000003 30.2 24.0 30.2Q28.150000000000002 30.2 29.85 29.475Q31.55 28.75 31.55 27.9Q31.55 24.85 22.25 24.85Q12.05 24.85 7.45 22.725Q2.85 20.599999999999998 2.85 15.849999999999998Q2.85 9.099999999999998 8.450000000000001 5.899999999999997Q14.05 2.6999999999999957 23.0 2.6999999999999957Q28.200000000000003 2.6999999999999957 33.675000000000004 4.024999999999999Q39.150000000000006 5.350000000000001 43.550000000000004 7.649999999999999Q42.1 10.95 40.5 15.7Q40.2 16.7 40.0 17.2Q37.45 15.149999999999999 32.300000000000004 13.774999999999999Q27.150000000000002 12.399999999999999 23.200000000000003 12.399999999999999Q18.45 12.399999999999999 16.8 13.024999999999999Q15.15 13.649999999999999 15.15 14.849999999999998Q15.15 16.049999999999997 17.425 16.775Q19.700000000000003 17.5 24.0 17.5Q34.6 17.5 39.400000000000006 19.924999999999997Q44.2 22.349999999999998 44.2 27.35Q44.2 34.35 39.1 37.425Q34.0 40.5 23.650000000000002 40.5Q18.1 40.5 12.350000000000001 39.275Q6.6000000000000005 38.05 2.0 35.7Q3.7 33.15 4.825 30.95Q5.95 28.75 7.0 25.85Z" transform="translate(374.85, 0)"/>
    </g>
    
    <!-- Dark border -->
    <g fill="none" stroke="#4C1D95" stroke-width="10" stroke-linejoin="round">
      <path d="M2.0 22.0Q2.0 13.049999999999997 7.3500000000000005 7.849999999999998Q12.700000000000001 2.6499999999999986 24.0 2.6499999999999986Q39.800000000000004 2.6499999999999986 45.150000000000006 13.5Q40.650000000000006 15.049999999999997 34.6 18.15Q33.15 15.349999999999998 30.025 13.999999999999998Q26.900000000000002 12.649999999999999 23.650000000000002 12.649999999999999Q18.85 12.649999999999999 16.5 15.174999999999999Q14.15 17.7 14.15 21.4Q14.15 25.4 16.675 27.924999999999997Q19.200000000000003 30.45 24.400000000000002 30.45Q28.55 30.45 31.0 29.075Q33.45 27.7 34.6 24.7Q38.7 26.9 45.1 29.65Q42.6 35.7 36.75 38.1Q30.900000000000002 40.5 24.0 40.5Q12.700000000000001 40.5 7.3500000000000005 35.7Q2.0 30.9 2.0 22.0Z" transform="translate(0, 0)"/>
      <path d="M2.0 21.55Q2.0 12.649999999999999 7.375 7.649999999999999Q12.75 2.6499999999999986 24.25 2.6499999999999986Q35.800000000000004 2.6499999999999986 41.175000000000004 7.649999999999999Q46.550000000000004 12.649999999999999 46.550000000000004 21.55Q46.550000000000004 30.6 41.2 35.55Q35.85 40.5 24.25 40.5Q12.8 40.5 7.4 35.525Q2.0 30.549999999999997 2.0 21.55ZM34.7 21.55Q34.7 17.15 32.25 14.999999999999998Q29.8 12.849999999999998 24.25 12.849999999999998Q18.75 12.849999999999998 16.3 14.999999999999998Q13.850000000000001 17.15 13.850000000000001 21.55Q13.850000000000001 26.0 16.3 28.15Q18.75 30.299999999999997 24.25 30.299999999999997Q29.8 30.299999999999997 32.25 28.174999999999997Q34.7 26.049999999999997 34.7 21.55Z" transform="translate(45.150000000000006, 0)"/>
      <path d="M43.95 3.75Q43.6 12.2 43.6 21.849999999999998Q43.6 31.549999999999997 43.95 40.0H26.05L13.950000000000001 12.7L14.850000000000001 40.0H2.0Q2.4000000000000004 30.299999999999997 2.4000000000000004 21.849999999999998Q2.4000000000000004 13.45 2.0 3.75H20.400000000000002L32.550000000000004 31.799999999999997L31.700000000000003 3.75Z" transform="translate(91.70000000000002, 0)"/>
      <path d="M44.95 14.2Q37.1 13.95 29.700000000000003 13.899999999999999V40.0H17.2V13.899999999999999Q9.75 13.95 2.0 14.2V3.6999999999999957H44.95Z" transform="translate(135.65000000000003, 0)"/>
      <path d="M33.550000000000004 40.0Q32.6 37.15 31.0 32.85H15.05L12.55 40.0H0.0L14.0 3.6999999999999957H32.4L46.5 40.0ZM28.150000000000002 25.049999999999997Q26.25 19.799999999999997 24.25 14.549999999999997L23.05 11.299999999999997Q21.3 15.849999999999998 17.900000000000002 25.049999999999997Z" transform="translate(180.60000000000002, 0)"/>
      <path d="M2.0 22.0Q2.0 13.049999999999997 7.3500000000000005 7.849999999999998Q12.700000000000001 2.6499999999999986 24.0 2.6499999999999986Q39.800000000000004 2.6499999999999986 45.150000000000006 13.5Q40.650000000000006 15.049999999999997 34.6 18.15Q33.15 15.349999999999998 30.025 13.999999999999998Q26.900000000000002 12.649999999999999 23.650000000000002 12.649999999999999Q18.85 12.649999999999999 16.5 15.174999999999999Q14.15 17.7 14.15 21.4Q14.15 25.4 16.675 27.924999999999997Q19.200000000000003 30.45 24.400000000000002 30.45Q28.55 30.45 31.0 29.075Q33.45 27.7 34.6 24.7Q38.7 26.9 45.1 29.65Q42.6 35.7 36.75 38.1Q30.900000000000002 40.5 24.0 40.5Q12.700000000000001 40.5 7.3500000000000005 35.7Q2.0 30.9 2.0 22.0Z" transform="translate(225.75000000000003, 0)"/>
      <path d="M44.95 14.2Q37.1 13.95 29.700000000000003 13.899999999999999V40.0H17.2V13.899999999999999Q9.75 13.95 2.0 14.2V3.6999999999999957H44.95Z" transform="translate(270.90000000000003, 0)"/>
      <path d="M31.6 3.6499999999999986H44.0V23.55Q43.900000000000006 30.9 38.97500000000001 35.7Q34.050000000000004 40.5 22.400000000000002 40.5Q10.600000000000001 40.5 6.250000000000001 35.925Q1.9000000000000001 31.35 2.0 23.9V3.6499999999999986H14.4V23.099999999999998Q14.4 25.299999999999997 14.725000000000001 26.674999999999997Q15.05 28.049999999999997 16.825000000000003 29.25Q18.6 30.45 22.55 30.45Q26.85 30.45 28.85 29.225Q30.85 28.0 31.225 26.5Q31.6 25.0 31.6 22.65Z" transform="translate(330.85, 0)"/>
      <path d="M7.0 25.85Q10.55 27.9 15.250000000000002 29.049999999999997Q19.950000000000003 30.2 24.0 30.2Q28.150000000000002 30.2 29.85 29.475Q31.55 28.75 31.55 27.9Q31.55 24.85 22.25 24.85Q12.05 24.85 7.45 22.725Q2.85 20.599999999999998 2.85 15.849999999999998Q2.85 9.099999999999998 8.450000000000001 5.899999999999997Q14.05 2.6999999999999957 23.0 2.6999999999999957Q28.200000000000003 2.6999999999999957 33.675000000000004 4.024999999999999Q39.150000000000006 5.350000000000001 43.550000000000004 7.649999999999999Q42.1 10.95 40.5 15.7Q40.2 16.7 40.0 17.2Q37.45 15.149999999999999 32.300000000000004 13.774999999999999Q27.150000000000002 12.399999999999999 23.200000000000003 12.399999999999999Q18.45 12.399999999999999 16.8 13.024999999999999Q15.15 13.649999999999999 15.15 14.849999999999998Q15.15 16.049999999999997 17.425 16.775Q19.700000000000003 17.5 24.0 17.5Q34.6 17.5 39.400000000000006 19.924999999999997Q44.2 22.349999999999998 44.2 27.35Q44.2 34.35 39.1 37.425Q34.0 40.5 23.650000000000002 40.5Q18.1 40.5 12.350000000000001 39.275Q6.6000000000000005 38.05 2.0 35.7Q3.7 33.15 4.825 30.95Q5.95 28.75 7.0 25.85Z" transform="translate(374.85, 0)"/>
    </g>
    
    <!-- Inner white border at 70% opacity -->
    <g fill="none" stroke="#FFFFFF" stroke-width="2" stroke-linejoin="round" opacity="0.7">
      <path d="M2.0 22.0Q2.0 13.049999999999997 7.3500000000000005 7.849999999999998Q12.700000000000001 2.6499999999999986 24.0 2.6499999999999986Q39.800000000000004 2.6499999999999986 45.150000000000006 13.5Q40.650000000000006 15.049999999999997 34.6 18.15Q33.15 15.349999999999998 30.025 13.999999999999998Q26.900000000000002 12.649999999999999 23.650000000000002 12.649999999999999Q18.85 12.649999999999999 16.5 15.174999999999999Q14.15 17.7 14.15 21.4Q14.15 25.4 16.675 27.924999999999997Q19.200000000000003 30.45 24.400000000000002 30.45Q28.55 30.45 31.0 29.075Q33.45 27.7 34.6 24.7Q38.7 26.9 45.1 29.65Q42.6 35.7 36.75 38.1Q30.900000000000002 40.5 24.0 40.5Q12.700000000000001 40.5 7.3500000000000005 35.7Q2.0 30.9 2.0 22.0Z" transform="translate(0, 0)"/>
      <path d="M2.0 21.55Q2.0 12.649999999999999 7.375 7.649999999999999Q12.75 2.6499999999999986 24.25 2.6499999999999986Q35.800000000000004 2.6499999999999986 41.175000000000004 7.649999999999999Q46.550000000000004 12.649999999999999 46.550000000000004 21.55Q46.550000000000004 30.6 41.2 35.55Q35.85 40.5 24.25 40.5Q12.8 40.5 7.4 35.525Q2.0 30.549999999999997 2.0 21.55ZM34.7 21.55Q34.7 17.15 32.25 14.999999999999998Q29.8 12.849999999999998 24.25 12.849999999999998Q18.75 12.849999999999998 16.3 14.999999999999998Q13.850000000000001 17.15 13.850000000000001 21.55Q13.850000000000001 26.0 16.3 28.15Q18.75 30.299999999999997 24.25 30.299999999999997Q29.8 30.299999999999997 32.25 28.174999999999997Q34.7 26.049999999999997 34.7 21.55Z" transform="translate(45.150000000000006, 0)"/>
      <path d="M43.95 3.75Q43.6 12.2 43.6 21.849999999999998Q43.6 31.549999999999997 43.95 40.0H26.05L13.950000000000001 12.7L14.850000000000001 40.0H2.0Q2.4000000000000004 30.299999999999997 2.4000000000000004 21.849999999999998Q2.4000000000000004 13.45 2.0 3.75H20.400000000000002L32.550000000000004 31.799999999999997L31.700000000000003 3.75Z" transform="translate(91.70000000000002, 0)"/>
      <path d="M44.95 14.2Q37.1 13.95 29.700000000000003 13.899999999999999V40.0H17.2V13.899999999999999Q9.75 13.95 2.0 14.2V3.6999999999999957H44.95Z" transform="translate(135.65000000000003, 0)"/>
      <path d="M33.550000000000004 40.0Q32.6 37.15 31.0 32.85H15.05L12.55 40.0H0.0L14.0 3.6999999999999957H32.4L46.5 40.0ZM28.150000000000002 25.049999999999997Q26.25 19.799999999999997 24.25 14.549999999999997L23.05 11.299999999999997Q21.3 15.849999999999998 17.900000000000002 25.049999999999997Z" transform="translate(180.60000000000002, 0)"/>
      <path d="M2.0 22.0Q2.0 13.049999999999997 7.3500000000000005 7.849999999999998Q12.700000000000001 2.6499999999999986 24.0 2.6499999999999986Q39.800000000000004 2.6499999999999986 45.150000000000006 13.5Q40.650000000000006 15.049999999999997 34.6 18.15Q33.15 15.349999999999998 30.025 13.999999999999998Q26.900000000000002 12.649999999999999 23.650000000000002 12.649999999999999Q18.85 12.649999999999999 16.5 15.174999999999999Q14.15 17.7 14.15 21.4Q14.15 25.4 16.675 27.924999999999997Q19.200000000000003 30.45 24.400000000000002 30.45Q28.55 30.45 31.0 29.075Q33.45 27.7 34.6 24.7Q38.7 26.9 45.1 29.65Q42.6 35.7 36.75 38.1Q30.900000000000002 40.5 24.0 40.5Q12.700000000000001 40.5 7.3500000000000005 35.7Q2.0 30.9 2.0 22.0Z" transform="translate(225.75000000000003, 0)"/>
      <path d="M44.95 14.2Q37.1 13.95 29.700000000000003 13.899999999999999V40.0H17.2V13.899999999999999Q9.75 13.95 2.0 14.2V3.6999999999999957H44.95Z" transform="translate(270.90000000000003, 0)"/>
      <path d="M31.6 3.6499999999999986H44.0V23.55Q43.900000000000006 30.9 38.97500000000001 35.7Q34.050000000000004 40.5 22.400000000000002 40.5Q10.600000000000001 40.5 6.250000000000001 35.925Q1.9000000000000001 31.35 2.0 23.9V3.6499999999999986H14.4V23.099999999999998Q14.4 25.299999999999997 14.725000000000001 26.674999999999997Q15.05 28.049999999999997 16.825000000000003 29.25Q18.6 30.45 22.55 30.45Q26.85 30.45 28.85 29.225Q30.85 28.0 31.225 26.5Q31.6 25.0 31.6 22.65Z" transform="translate(330.85, 0)"/>
      <path d="M7.0 25.85Q10.55 27.9 15.250000000000002 29.049999999999997Q19.950000000000003 30.2 24.0 30.2Q28.150000000000002 30.2 29.85 29.475Q31.55 28.75 31.55 27.9Q31.55 24.85 22.25 24.85Q12.05 24.85 7.45 22.725Q2.85 20.599999999999998 2.85 15.849999999999998Q2.85 9.099999999999998 8.450000000000001 5.899999999999997Q14.05 2.6999999999999957 23.0 2.6999999999999957Q28.200000000000003 2.6999999999999957 33.675000000000004 4.024999999999999Q39.150000000000006 5.350000000000001 43.550000000000004 7.649999999999999Q42.1 10.95 40.5 15.7Q40.2 16.7 40.0 17.2Q37.45 15.149999999999999 32.300000000000004 13.774999999999999Q27.150000000000002 12.399999999999999 23.200000000000003 12.399999999999999Q18.45 12.399999999999999 16.8 13.024999999999999Q15.15 13.649999999999999 15.15 14.849999999999998Q15.15 16.049999999999997 17.425 16.775Q19.700000000000003 17.5 24.0 17.5Q34.6 17.5 39.400000000000006 19.924999999999997Q44.2 22.349999999999998 44.2 27.35Q44.2 34.35 39.1 37.425Q34.0 40.5 23.650000000000002 40.5Q18.1 40.5 12.350000000000001 39.275Q6.6000000000000005 38.05 2.0 35.7Q3.7 33.15 4.825 30.95Q5.95 28.75 7.0 25.85Z" transform="translate(374.85, 0)"/>
    </g>
    
    <!-- Main gradient fill -->
    <g fill="url(#mainGradient)">
      <path d="M2.0 22.0Q2.0 13.049999999999997 7.3500000000000005 7.849999999999998Q12.700000000000001 2.6499999999999986 24.0 2.6499999999999986Q39.800000000000004 2.6499999999999986 45.150000000000006 13.5Q40.650000000000006 15.049999999999997 34.6 18.15Q33.15 15.349999999999998 30.025 13.999999999999998Q26.900000000000002 12.649999999999999 23.650000000000002 12.649999999999999Q18.85 12.649999999999999 16.5 15.174999999999999Q14.15 17.7 14.15 21.4Q14.15 25.4 16.675 27.924999999999997Q19.200000000000003 30.45 24.400000000000002 30.45Q28.55 30.45 31.0 29.075Q33.45 27.7 34.6 24.7Q38.7 26.9 45.1 29.65Q42.6 35.7 36.75 38.1Q30.900000000000002 40.5 24.0 40.5Q12.700000000000001 40.5 7.3500000000000005 35.7Q2.0 30.9 2.0 22.0Z" transform="translate(0, 0)"/>
      <path d="M2.0 21.55Q2.0 12.649999999999999 7.375 7.649999999999999Q12.75 2.6499999999999986 24.25 2.6499999999999986Q35.800000000000004 2.6499999999999986 41.175000000000004 7.649999999999999Q46.550000000000004 12.649999999999999 46.550000000000004 21.55Q46.550000000000004 30.6 41.2 35.55Q35.85 40.5 24.25 40.5Q12.8 40.5 7.4 35.525Q2.0 30.549999999999997 2.0 21.55ZM34.7 21.55Q34.7 17.15 32.25 14.999999999999998Q29.8 12.849999999999998 24.25 12.849999999999998Q18.75 12.849999999999998 16.3 14.999999999999998Q13.850000000000001 17.15 13.850000000000001 21.55Q13.850000000000001 26.0 16.3 28.15Q18.75 30.299999999999997 24.25 30.299999999999997Q29.8 30.299999999999997 32.25 28.174999999999997Q34.7 26.049999999999997 34.7 21.55Z" transform="translate(45.150000000000006, 0)"/>
      <path d="M43.95 3.75Q43.6 12.2 43.6 21.849999999999998Q43.6 31.549999999999997 43.95 40.0H26.05L13.950000000000001 12.7L14.850000000000001 40.0H2.0Q2.4000000000000004 30.299999999999997 2.4000000000000004 21.849999999999998Q2.4000000000000004 13.45 2.0 3.75H20.400000000000002L32.550000000000004 31.799999999999997L31.700000000000003 3.75Z" transform="translate(91.70000000000002, 0)"/>
      <path d="M44.95 14.2Q37.1 13.95 29.700000000000003 13.899999999999999V40.0H17.2V13.899999999999999Q9.75 13.95 2.0 14.2V3.6999999999999957H44.95Z" transform="translate(135.65000000000003, 0)"/>
      <path d="M33.550000000000004 40.0Q32.6 37.15 31.0 32.85H15.05L12.55 40.0H0.0L14.0 3.6999999999999957H32.4L46.5 40.0ZM28.150000000000002 25.049999999999997Q26.25 19.799999999999997 24.25 14.549999999999997L23.05 11.299999999999997Q21.3 15.849999999999998 17.900000000000002 25.049999999999997Z" transform="translate(180.60000000000002, 0)"/>
      <path d="M2.0 22.0Q2.0 13.049999999999997 7.3500000000000005 7.849999999999998Q12.700000000000001 2.6499999999999986 24.0 2.6499999999999986Q39.800000000000004 2.6499999999999986 45.150000000000006 13.5Q40.650000000000006 15.049999999999997 34.6 18.15Q33.15 15.349999999999998 30.025 13.999999999999998Q26.900000000000002 12.649999999999999 23.650000000000002 12.649999999999999Q18.85 12.649999999999999 16.5 15.174999999999999Q14.15 17.7 14.15 21.4Q14.15 25.4 16.675 27.924999999999997Q19.200000000000003 30.45 24.400000000000002 30.45Q28.55 30.45 31.0 29.075Q33.45 27.7 34.6 24.7Q38.7 26.9 45.1 29.65Q42.6 35.7 36.75 38.1Q30.900000000000002 40.5 24.0 40.5Q12.700000000000001 40.5 7.3500000000000005 35.7Q2.0 30.9 2.0 22.0Z" transform="translate(225.75000000000003, 0)"/>
      <path d="M44.95 14.2Q37.1 13.95 29.700000000000003 13.899999999999999V40.0H17.2V13.899999999999999Q9.75 13.95 2.0 14.2V3.6999999999999957H44.95Z" transform="translate(270.90000000000003, 0)"/>
      <path d="M31.6 3.6499999999999986H44.0V23.55Q43.900000000000006 30.9 38.97500000000001 35.7Q34.050000000000004 40.5 22.400000000000002 40.5Q10.600000000000001 40.5 6.250000000000001 35.925Q1.9000000000000001 31.35 2.0 23.9V3.6499999999999986H14.4V23.099999999999998Q14.4 25.299999999999997 14.725000000000001 26.674999999999997Q15.05 28.049999999999997 16.825000000000003 29.25Q18.6 30.45 22.55 30.45Q26.85 30.45 28.85 29.225Q30.85 28.0 31.225 26.5Q31.6 25.0 31.6 22.65Z" transform="translate(330.85, 0)"/>
      <path d="M7.0 25.85Q10.55 27.9 15.250000000000002 29.049999999999997Q19.950000000000003 30.2 24.0 30.2Q28.150000000000002 30.2 29.85 29.475Q31.55 28.75 31.55 27.9Q31.55 24.85 22.25 24.85Q12.05 24.85 7.45 22.725Q2.85 20.599999999999998 2.85 15.849999999999998Q2.85 9.099999999999998 8.450000000000001 5.899999999999997Q14.05 2.6999999999999957 23.0 2.6999999999999957Q28.200000000000003 2.6999999999999957 33.675000000000004 4.024999999999999Q39.150000000000006 5.350000000000001 43.550000000000004 7.649999999999999Q42.1 10.95 40.5 15.7Q40.2 16.7 40.0 17.2Q37.45 15.149999999999999 32.300000000000004 13.774999999999999Q27.150000000000002 12.399999999999999 23.200000000000003 12.399999999999999Q18.45 12.399999999999999 16.8 13.024999999999999Q15.15 13.649999999999999 15.15 14.849999999999998Q15.15 16.049999999999997 17.425 16.775Q19.700000000000003 17.5 24.0 17.5Q34.6 17.5 39.400000000000006 19.924999999999997Q44.2 22.349999999999998 44.2 27.35Q44.2 34.35 39.1 37.425Q34.0 40.5 23.650000000000002 40.5Q18.1 40.5 12.350000000000001 39.275Q6.6000000000000005 38.05 2.0 35.7Q3.7 33.15 4.825 30.95Q5.95 28.75 7.0 25.85Z" transform="translate(374.85, 0)"/>
    </g>
    
    <!-- Bubble overlay clipped to letters -->
    <g clip-path="url(#contactClip)">
      <circle cx="315.0" cy="31.6" r="11.2" fill="#FFFFFF" opacity="0.26"/>
        <circle cx="272.9" cy="22.0" r="15.9" fill="#FFFFFF" opacity="0.26"/>
        <circle cx="373.3" cy="14.0" r="17.8" fill="#FFFFFF" opacity="0.14"/>
        <circle cx="201.5" cy="17.9" r="9.2" fill="#FFFFFF" opacity="0.14"/>
        <circle cx="77.9" cy="15.7" r="12.3" fill="#FFFFFF" opacity="0.26"/>
        <circle cx="299.2" cy="30.7" r="13.0" fill="#FFFFFF" opacity="0.25"/>
        <circle cx="403.6" cy="27.4" r="6.9" fill="#FFFFFF" opacity="0.22"/>
        <circle cx="152.8" cy="32.1" r="14.7" fill="#FFFFFF" opacity="0.24"/>
        <circle cx="366.9" cy="10.5" r="15.6" fill="#FFFFFF" opacity="0.14"/>
        <circle cx="188.0" cy="23.8" r="10.4" fill="#FFFFFF" opacity="0.28"/>
        <circle cx="132.1" cy="31.8" r="15.8" fill="#FFFFFF" opacity="0.25"/>
        <circle cx="289.6" cy="26.6" r="10.7" fill="#FFFFFF" opacity="0.25"/>
        <circle cx="249.0" cy="29.5" r="11.5" fill="#FFFFFF" opacity="0.13"/>
        <circle cx="101.8" cy="20.0" r="7.7" fill="#FFFFFF" opacity="0.26"/>
        <circle cx="398.7" cy="10.9" r="13.4" fill="#FFFFFF" opacity="0.27"/>
        <circle cx="376.4" cy="26.4" r="12.5" fill="#FFFFFF" opacity="0.18"/>
        <circle cx="329.1" cy="8.9" r="8.1" fill="#FFFFFF" opacity="0.15"/>
        <circle cx="363.6" cy="13.3" r="12.3" fill="#FFFFFF" opacity="0.27"/>
    </g>
    
    <!-- Highlight overlay -->
    <g fill="url(#highlightGradient)">
      <path d="M2.0 22.0Q2.0 13.049999999999997 7.3500000000000005 7.849999999999998Q12.700000000000001 2.6499999999999986 24.0 2.6499999999999986Q39.800000000000004 2.6499999999999986 45.150000000000006 13.5Q40.650000000000006 15.049999999999997 34.6 18.15Q33.15 15.349999999999998 30.025 13.999999999999998Q26.900000000000002 12.649999999999999 23.650000000000002 12.649999999999999Q18.85 12.649999999999999 16.5 15.174999999999999Q14.15 17.7 14.15 21.4Q14.15 25.4 16.675 27.924999999999997Q19.200000000000003 30.45 24.400000000000002 30.45Q28.55 30.45 31.0 29.075Q33.45 27.7 34.6 24.7Q38.7 26.9 45.1 29.65Q42.6 35.7 36.75 38.1Q30.900000000000002 40.5 24.0 40.5Q12.700000000000001 40.5 7.3500000000000005 35.7Q2.0 30.9 2.0 22.0Z" transform="translate(0, 0)"/>
      <path d="M2.0 21.55Q2.0 12.649999999999999 7.375 7.649999999999999Q12.75 2.6499999999999986 24.25 2.6499999999999986Q35.800000000000004 2.6499999999999986 41.175000000000004 7.649999999999999Q46.550000000000004 12.649999999999999 46.550000000000004 21.55Q46.550000000000004 30.6 41.2 35.55Q35.85 40.5 24.25 40.5Q12.8 40.5 7.4 35.525Q2.0 30.549999999999997 2.0 21.55ZM34.7 21.55Q34.7 17.15 32.25 14.999999999999998Q29.8 12.849999999999998 24.25 12.849999999999998Q18.75 12.849999999999998 16.3 14.999999999999998Q13.850000000000001 17.15 13.850000000000001 21.55Q13.850000000000001 26.0 16.3 28.15Q18.75 30.299999999999997 24.25 30.299999999999997Q29.8 30.299999999999997 32.25 28.174999999999997Q34.7 26.049999999999997 34.7 21.55Z" transform="translate(45.150000000000006, 0)"/>
      <path d="M43.95 3.75Q43.6 12.2 43.6 21.849999999999998Q43.6 31.549999999999997 43.95 40.0H26.05L13.950000000000001 12.7L14.850000000000001 40.0H2.0Q2.4000000000000004 30.299999999999997 2.4000000000000004 21.849999999999998Q2.4000000000000004 13.45 2.0 3.75H20.400000000000002L32.550000000000004 31.799999999999997L31.700000000000003 3.75Z" transform="translate(91.70000000000002, 0)"/>
      <path d="M44.95 14.2Q37.1 13.95 29.700000000000003 13.899999999999999V40.0H17.2V13.899999999999999Q9.75 13.95 2.0 14.2V3.6999999999999957H44.95Z" transform="translate(135.65000000000003, 0)"/>
      <path d="M33.550000000000004 40.0Q32.6 37.15 31.0 32.85H15.05L12.55 40.0H0.0L14.0 3.6999999999999957H32.4L46.5 40.0ZM28.150000000000002 25.049999999999997Q26.25 19.799999999999997 24.25 14.549999999999997L23.05 11.299999999999997Q21.3 15.849999999999998 17.900000000000002 25.049999999999997Z" transform="translate(180.60000000000002, 0)"/>
      <path d="M2.0 22.0Q2.0 13.049999999999997 7.3500000000000005 7.849999999999998Q12.700000000000001 2.6499999999999986 24.0 2.6499999999999986Q39.800000000000004 2.6499999999999986 45.150000000000006 13.5Q40.650000000000006 15.049999999999997 34.6 18.15Q33.15 15.349999999999998 30.025 13.999999999999998Q26.900000000000002 12.649999999999999 23.650000000000002 12.649999999999999Q18.85 12.649999999999999 16.5 15.174999999999999Q14.15 17.7 14.15 21.4Q14.15 25.4 16.675 27.924999999999997Q19.200000000000003 30.45 24.400000000000002 30.45Q28.55 30.45 31.0 29.075Q33.45 27.7 34.6 24.7Q38.7 26.9 45.1 29.65Q42.6 35.7 36.75 38.1Q30.900000000000002 40.5 24.0 40.5Q12.700000000000001 40.5 7.3500000000000005 35.7Q2.0 30.9 2.0 22.0Z" transform="translate(225.75000000000003, 0)"/>
      <path d="M44.95 14.2Q37.1 13.95 29.700000000000003 13.899999999999999V40.0H17.2V13.899999999999999Q9.75 13.95 2.0 14.2V3.6999999999999957H44.95Z" transform="translate(270.90000000000003, 0)"/>
      <path d="M31.6 3.6499999999999986H44.0V23.55Q43.900000000000006 30.9 38.97500000000001 35.7Q34.050000000000004 40.5 22.400000000000002 40.5Q10.600000000000001 40.5 6.250000000000001 35.925Q1.9000000000000001 31.35 2.0 23.9V3.6499999999999986H14.4V23.099999999999998Q14.4 25.299999999999997 14.725000000000001 26.674999999999997Q15.05 28.049999999999997 16.825000000000003 29.25Q18.6 30.45 22.55 30.45Q26.85 30.45 28.85 29.225Q30.85 28.0 31.225 26.5Q31.6 25.0 31.6 22.65Z" transform="translate(330.85, 0)"/>
      <path d="M7.0 25.85Q10.55 27.9 15.250000000000002 29.049999999999997Q19.950000000000003 30.2 24.0 30.2Q28.150000000000002 30.2 29.85 29.475Q31.55 28.75 31.55 27.9Q31.55 24.85 22.25 24.85Q12.05 24.85 7.45 22.725Q2.85 20.599999999999998 2.85 15.849999999999998Q2.85 9.099999999999998 8.450000000000001 5.899999999999997Q14.05 2.6999999999999957 23.0 2.6999999999999957Q28.200000000000003 2.6999999999999957 33.675000000000004 4.024999999999999Q39.150000000000006 5.350000000000001 43.550000000000004 7.649999999999999Q42.1 10.95 40.5 15.7Q40.2 16.7 40.0 17.2Q37.45 15.149999999999999 32.300000000000004 13.774999999999999Q27.150000000000002 12.399999999999999 23.200000000000003 12.399999999999999Q18.45 12.399999999999999 16.8 13.024999999999999Q15.15 13.649999999999999 15.15 14.849999999999998Q15.15 16.049999999999997 17.425 16.775Q19.700000000000003 17.5 24.0 17.5Q34.6 17.5 39.400000000000006 19.924999999999997Q44.2 22.349999999999998 44.2 27.35Q44.2 34.35 39.1 37.425Q34.0 40.5 23.650000000000002 40.5Q18.1 40.5 12.350000000000001 39.275Q6.6000000000000005 38.05 2.0 35.7Q3.7 33.15 4.825 30.95Q5.95 28.75 7.0 25.85Z" transform="translate(374.85, 0)"/>
    </g>
  </g>
</svg>
