<svg xmlns="http://www.w3.org/2000/svg" viewBox="-10.00 -10.00 117.91 88.75">
  <defs>
    <!-- Purple-blue gradient for M -->
    <linearGradient id="blueGradient" x1="0%" y1="0%" x2="0%" y2="100%">
      <stop offset="0%" style="stop-color:#C4B5FD"/>
      <stop offset="30%" style="stop-color:#A78BFA"/>
      <stop offset="70%" style="stop-color:#8B5CF6"/>
      <stop offset="100%" style="stop-color:#7C3AED"/>
    </linearGradient>
    
    <!-- Highlight gradient -->
    <linearGradient id="blueHighlight" x1="0%" y1="0%" x2="0%" y2="100%">
      <stop offset="0%" style="stop-color:#FFFFFF" stop-opacity="0.8"/>
      <stop offset="40%" style="stop-color:#FFFFFF" stop-opacity="0.2"/>
      <stop offset="60%" style="stop-color:#FFFFFF" stop-opacity="0"/>
    </linearGradient>
  </defs>

  <!-- M Letter -->
  <g>
    <!-- 3D Extrusion layers -->
    <path d="M82.875 6.289999999999992 89.50500000000001 68.0H67.49000000000001L66.13000000000001 23.97L57.63 68.0H35.36L26.69 24.309999999999995L25.415000000000003 68.0H3.4000000000000004L10.030000000000001 6.289999999999992H38.93L46.325 46.495L52.785000000000004 6.289999999999992Z" fill="#4C1D95" transform="translate(5, 5)"/>
    <path d="M82.875 6.289999999999992 89.50500000000001 68.0H67.49000000000001L66.13000000000001 23.97L57.63 68.0H35.36L26.69 24.309999999999995L25.415000000000003 68.0H3.4000000000000004L10.030000000000001 6.289999999999992H38.93L46.325 46.495L52.785000000000004 6.289999999999992Z" fill="#5B21B6" transform="translate(4, 4)"/>
    <path d="M82.875 6.289999999999992 89.50500000000001 68.0H67.49000000000001L66.13000000000001 23.97L57.63 68.0H35.36L26.69 24.309999999999995L25.415000000000003 68.0H3.4000000000000004L10.030000000000001 6.289999999999992H38.93L46.325 46.495L52.785000000000004 6.289999999999992Z" fill="#6D28D9" transform="translate(3, 3)"/>
    <path d="M82.875 6.289999999999992 89.50500000000001 68.0H67.49000000000001L66.13000000000001 23.97L57.63 68.0H35.36L26.69 24.309999999999995L25.415000000000003 68.0H3.4000000000000004L10.030000000000001 6.289999999999992H38.93L46.325 46.495L52.785000000000004 6.289999999999992Z" fill="#7C3AED" transform="translate(2, 2)"/>
    
    <!-- White outer border -->
    <path d="M82.875 6.289999999999992 89.50500000000001 68.0H67.49000000000001L66.13000000000001 23.97L57.63 68.0H35.36L26.69 24.309999999999995L25.415000000000003 68.0H3.4000000000000004L10.030000000000001 6.289999999999992H38.93L46.325 46.495L52.785000000000004 6.289999999999992Z" fill="none" stroke="#FFFFFF" stroke-width="16" stroke-linejoin="round"/>
    
    <!-- Dark purple border -->
    <path d="M82.875 6.289999999999992 89.50500000000001 68.0H67.49000000000001L66.13000000000001 23.97L57.63 68.0H35.36L26.69 24.309999999999995L25.415000000000003 68.0H3.4000000000000004L10.030000000000001 6.289999999999992H38.93L46.325 46.495L52.785000000000004 6.289999999999992Z" fill="none" stroke="#4C1D95" stroke-width="10" stroke-linejoin="round"/>
    
    <!-- Inner white border at 70% opacity -->
    <path d="M82.875 6.289999999999992 89.50500000000001 68.0H67.49000000000001L66.13000000000001 23.97L57.63 68.0H35.36L26.69 24.309999999999995L25.415000000000003 68.0H3.4000000000000004L10.030000000000001 6.289999999999992H38.93L46.325 46.495L52.785000000000004 6.289999999999992Z" fill="none" stroke="#FFFFFF" stroke-width="2" stroke-linejoin="round" opacity="0.7"/>
    
    <!-- Main purple gradient fill -->
    <path d="M82.875 6.289999999999992 89.50500000000001 68.0H67.49000000000001L66.13000000000001 23.97L57.63 68.0H35.36L26.69 24.309999999999995L25.415000000000003 68.0H3.4000000000000004L10.030000000000001 6.289999999999992H38.93L46.325 46.495L52.785000000000004 6.289999999999992Z" fill="url(#blueGradient)"/>
    
    <!-- Highlight overlay -->
    <path d="M82.875 6.289999999999992 89.50500000000001 68.0H67.49000000000001L66.13000000000001 23.97L57.63 68.0H35.36L26.69 24.309999999999995L25.415000000000003 68.0H3.4000000000000004L10.030000000000001 6.289999999999992H38.93L46.325 46.495L52.785000000000004 6.289999999999992Z" fill="url(#blueHighlight)"/>
  </g>
</svg>
