<svg xmlns="http://www.w3.org/2000/svg" viewBox="63.01 15.00 478.97 152.64">
  <defs>
    <!-- Purple-blue gradient for Medway -->
    <linearGradient id="blueGradient" x1="0%" y1="0%" x2="0%" y2="100%">
      <stop offset="0%" style="stop-color:#C4B5FD"/>
      <stop offset="30%" style="stop-color:#A78BFA"/>
      <stop offset="70%" style="stop-color:#8B5CF6"/>
      <stop offset="100%" style="stop-color:#7C3AED"/>
    </linearGradient>
    
    <!-- Blue highlight gradient -->
    <linearGradient id="blueHighlight" x1="0%" y1="0%" x2="0%" y2="100%">
      <stop offset="0%" style="stop-color:#FFFFFF" stop-opacity="0.8"/>
      <stop offset="40%" style="stop-color:#FFFFFF" stop-opacity="0.2"/>
      <stop offset="60%" style="stop-color:#FFFFFF" stop-opacity="0"/>
    </linearGradient>
    
    <!-- Yellow gradient for Mascots -->
    <linearGradient id="orangeGradient" x1="0%" y1="0%" x2="0%" y2="100%">
      <stop offset="0%" style="stop-color:#FEF08A"/>
      <stop offset="30%" style="stop-color:#FDE047"/>
      <stop offset="70%" style="stop-color:#FACC15"/>
      <stop offset="100%" style="stop-color:#EAB308"/>
    </linearGradient>
    
    <!-- Orange highlight gradient -->
    <linearGradient id="orangeHighlight" x1="0%" y1="0%" x2="0%" y2="100%">
      <stop offset="0%" style="stop-color:#FFFFFF" stop-opacity="0.8"/>
      <stop offset="40%" style="stop-color:#FFFFFF" stop-opacity="0.2"/>
      <stop offset="60%" style="stop-color:#FFFFFF" stop-opacity="0"/>
    </linearGradient>
  </defs>

  <!-- MEDWAY Text -->
  <g transform="translate(73.01249999999999, 25)">
    <!-- 3D Extrusion layers -->
    <g fill="#4C1D95" transform="translate(5, 5)">
      <path d="M82.875 6.289999999999992 89.50500000000001 68.0H67.49000000000001L66.13000000000001 23.97L57.63 68.0H35.36L26.69 24.309999999999995L25.415000000000003 68.0H3.4000000000000004L10.030000000000001 6.289999999999992H38.93L46.325 46.495L52.785000000000004 6.289999999999992Z" transform="translate(0, 0)"/>
      <path d="M23.46 52.445Q55.760000000000005 52.275 70.295 51.51Q69.7 54.995 69.5725 58.692499999999995Q69.44500000000001 62.39 69.44500000000001 68.0H3.4000000000000004Q4.08 51.51 4.08 37.144999999999996Q4.08 22.779999999999994 3.4000000000000004 6.289999999999992H69.44500000000001V21.674999999999997H23.46V29.834999999999994Q27.540000000000003 29.919999999999995 35.53 29.919999999999995Q49.045 29.919999999999995 63.495000000000005 29.409999999999997V44.03Q49.045 43.519999999999996 35.53 43.519999999999996Q27.540000000000003 43.519999999999996 23.46 43.605Z" transform="translate(88.905, 0)"/>
      <path d="M72.50500000000001 36.72Q72.50500000000001 46.155 68.25500000000001 53.21Q64.00500000000001 60.265 55.50500000000001 64.1325Q47.005 68.0 34.595000000000006 68.0Q27.03 68.0 19.21 68.0Q11.39 68.0 3.4000000000000004 67.915Q4.08 51.17 4.08 36.72Q4.08 22.099999999999994 3.4000000000000004 6.204999999999998Q13.515 5.354999999999997 30.6 5.354999999999997Q46.580000000000005 5.354999999999997 55.845 9.222499999999997Q65.11 13.089999999999996 68.8075 19.932499999999997Q72.50500000000001 26.775 72.50500000000001 36.72ZM36.975 51.084999999999994Q44.88 51.084999999999994 47.515 47.26Q50.150000000000006 43.435 50.150000000000006 36.72Q50.150000000000006 30.259999999999998 47.3875 26.264999999999997Q44.625 22.269999999999996 36.975 22.269999999999996Q28.73 22.269999999999996 24.650000000000002 22.779999999999994V51.084999999999994Z" transform="translate(158.60000000000002, 0)"/>
      <path d="M64.60000000000001 44.795 69.02000000000001 6.289999999999992H89.76L78.37 68.0H52.275000000000006L46.495000000000005 33.574999999999996L39.78 68.0H14.790000000000001L3.4000000000000004 6.289999999999992H24.14L28.475 44.285L35.275000000000006 6.289999999999992H57.970000000000006Z" transform="translate(230.50500000000002, 0)"/>
      <path d="M57.035000000000004 68.0Q55.42 63.155 52.7 55.845H25.585L21.335 68.0H0.0L23.8 6.289999999999992H55.080000000000005L79.05000000000001 68.0ZM47.855000000000004 42.584999999999994Q44.625 33.66 41.225 24.735L39.185 19.209999999999994Q36.21 26.945 30.430000000000003 42.584999999999994Z" transform="translate(309.665, 0)"/>
      <path d="M79.05000000000001 6.289999999999992 77.435 8.754999999999995Q68.34 22.864999999999995 61.837500000000006 33.7025Q55.335 44.54 51.00000000000001 53.635V68.0H28.815V52.19Q25.67 45.815 21.42 39.0575Q17.17 32.3 9.350000000000001 20.485Q3.2300000000000004 11.474999999999994 0.0 6.289999999999992H23.8Q26.35 11.474999999999994 32.13 21.674999999999997Q37.910000000000004 32.044999999999995 40.035000000000004 36.295Q43.010000000000005 30.089999999999996 48.025000000000006 21.08Q53.89 10.54 55.93000000000001 6.289999999999992Z" transform="translate(373.82000000000005, 0)"/>
    </g>
    <g fill="#5B21B6" transform="translate(4, 4)">
      <path d="M82.875 6.289999999999992 89.50500000000001 68.0H67.49000000000001L66.13000000000001 23.97L57.63 68.0H35.36L26.69 24.309999999999995L25.415000000000003 68.0H3.4000000000000004L10.030000000000001 6.289999999999992H38.93L46.325 46.495L52.785000000000004 6.289999999999992Z" transform="translate(0, 0)"/>
      <path d="M23.46 52.445Q55.760000000000005 52.275 70.295 51.51Q69.7 54.995 69.5725 58.692499999999995Q69.44500000000001 62.39 69.44500000000001 68.0H3.4000000000000004Q4.08 51.51 4.08 37.144999999999996Q4.08 22.779999999999994 3.4000000000000004 6.289999999999992H69.44500000000001V21.674999999999997H23.46V29.834999999999994Q27.540000000000003 29.919999999999995 35.53 29.919999999999995Q49.045 29.919999999999995 63.495000000000005 29.409999999999997V44.03Q49.045 43.519999999999996 35.53 43.519999999999996Q27.540000000000003 43.519999999999996 23.46 43.605Z" transform="translate(88.905, 0)"/>
      <path d="M72.50500000000001 36.72Q72.50500000000001 46.155 68.25500000000001 53.21Q64.00500000000001 60.265 55.50500000000001 64.1325Q47.005 68.0 34.595000000000006 68.0Q27.03 68.0 19.21 68.0Q11.39 68.0 3.4000000000000004 67.915Q4.08 51.17 4.08 36.72Q4.08 22.099999999999994 3.4000000000000004 6.204999999999998Q13.515 5.354999999999997 30.6 5.354999999999997Q46.580000000000005 5.354999999999997 55.845 9.222499999999997Q65.11 13.089999999999996 68.8075 19.932499999999997Q72.50500000000001 26.775 72.50500000000001 36.72ZM36.975 51.084999999999994Q44.88 51.084999999999994 47.515 47.26Q50.150000000000006 43.435 50.150000000000006 36.72Q50.150000000000006 30.259999999999998 47.3875 26.264999999999997Q44.625 22.269999999999996 36.975 22.269999999999996Q28.73 22.269999999999996 24.650000000000002 22.779999999999994V51.084999999999994Z" transform="translate(158.60000000000002, 0)"/>
      <path d="M64.60000000000001 44.795 69.02000000000001 6.289999999999992H89.76L78.37 68.0H52.275000000000006L46.495000000000005 33.574999999999996L39.78 68.0H14.790000000000001L3.4000000000000004 6.289999999999992H24.14L28.475 44.285L35.275000000000006 6.289999999999992H57.970000000000006Z" transform="translate(230.50500000000002, 0)"/>
      <path d="M57.035000000000004 68.0Q55.42 63.155 52.7 55.845H25.585L21.335 68.0H0.0L23.8 6.289999999999992H55.080000000000005L79.05000000000001 68.0ZM47.855000000000004 42.584999999999994Q44.625 33.66 41.225 24.735L39.185 19.209999999999994Q36.21 26.945 30.430000000000003 42.584999999999994Z" transform="translate(309.665, 0)"/>
      <path d="M79.05000000000001 6.289999999999992 77.435 8.754999999999995Q68.34 22.864999999999995 61.837500000000006 33.7025Q55.335 44.54 51.00000000000001 53.635V68.0H28.815V52.19Q25.67 45.815 21.42 39.0575Q17.17 32.3 9.350000000000001 20.485Q3.2300000000000004 11.474999999999994 0.0 6.289999999999992H23.8Q26.35 11.474999999999994 32.13 21.674999999999997Q37.910000000000004 32.044999999999995 40.035000000000004 36.295Q43.010000000000005 30.089999999999996 48.025000000000006 21.08Q53.89 10.54 55.93000000000001 6.289999999999992Z" transform="translate(373.82000000000005, 0)"/>
    </g>
    <g fill="#6D28D9" transform="translate(3, 3)">
      <path d="M82.875 6.289999999999992 89.50500000000001 68.0H67.49000000000001L66.13000000000001 23.97L57.63 68.0H35.36L26.69 24.309999999999995L25.415000000000003 68.0H3.4000000000000004L10.030000000000001 6.289999999999992H38.93L46.325 46.495L52.785000000000004 6.289999999999992Z" transform="translate(0, 0)"/>
      <path d="M23.46 52.445Q55.760000000000005 52.275 70.295 51.51Q69.7 54.995 69.5725 58.692499999999995Q69.44500000000001 62.39 69.44500000000001 68.0H3.4000000000000004Q4.08 51.51 4.08 37.144999999999996Q4.08 22.779999999999994 3.4000000000000004 6.289999999999992H69.44500000000001V21.674999999999997H23.46V29.834999999999994Q27.540000000000003 29.919999999999995 35.53 29.919999999999995Q49.045 29.919999999999995 63.495000000000005 29.409999999999997V44.03Q49.045 43.519999999999996 35.53 43.519999999999996Q27.540000000000003 43.519999999999996 23.46 43.605Z" transform="translate(88.905, 0)"/>
      <path d="M72.50500000000001 36.72Q72.50500000000001 46.155 68.25500000000001 53.21Q64.00500000000001 60.265 55.50500000000001 64.1325Q47.005 68.0 34.595000000000006 68.0Q27.03 68.0 19.21 68.0Q11.39 68.0 3.4000000000000004 67.915Q4.08 51.17 4.08 36.72Q4.08 22.099999999999994 3.4000000000000004 6.204999999999998Q13.515 5.354999999999997 30.6 5.354999999999997Q46.580000000000005 5.354999999999997 55.845 9.222499999999997Q65.11 13.089999999999996 68.8075 19.932499999999997Q72.50500000000001 26.775 72.50500000000001 36.72ZM36.975 51.084999999999994Q44.88 51.084999999999994 47.515 47.26Q50.150000000000006 43.435 50.150000000000006 36.72Q50.150000000000006 30.259999999999998 47.3875 26.264999999999997Q44.625 22.269999999999996 36.975 22.269999999999996Q28.73 22.269999999999996 24.650000000000002 22.779999999999994V51.084999999999994Z" transform="translate(158.60000000000002, 0)"/>
      <path d="M64.60000000000001 44.795 69.02000000000001 6.289999999999992H89.76L78.37 68.0H52.275000000000006L46.495000000000005 33.574999999999996L39.78 68.0H14.790000000000001L3.4000000000000004 6.289999999999992H24.14L28.475 44.285L35.275000000000006 6.289999999999992H57.970000000000006Z" transform="translate(230.50500000000002, 0)"/>
      <path d="M57.035000000000004 68.0Q55.42 63.155 52.7 55.845H25.585L21.335 68.0H0.0L23.8 6.289999999999992H55.080000000000005L79.05000000000001 68.0ZM47.855000000000004 42.584999999999994Q44.625 33.66 41.225 24.735L39.185 19.209999999999994Q36.21 26.945 30.430000000000003 42.584999999999994Z" transform="translate(309.665, 0)"/>
      <path d="M79.05000000000001 6.289999999999992 77.435 8.754999999999995Q68.34 22.864999999999995 61.837500000000006 33.7025Q55.335 44.54 51.00000000000001 53.635V68.0H28.815V52.19Q25.67 45.815 21.42 39.0575Q17.17 32.3 9.350000000000001 20.485Q3.2300000000000004 11.474999999999994 0.0 6.289999999999992H23.8Q26.35 11.474999999999994 32.13 21.674999999999997Q37.910000000000004 32.044999999999995 40.035000000000004 36.295Q43.010000000000005 30.089999999999996 48.025000000000006 21.08Q53.89 10.54 55.93000000000001 6.289999999999992Z" transform="translate(373.82000000000005, 0)"/>
    </g>
    <g fill="#7C3AED" transform="translate(2, 2)">
      <path d="M82.875 6.289999999999992 89.50500000000001 68.0H67.49000000000001L66.13000000000001 23.97L57.63 68.0H35.36L26.69 24.309999999999995L25.415000000000003 68.0H3.4000000000000004L10.030000000000001 6.289999999999992H38.93L46.325 46.495L52.785000000000004 6.289999999999992Z" transform="translate(0, 0)"/>
      <path d="M23.46 52.445Q55.760000000000005 52.275 70.295 51.51Q69.7 54.995 69.5725 58.692499999999995Q69.44500000000001 62.39 69.44500000000001 68.0H3.4000000000000004Q4.08 51.51 4.08 37.144999999999996Q4.08 22.779999999999994 3.4000000000000004 6.289999999999992H69.44500000000001V21.674999999999997H23.46V29.834999999999994Q27.540000000000003 29.919999999999995 35.53 29.919999999999995Q49.045 29.919999999999995 63.495000000000005 29.409999999999997V44.03Q49.045 43.519999999999996 35.53 43.519999999999996Q27.540000000000003 43.519999999999996 23.46 43.605Z" transform="translate(88.905, 0)"/>
      <path d="M72.50500000000001 36.72Q72.50500000000001 46.155 68.25500000000001 53.21Q64.00500000000001 60.265 55.50500000000001 64.1325Q47.005 68.0 34.595000000000006 68.0Q27.03 68.0 19.21 68.0Q11.39 68.0 3.4000000000000004 67.915Q4.08 51.17 4.08 36.72Q4.08 22.099999999999994 3.4000000000000004 6.204999999999998Q13.515 5.354999999999997 30.6 5.354999999999997Q46.580000000000005 5.354999999999997 55.845 9.222499999999997Q65.11 13.089999999999996 68.8075 19.932499999999997Q72.50500000000001 26.775 72.50500000000001 36.72ZM36.975 51.084999999999994Q44.88 51.084999999999994 47.515 47.26Q50.150000000000006 43.435 50.150000000000006 36.72Q50.150000000000006 30.259999999999998 47.3875 26.264999999999997Q44.625 22.269999999999996 36.975 22.269999999999996Q28.73 22.269999999999996 24.650000000000002 22.779999999999994V51.084999999999994Z" transform="translate(158.60000000000002, 0)"/>
      <path d="M64.60000000000001 44.795 69.02000000000001 6.289999999999992H89.76L78.37 68.0H52.275000000000006L46.495000000000005 33.574999999999996L39.78 68.0H14.790000000000001L3.4000000000000004 6.289999999999992H24.14L28.475 44.285L35.275000000000006 6.289999999999992H57.970000000000006Z" transform="translate(230.50500000000002, 0)"/>
      <path d="M57.035000000000004 68.0Q55.42 63.155 52.7 55.845H25.585L21.335 68.0H0.0L23.8 6.289999999999992H55.080000000000005L79.05000000000001 68.0ZM47.855000000000004 42.584999999999994Q44.625 33.66 41.225 24.735L39.185 19.209999999999994Q36.21 26.945 30.430000000000003 42.584999999999994Z" transform="translate(309.665, 0)"/>
      <path d="M79.05000000000001 6.289999999999992 77.435 8.754999999999995Q68.34 22.864999999999995 61.837500000000006 33.7025Q55.335 44.54 51.00000000000001 53.635V68.0H28.815V52.19Q25.67 45.815 21.42 39.0575Q17.17 32.3 9.350000000000001 20.485Q3.2300000000000004 11.474999999999994 0.0 6.289999999999992H23.8Q26.35 11.474999999999994 32.13 21.674999999999997Q37.910000000000004 32.044999999999995 40.035000000000004 36.295Q43.010000000000005 30.089999999999996 48.025000000000006 21.08Q53.89 10.54 55.93000000000001 6.289999999999992Z" transform="translate(373.82000000000005, 0)"/>
    </g>
    
    <!-- White outer border -->
    <g fill="none" stroke="#FFFFFF" stroke-width="16" stroke-linejoin="round">
      <path d="M82.875 6.289999999999992 89.50500000000001 68.0H67.49000000000001L66.13000000000001 23.97L57.63 68.0H35.36L26.69 24.309999999999995L25.415000000000003 68.0H3.4000000000000004L10.030000000000001 6.289999999999992H38.93L46.325 46.495L52.785000000000004 6.289999999999992Z" transform="translate(0, 0)"/>
      <path d="M23.46 52.445Q55.760000000000005 52.275 70.295 51.51Q69.7 54.995 69.5725 58.692499999999995Q69.44500000000001 62.39 69.44500000000001 68.0H3.4000000000000004Q4.08 51.51 4.08 37.144999999999996Q4.08 22.779999999999994 3.4000000000000004 6.289999999999992H69.44500000000001V21.674999999999997H23.46V29.834999999999994Q27.540000000000003 29.919999999999995 35.53 29.919999999999995Q49.045 29.919999999999995 63.495000000000005 29.409999999999997V44.03Q49.045 43.519999999999996 35.53 43.519999999999996Q27.540000000000003 43.519999999999996 23.46 43.605Z" transform="translate(88.905, 0)"/>
      <path d="M72.50500000000001 36.72Q72.50500000000001 46.155 68.25500000000001 53.21Q64.00500000000001 60.265 55.50500000000001 64.1325Q47.005 68.0 34.595000000000006 68.0Q27.03 68.0 19.21 68.0Q11.39 68.0 3.4000000000000004 67.915Q4.08 51.17 4.08 36.72Q4.08 22.099999999999994 3.4000000000000004 6.204999999999998Q13.515 5.354999999999997 30.6 5.354999999999997Q46.580000000000005 5.354999999999997 55.845 9.222499999999997Q65.11 13.089999999999996 68.8075 19.932499999999997Q72.50500000000001 26.775 72.50500000000001 36.72ZM36.975 51.084999999999994Q44.88 51.084999999999994 47.515 47.26Q50.150000000000006 43.435 50.150000000000006 36.72Q50.150000000000006 30.259999999999998 47.3875 26.264999999999997Q44.625 22.269999999999996 36.975 22.269999999999996Q28.73 22.269999999999996 24.650000000000002 22.779999999999994V51.084999999999994Z" transform="translate(158.60000000000002, 0)"/>
      <path d="M64.60000000000001 44.795 69.02000000000001 6.289999999999992H89.76L78.37 68.0H52.275000000000006L46.495000000000005 33.574999999999996L39.78 68.0H14.790000000000001L3.4000000000000004 6.289999999999992H24.14L28.475 44.285L35.275000000000006 6.289999999999992H57.970000000000006Z" transform="translate(230.50500000000002, 0)"/>
      <path d="M57.035000000000004 68.0Q55.42 63.155 52.7 55.845H25.585L21.335 68.0H0.0L23.8 6.289999999999992H55.080000000000005L79.05000000000001 68.0ZM47.855000000000004 42.584999999999994Q44.625 33.66 41.225 24.735L39.185 19.209999999999994Q36.21 26.945 30.430000000000003 42.584999999999994Z" transform="translate(309.665, 0)"/>
      <path d="M79.05000000000001 6.289999999999992 77.435 8.754999999999995Q68.34 22.864999999999995 61.837500000000006 33.7025Q55.335 44.54 51.00000000000001 53.635V68.0H28.815V52.19Q25.67 45.815 21.42 39.0575Q17.17 32.3 9.350000000000001 20.485Q3.2300000000000004 11.474999999999994 0.0 6.289999999999992H23.8Q26.35 11.474999999999994 32.13 21.674999999999997Q37.910000000000004 32.044999999999995 40.035000000000004 36.295Q43.010000000000005 30.089999999999996 48.025000000000006 21.08Q53.89 10.54 55.93000000000001 6.289999999999992Z" transform="translate(373.82000000000005, 0)"/>
    </g>
    
    <!-- Dark purple border -->
    <g fill="none" stroke="#4C1D95" stroke-width="10" stroke-linejoin="round">
      <path d="M82.875 6.289999999999992 89.50500000000001 68.0H67.49000000000001L66.13000000000001 23.97L57.63 68.0H35.36L26.69 24.309999999999995L25.415000000000003 68.0H3.4000000000000004L10.030000000000001 6.289999999999992H38.93L46.325 46.495L52.785000000000004 6.289999999999992Z" transform="translate(0, 0)"/>
      <path d="M23.46 52.445Q55.760000000000005 52.275 70.295 51.51Q69.7 54.995 69.5725 58.692499999999995Q69.44500000000001 62.39 69.44500000000001 68.0H3.4000000000000004Q4.08 51.51 4.08 37.144999999999996Q4.08 22.779999999999994 3.4000000000000004 6.289999999999992H69.44500000000001V21.674999999999997H23.46V29.834999999999994Q27.540000000000003 29.919999999999995 35.53 29.919999999999995Q49.045 29.919999999999995 63.495000000000005 29.409999999999997V44.03Q49.045 43.519999999999996 35.53 43.519999999999996Q27.540000000000003 43.519999999999996 23.46 43.605Z" transform="translate(88.905, 0)"/>
      <path d="M72.50500000000001 36.72Q72.50500000000001 46.155 68.25500000000001 53.21Q64.00500000000001 60.265 55.50500000000001 64.1325Q47.005 68.0 34.595000000000006 68.0Q27.03 68.0 19.21 68.0Q11.39 68.0 3.4000000000000004 67.915Q4.08 51.17 4.08 36.72Q4.08 22.099999999999994 3.4000000000000004 6.204999999999998Q13.515 5.354999999999997 30.6 5.354999999999997Q46.580000000000005 5.354999999999997 55.845 9.222499999999997Q65.11 13.089999999999996 68.8075 19.932499999999997Q72.50500000000001 26.775 72.50500000000001 36.72ZM36.975 51.084999999999994Q44.88 51.084999999999994 47.515 47.26Q50.150000000000006 43.435 50.150000000000006 36.72Q50.150000000000006 30.259999999999998 47.3875 26.264999999999997Q44.625 22.269999999999996 36.975 22.269999999999996Q28.73 22.269999999999996 24.650000000000002 22.779999999999994V51.084999999999994Z" transform="translate(158.60000000000002, 0)"/>
      <path d="M64.60000000000001 44.795 69.02000000000001 6.289999999999992H89.76L78.37 68.0H52.275000000000006L46.495000000000005 33.574999999999996L39.78 68.0H14.790000000000001L3.4000000000000004 6.289999999999992H24.14L28.475 44.285L35.275000000000006 6.289999999999992H57.970000000000006Z" transform="translate(230.50500000000002, 0)"/>
      <path d="M57.035000000000004 68.0Q55.42 63.155 52.7 55.845H25.585L21.335 68.0H0.0L23.8 6.289999999999992H55.080000000000005L79.05000000000001 68.0ZM47.855000000000004 42.584999999999994Q44.625 33.66 41.225 24.735L39.185 19.209999999999994Q36.21 26.945 30.430000000000003 42.584999999999994Z" transform="translate(309.665, 0)"/>
      <path d="M79.05000000000001 6.289999999999992 77.435 8.754999999999995Q68.34 22.864999999999995 61.837500000000006 33.7025Q55.335 44.54 51.00000000000001 53.635V68.0H28.815V52.19Q25.67 45.815 21.42 39.0575Q17.17 32.3 9.350000000000001 20.485Q3.2300000000000004 11.474999999999994 0.0 6.289999999999992H23.8Q26.35 11.474999999999994 32.13 21.674999999999997Q37.910000000000004 32.044999999999995 40.035000000000004 36.295Q43.010000000000005 30.089999999999996 48.025000000000006 21.08Q53.89 10.54 55.93000000000001 6.289999999999992Z" transform="translate(373.82000000000005, 0)"/>
    </g>
    
    <!-- Inner white border at 70% opacity -->
    <g fill="none" stroke="#FFFFFF" stroke-width="2" stroke-linejoin="round" opacity="0.7">
      <path d="M82.875 6.289999999999992 89.50500000000001 68.0H67.49000000000001L66.13000000000001 23.97L57.63 68.0H35.36L26.69 24.309999999999995L25.415000000000003 68.0H3.4000000000000004L10.030000000000001 6.289999999999992H38.93L46.325 46.495L52.785000000000004 6.289999999999992Z" transform="translate(0, 0)"/>
      <path d="M23.46 52.445Q55.760000000000005 52.275 70.295 51.51Q69.7 54.995 69.5725 58.692499999999995Q69.44500000000001 62.39 69.44500000000001 68.0H3.4000000000000004Q4.08 51.51 4.08 37.144999999999996Q4.08 22.779999999999994 3.4000000000000004 6.289999999999992H69.44500000000001V21.674999999999997H23.46V29.834999999999994Q27.540000000000003 29.919999999999995 35.53 29.919999999999995Q49.045 29.919999999999995 63.495000000000005 29.409999999999997V44.03Q49.045 43.519999999999996 35.53 43.519999999999996Q27.540000000000003 43.519999999999996 23.46 43.605Z" transform="translate(88.905, 0)"/>
      <path d="M72.50500000000001 36.72Q72.50500000000001 46.155 68.25500000000001 53.21Q64.00500000000001 60.265 55.50500000000001 64.1325Q47.005 68.0 34.595000000000006 68.0Q27.03 68.0 19.21 68.0Q11.39 68.0 3.4000000000000004 67.915Q4.08 51.17 4.08 36.72Q4.08 22.099999999999994 3.4000000000000004 6.204999999999998Q13.515 5.354999999999997 30.6 5.354999999999997Q46.580000000000005 5.354999999999997 55.845 9.222499999999997Q65.11 13.089999999999996 68.8075 19.932499999999997Q72.50500000000001 26.775 72.50500000000001 36.72ZM36.975 51.084999999999994Q44.88 51.084999999999994 47.515 47.26Q50.150000000000006 43.435 50.150000000000006 36.72Q50.150000000000006 30.259999999999998 47.3875 26.264999999999997Q44.625 22.269999999999996 36.975 22.269999999999996Q28.73 22.269999999999996 24.650000000000002 22.779999999999994V51.084999999999994Z" transform="translate(158.60000000000002, 0)"/>
      <path d="M64.60000000000001 44.795 69.02000000000001 6.289999999999992H89.76L78.37 68.0H52.275000000000006L46.495000000000005 33.574999999999996L39.78 68.0H14.790000000000001L3.4000000000000004 6.289999999999992H24.14L28.475 44.285L35.275000000000006 6.289999999999992H57.970000000000006Z" transform="translate(230.50500000000002, 0)"/>
      <path d="M57.035000000000004 68.0Q55.42 63.155 52.7 55.845H25.585L21.335 68.0H0.0L23.8 6.289999999999992H55.080000000000005L79.05000000000001 68.0ZM47.855000000000004 42.584999999999994Q44.625 33.66 41.225 24.735L39.185 19.209999999999994Q36.21 26.945 30.430000000000003 42.584999999999994Z" transform="translate(309.665, 0)"/>
      <path d="M79.05000000000001 6.289999999999992 77.435 8.754999999999995Q68.34 22.864999999999995 61.837500000000006 33.7025Q55.335 44.54 51.00000000000001 53.635V68.0H28.815V52.19Q25.67 45.815 21.42 39.0575Q17.17 32.3 9.350000000000001 20.485Q3.2300000000000004 11.474999999999994 0.0 6.289999999999992H23.8Q26.35 11.474999999999994 32.13 21.674999999999997Q37.910000000000004 32.044999999999995 40.035000000000004 36.295Q43.010000000000005 30.089999999999996 48.025000000000006 21.08Q53.89 10.54 55.93000000000001 6.289999999999992Z" transform="translate(373.82000000000005, 0)"/>
    </g>
    
    <!-- Main blue gradient fill -->
    <g fill="url(#blueGradient)">
      <path d="M82.875 6.289999999999992 89.50500000000001 68.0H67.49000000000001L66.13000000000001 23.97L57.63 68.0H35.36L26.69 24.309999999999995L25.415000000000003 68.0H3.4000000000000004L10.030000000000001 6.289999999999992H38.93L46.325 46.495L52.785000000000004 6.289999999999992Z" transform="translate(0, 0)"/>
      <path d="M23.46 52.445Q55.760000000000005 52.275 70.295 51.51Q69.7 54.995 69.5725 58.692499999999995Q69.44500000000001 62.39 69.44500000000001 68.0H3.4000000000000004Q4.08 51.51 4.08 37.144999999999996Q4.08 22.779999999999994 3.4000000000000004 6.289999999999992H69.44500000000001V21.674999999999997H23.46V29.834999999999994Q27.540000000000003 29.919999999999995 35.53 29.919999999999995Q49.045 29.919999999999995 63.495000000000005 29.409999999999997V44.03Q49.045 43.519999999999996 35.53 43.519999999999996Q27.540000000000003 43.519999999999996 23.46 43.605Z" transform="translate(88.905, 0)"/>
      <path d="M72.50500000000001 36.72Q72.50500000000001 46.155 68.25500000000001 53.21Q64.00500000000001 60.265 55.50500000000001 64.1325Q47.005 68.0 34.595000000000006 68.0Q27.03 68.0 19.21 68.0Q11.39 68.0 3.4000000000000004 67.915Q4.08 51.17 4.08 36.72Q4.08 22.099999999999994 3.4000000000000004 6.204999999999998Q13.515 5.354999999999997 30.6 5.354999999999997Q46.580000000000005 5.354999999999997 55.845 9.222499999999997Q65.11 13.089999999999996 68.8075 19.932499999999997Q72.50500000000001 26.775 72.50500000000001 36.72ZM36.975 51.084999999999994Q44.88 51.084999999999994 47.515 47.26Q50.150000000000006 43.435 50.150000000000006 36.72Q50.150000000000006 30.259999999999998 47.3875 26.264999999999997Q44.625 22.269999999999996 36.975 22.269999999999996Q28.73 22.269999999999996 24.650000000000002 22.779999999999994V51.084999999999994Z" transform="translate(158.60000000000002, 0)"/>
      <path d="M64.60000000000001 44.795 69.02000000000001 6.289999999999992H89.76L78.37 68.0H52.275000000000006L46.495000000000005 33.574999999999996L39.78 68.0H14.790000000000001L3.4000000000000004 6.289999999999992H24.14L28.475 44.285L35.275000000000006 6.289999999999992H57.970000000000006Z" transform="translate(230.50500000000002, 0)"/>
      <path d="M57.035000000000004 68.0Q55.42 63.155 52.7 55.845H25.585L21.335 68.0H0.0L23.8 6.289999999999992H55.080000000000005L79.05000000000001 68.0ZM47.855000000000004 42.584999999999994Q44.625 33.66 41.225 24.735L39.185 19.209999999999994Q36.21 26.945 30.430000000000003 42.584999999999994Z" transform="translate(309.665, 0)"/>
      <path d="M79.05000000000001 6.289999999999992 77.435 8.754999999999995Q68.34 22.864999999999995 61.837500000000006 33.7025Q55.335 44.54 51.00000000000001 53.635V68.0H28.815V52.19Q25.67 45.815 21.42 39.0575Q17.17 32.3 9.350000000000001 20.485Q3.2300000000000004 11.474999999999994 0.0 6.289999999999992H23.8Q26.35 11.474999999999994 32.13 21.674999999999997Q37.910000000000004 32.044999999999995 40.035000000000004 36.295Q43.010000000000005 30.089999999999996 48.025000000000006 21.08Q53.89 10.54 55.93000000000001 6.289999999999992Z" transform="translate(373.82000000000005, 0)"/>
    </g>
    
    <!-- Highlight overlay -->
    <g fill="url(#blueHighlight)">
      <path d="M82.875 6.289999999999992 89.50500000000001 68.0H67.49000000000001L66.13000000000001 23.97L57.63 68.0H35.36L26.69 24.309999999999995L25.415000000000003 68.0H3.4000000000000004L10.030000000000001 6.289999999999992H38.93L46.325 46.495L52.785000000000004 6.289999999999992Z" transform="translate(0, 0)"/>
      <path d="M23.46 52.445Q55.760000000000005 52.275 70.295 51.51Q69.7 54.995 69.5725 58.692499999999995Q69.44500000000001 62.39 69.44500000000001 68.0H3.4000000000000004Q4.08 51.51 4.08 37.144999999999996Q4.08 22.779999999999994 3.4000000000000004 6.289999999999992H69.44500000000001V21.674999999999997H23.46V29.834999999999994Q27.540000000000003 29.919999999999995 35.53 29.919999999999995Q49.045 29.919999999999995 63.495000000000005 29.409999999999997V44.03Q49.045 43.519999999999996 35.53 43.519999999999996Q27.540000000000003 43.519999999999996 23.46 43.605Z" transform="translate(88.905, 0)"/>
      <path d="M72.50500000000001 36.72Q72.50500000000001 46.155 68.25500000000001 53.21Q64.00500000000001 60.265 55.50500000000001 64.1325Q47.005 68.0 34.595000000000006 68.0Q27.03 68.0 19.21 68.0Q11.39 68.0 3.4000000000000004 67.915Q4.08 51.17 4.08 36.72Q4.08 22.099999999999994 3.4000000000000004 6.204999999999998Q13.515 5.354999999999997 30.6 5.354999999999997Q46.580000000000005 5.354999999999997 55.845 9.222499999999997Q65.11 13.089999999999996 68.8075 19.932499999999997Q72.50500000000001 26.775 72.50500000000001 36.72ZM36.975 51.084999999999994Q44.88 51.084999999999994 47.515 47.26Q50.150000000000006 43.435 50.150000000000006 36.72Q50.150000000000006 30.259999999999998 47.3875 26.264999999999997Q44.625 22.269999999999996 36.975 22.269999999999996Q28.73 22.269999999999996 24.650000000000002 22.779999999999994V51.084999999999994Z" transform="translate(158.60000000000002, 0)"/>
      <path d="M64.60000000000001 44.795 69.02000000000001 6.289999999999992H89.76L78.37 68.0H52.275000000000006L46.495000000000005 33.574999999999996L39.78 68.0H14.790000000000001L3.4000000000000004 6.289999999999992H24.14L28.475 44.285L35.275000000000006 6.289999999999992H57.970000000000006Z" transform="translate(230.50500000000002, 0)"/>
      <path d="M57.035000000000004 68.0Q55.42 63.155 52.7 55.845H25.585L21.335 68.0H0.0L23.8 6.289999999999992H55.080000000000005L79.05000000000001 68.0ZM47.855000000000004 42.584999999999994Q44.625 33.66 41.225 24.735L39.185 19.209999999999994Q36.21 26.945 30.430000000000003 42.584999999999994Z" transform="translate(309.665, 0)"/>
      <path d="M79.05000000000001 6.289999999999992 77.435 8.754999999999995Q68.34 22.864999999999995 61.837500000000006 33.7025Q55.335 44.54 51.00000000000001 53.635V68.0H28.815V52.19Q25.67 45.815 21.42 39.0575Q17.17 32.3 9.350000000000001 20.485Q3.2300000000000004 11.474999999999994 0.0 6.289999999999992H23.8Q26.35 11.474999999999994 32.13 21.674999999999997Q37.910000000000004 32.044999999999995 40.035000000000004 36.295Q43.010000000000005 30.089999999999996 48.025000000000006 21.08Q53.89 10.54 55.93000000000001 6.289999999999992Z" transform="translate(373.82000000000005, 0)"/>
    </g>
  </g>

  <!-- MASCOTS Text -->
  <g transform="translate(73.01249999999999, 100.75) scale(0.8274476209570852, 0.8274476209570852)">
    <!-- 3D Extrusion layers -->
    <g fill="#854D0E" transform="translate(5, 5)">
      <path d="M82.875 6.289999999999992 89.50500000000001 68.0H67.49000000000001L66.13000000000001 23.97L57.63 68.0H35.36L26.69 24.309999999999995L25.415000000000003 68.0H3.4000000000000004L10.030000000000001 6.289999999999992H38.93L46.325 46.495L52.785000000000004 6.289999999999992Z" transform="translate(0, 0)"/>
      <path d="M57.035000000000004 68.0Q55.42 63.155 52.7 55.845H25.585L21.335 68.0H0.0L23.8 6.289999999999992H55.080000000000005L79.05000000000001 68.0ZM47.855000000000004 42.584999999999994Q44.625 33.66 41.225 24.735L39.185 19.209999999999994Q36.21 26.945 30.430000000000003 42.584999999999994Z" transform="translate(88.905, 0)"/>
      <path d="M11.9 43.94499999999999Q17.935000000000002 47.43 25.925 49.385000000000005Q33.915 51.34 40.800000000000004 51.34Q47.855000000000004 51.34 50.745000000000005 50.1075Q53.635000000000005 48.875 53.635000000000005 47.43Q53.635000000000005 42.245 37.825 42.245Q20.485000000000003 42.245 12.665000000000003 38.63249999999999Q4.845000000000001 35.019999999999996 4.845000000000001 26.945Q4.845000000000001 15.469999999999999 14.365000000000002 10.029999999999998Q23.885 4.589999999999996 39.1 4.589999999999996Q47.940000000000005 4.589999999999996 57.2475 6.842499999999998Q66.555 9.094999999999999 74.03500000000001 13.004999999999995Q71.57000000000001 18.614999999999995 68.85000000000001 26.689999999999998Q68.34 28.39 68.0 29.239999999999995Q63.665000000000006 25.754999999999995 54.910000000000004 23.417499999999997Q46.155 21.08 39.440000000000005 21.08Q31.365000000000002 21.08 28.560000000000002 22.1425Q25.755000000000003 23.205 25.755000000000003 25.244999999999997Q25.755000000000003 27.284999999999997 29.622500000000002 28.5175Q33.49 29.75 40.800000000000004 29.75Q58.82000000000001 29.75 66.98 33.8725Q75.14 37.995 75.14 46.495Q75.14 58.394999999999996 66.47 63.622499999999995Q57.800000000000004 68.85 40.205000000000005 68.85Q30.770000000000003 68.85 20.995 66.7675Q11.22 64.685 3.4000000000000004 60.69Q6.29 56.355 8.2025 52.614999999999995Q10.115 48.875 11.9 43.94499999999999Z" transform="translate(165.06, 0)"/>
      <path d="M3.4000000000000004 37.4Q3.4000000000000004 22.184999999999995 12.495000000000001 13.344999999999995Q21.59 4.5049999999999955 40.800000000000004 4.5049999999999955Q67.66000000000001 4.5049999999999955 76.75500000000001 22.949999999999996Q69.105 25.584999999999994 58.82000000000001 30.854999999999997Q56.355000000000004 26.095 51.042500000000004 23.799999999999997Q45.730000000000004 21.504999999999995 40.205000000000005 21.504999999999995Q32.045 21.504999999999995 28.050000000000004 25.797499999999996Q24.055000000000003 30.089999999999996 24.055000000000003 36.379999999999995Q24.055000000000003 43.18 28.347500000000004 47.4725Q32.64 51.765 41.480000000000004 51.765Q48.535000000000004 51.765 52.7 49.4275Q56.865 47.09 58.82000000000001 41.989999999999995Q65.79 45.73 76.67 50.405Q72.42 60.69 62.475 64.77Q52.53 68.85 40.800000000000004 68.85Q21.59 68.85 12.495000000000001 60.69Q3.4000000000000004 52.53 3.4000000000000004 37.4Z" transform="translate(239.60000000000002, 0)"/>
      <path d="M3.4000000000000004 36.635Q3.4000000000000004 21.504999999999995 12.537500000000001 13.004999999999995Q21.675 4.5049999999999955 41.225 4.5049999999999955Q60.86000000000001 4.5049999999999955 69.9975 13.004999999999995Q79.135 21.504999999999995 79.135 36.635Q79.135 52.019999999999996 70.04 60.434999999999995Q60.94500000000001 68.85 41.225 68.85Q21.76 68.85 12.580000000000002 60.3925Q3.4000000000000004 51.935 3.4000000000000004 36.635ZM58.99 36.635Q58.99 29.154999999999994 54.825 25.499999999999996Q50.660000000000004 21.845 41.225 21.845Q31.875000000000004 21.845 27.71 25.499999999999996Q23.545 29.154999999999994 23.545 36.635Q23.545 44.2 27.71 47.855000000000004Q31.875000000000004 51.51 41.225 51.51Q50.660000000000004 51.51 54.825 47.897499999999994Q58.99 44.285 58.99 36.635Z" transform="translate(315.755, 0)"/>
      <path d="M76.415 24.139999999999993Q63.07000000000001 23.714999999999996 50.49 23.629999999999995V68.0H29.240000000000002V23.629999999999995Q16.575000000000003 23.714999999999996 3.4000000000000004 24.139999999999993V6.289999999999992H76.415Z" transform="translate(394.29, 0)"/>
      <path d="M11.9 43.94499999999999Q17.935000000000002 47.43 25.925 49.385000000000005Q33.915 51.34 40.800000000000004 51.34Q47.855000000000004 51.34 50.745000000000005 50.1075Q53.635000000000005 48.875 53.635000000000005 47.43Q53.635000000000005 42.245 37.825 42.245Q20.485000000000003 42.245 12.665000000000003 38.63249999999999Q4.845000000000001 35.019999999999996 4.845000000000001 26.945Q4.845000000000001 15.469999999999999 14.365000000000002 10.029999999999998Q23.885 4.589999999999996 39.1 4.589999999999996Q47.940000000000005 4.589999999999996 57.2475 6.842499999999998Q66.555 9.094999999999999 74.03500000000001 13.004999999999995Q71.57000000000001 18.614999999999995 68.85000000000001 26.689999999999998Q68.34 28.39 68.0 29.239999999999995Q63.665000000000006 25.754999999999995 54.910000000000004 23.417499999999997Q46.155 21.08 39.440000000000005 21.08Q31.365000000000002 21.08 28.560000000000002 22.1425Q25.755000000000003 23.205 25.755000000000003 25.244999999999997Q25.755000000000003 27.284999999999997 29.622500000000002 28.5175Q33.49 29.75 40.800000000000004 29.75Q58.82000000000001 29.75 66.98 33.8725Q75.14 37.995 75.14 46.495Q75.14 58.394999999999996 66.47 63.622499999999995Q57.800000000000004 68.85 40.205000000000005 68.85Q30.770000000000003 68.85 20.995 66.7675Q11.22 64.685 3.4000000000000004 60.69Q6.29 56.355 8.2025 52.614999999999995Q10.115 48.875 11.9 43.94499999999999Z" transform="translate(470.105, 0)"/>
    </g>
    <g fill="#A16207" transform="translate(4, 4)">
      <path d="M82.875 6.289999999999992 89.50500000000001 68.0H67.49000000000001L66.13000000000001 23.97L57.63 68.0H35.36L26.69 24.309999999999995L25.415000000000003 68.0H3.4000000000000004L10.030000000000001 6.289999999999992H38.93L46.325 46.495L52.785000000000004 6.289999999999992Z" transform="translate(0, 0)"/>
      <path d="M57.035000000000004 68.0Q55.42 63.155 52.7 55.845H25.585L21.335 68.0H0.0L23.8 6.289999999999992H55.080000000000005L79.05000000000001 68.0ZM47.855000000000004 42.584999999999994Q44.625 33.66 41.225 24.735L39.185 19.209999999999994Q36.21 26.945 30.430000000000003 42.584999999999994Z" transform="translate(88.905, 0)"/>
      <path d="M11.9 43.94499999999999Q17.935000000000002 47.43 25.925 49.385000000000005Q33.915 51.34 40.800000000000004 51.34Q47.855000000000004 51.34 50.745000000000005 50.1075Q53.635000000000005 48.875 53.635000000000005 47.43Q53.635000000000005 42.245 37.825 42.245Q20.485000000000003 42.245 12.665000000000003 38.63249999999999Q4.845000000000001 35.019999999999996 4.845000000000001 26.945Q4.845000000000001 15.469999999999999 14.365000000000002 10.029999999999998Q23.885 4.589999999999996 39.1 4.589999999999996Q47.940000000000005 4.589999999999996 57.2475 6.842499999999998Q66.555 9.094999999999999 74.03500000000001 13.004999999999995Q71.57000000000001 18.614999999999995 68.85000000000001 26.689999999999998Q68.34 28.39 68.0 29.239999999999995Q63.665000000000006 25.754999999999995 54.910000000000004 23.417499999999997Q46.155 21.08 39.440000000000005 21.08Q31.365000000000002 21.08 28.560000000000002 22.1425Q25.755000000000003 23.205 25.755000000000003 25.244999999999997Q25.755000000000003 27.284999999999997 29.622500000000002 28.5175Q33.49 29.75 40.800000000000004 29.75Q58.82000000000001 29.75 66.98 33.8725Q75.14 37.995 75.14 46.495Q75.14 58.394999999999996 66.47 63.622499999999995Q57.800000000000004 68.85 40.205000000000005 68.85Q30.770000000000003 68.85 20.995 66.7675Q11.22 64.685 3.4000000000000004 60.69Q6.29 56.355 8.2025 52.614999999999995Q10.115 48.875 11.9 43.94499999999999Z" transform="translate(165.06, 0)"/>
      <path d="M3.4000000000000004 37.4Q3.4000000000000004 22.184999999999995 12.495000000000001 13.344999999999995Q21.59 4.5049999999999955 40.800000000000004 4.5049999999999955Q67.66000000000001 4.5049999999999955 76.75500000000001 22.949999999999996Q69.105 25.584999999999994 58.82000000000001 30.854999999999997Q56.355000000000004 26.095 51.042500000000004 23.799999999999997Q45.730000000000004 21.504999999999995 40.205000000000005 21.504999999999995Q32.045 21.504999999999995 28.050000000000004 25.797499999999996Q24.055000000000003 30.089999999999996 24.055000000000003 36.379999999999995Q24.055000000000003 43.18 28.347500000000004 47.4725Q32.64 51.765 41.480000000000004 51.765Q48.535000000000004 51.765 52.7 49.4275Q56.865 47.09 58.82000000000001 41.989999999999995Q65.79 45.73 76.67 50.405Q72.42 60.69 62.475 64.77Q52.53 68.85 40.800000000000004 68.85Q21.59 68.85 12.495000000000001 60.69Q3.4000000000000004 52.53 3.4000000000000004 37.4Z" transform="translate(239.60000000000002, 0)"/>
      <path d="M3.4000000000000004 36.635Q3.4000000000000004 21.504999999999995 12.537500000000001 13.004999999999995Q21.675 4.5049999999999955 41.225 4.5049999999999955Q60.86000000000001 4.5049999999999955 69.9975 13.004999999999995Q79.135 21.504999999999995 79.135 36.635Q79.135 52.019999999999996 70.04 60.434999999999995Q60.94500000000001 68.85 41.225 68.85Q21.76 68.85 12.580000000000002 60.3925Q3.4000000000000004 51.935 3.4000000000000004 36.635ZM58.99 36.635Q58.99 29.154999999999994 54.825 25.499999999999996Q50.660000000000004 21.845 41.225 21.845Q31.875000000000004 21.845 27.71 25.499999999999996Q23.545 29.154999999999994 23.545 36.635Q23.545 44.2 27.71 47.855000000000004Q31.875000000000004 51.51 41.225 51.51Q50.660000000000004 51.51 54.825 47.897499999999994Q58.99 44.285 58.99 36.635Z" transform="translate(315.755, 0)"/>
      <path d="M76.415 24.139999999999993Q63.07000000000001 23.714999999999996 50.49 23.629999999999995V68.0H29.240000000000002V23.629999999999995Q16.575000000000003 23.714999999999996 3.4000000000000004 24.139999999999993V6.289999999999992H76.415Z" transform="translate(394.29, 0)"/>
      <path d="M11.9 43.94499999999999Q17.935000000000002 47.43 25.925 49.385000000000005Q33.915 51.34 40.800000000000004 51.34Q47.855000000000004 51.34 50.745000000000005 50.1075Q53.635000000000005 48.875 53.635000000000005 47.43Q53.635000000000005 42.245 37.825 42.245Q20.485000000000003 42.245 12.665000000000003 38.63249999999999Q4.845000000000001 35.019999999999996 4.845000000000001 26.945Q4.845000000000001 15.469999999999999 14.365000000000002 10.029999999999998Q23.885 4.589999999999996 39.1 4.589999999999996Q47.940000000000005 4.589999999999996 57.2475 6.842499999999998Q66.555 9.094999999999999 74.03500000000001 13.004999999999995Q71.57000000000001 18.614999999999995 68.85000000000001 26.689999999999998Q68.34 28.39 68.0 29.239999999999995Q63.665000000000006 25.754999999999995 54.910000000000004 23.417499999999997Q46.155 21.08 39.440000000000005 21.08Q31.365000000000002 21.08 28.560000000000002 22.1425Q25.755000000000003 23.205 25.755000000000003 25.244999999999997Q25.755000000000003 27.284999999999997 29.622500000000002 28.5175Q33.49 29.75 40.800000000000004 29.75Q58.82000000000001 29.75 66.98 33.8725Q75.14 37.995 75.14 46.495Q75.14 58.394999999999996 66.47 63.622499999999995Q57.800000000000004 68.85 40.205000000000005 68.85Q30.770000000000003 68.85 20.995 66.7675Q11.22 64.685 3.4000000000000004 60.69Q6.29 56.355 8.2025 52.614999999999995Q10.115 48.875 11.9 43.94499999999999Z" transform="translate(470.105, 0)"/>
    </g>
    <g fill="#CA8A04" transform="translate(3, 3)">
      <path d="M82.875 6.289999999999992 89.50500000000001 68.0H67.49000000000001L66.13000000000001 23.97L57.63 68.0H35.36L26.69 24.309999999999995L25.415000000000003 68.0H3.4000000000000004L10.030000000000001 6.289999999999992H38.93L46.325 46.495L52.785000000000004 6.289999999999992Z" transform="translate(0, 0)"/>
      <path d="M57.035000000000004 68.0Q55.42 63.155 52.7 55.845H25.585L21.335 68.0H0.0L23.8 6.289999999999992H55.080000000000005L79.05000000000001 68.0ZM47.855000000000004 42.584999999999994Q44.625 33.66 41.225 24.735L39.185 19.209999999999994Q36.21 26.945 30.430000000000003 42.584999999999994Z" transform="translate(88.905, 0)"/>
      <path d="M11.9 43.94499999999999Q17.935000000000002 47.43 25.925 49.385000000000005Q33.915 51.34 40.800000000000004 51.34Q47.855000000000004 51.34 50.745000000000005 50.1075Q53.635000000000005 48.875 53.635000000000005 47.43Q53.635000000000005 42.245 37.825 42.245Q20.485000000000003 42.245 12.665000000000003 38.63249999999999Q4.845000000000001 35.019999999999996 4.845000000000001 26.945Q4.845000000000001 15.469999999999999 14.365000000000002 10.029999999999998Q23.885 4.589999999999996 39.1 4.589999999999996Q47.940000000000005 4.589999999999996 57.2475 6.842499999999998Q66.555 9.094999999999999 74.03500000000001 13.004999999999995Q71.57000000000001 18.614999999999995 68.85000000000001 26.689999999999998Q68.34 28.39 68.0 29.239999999999995Q63.665000000000006 25.754999999999995 54.910000000000004 23.417499999999997Q46.155 21.08 39.440000000000005 21.08Q31.365000000000002 21.08 28.560000000000002 22.1425Q25.755000000000003 23.205 25.755000000000003 25.244999999999997Q25.755000000000003 27.284999999999997 29.622500000000002 28.5175Q33.49 29.75 40.800000000000004 29.75Q58.82000000000001 29.75 66.98 33.8725Q75.14 37.995 75.14 46.495Q75.14 58.394999999999996 66.47 63.622499999999995Q57.800000000000004 68.85 40.205000000000005 68.85Q30.770000000000003 68.85 20.995 66.7675Q11.22 64.685 3.4000000000000004 60.69Q6.29 56.355 8.2025 52.614999999999995Q10.115 48.875 11.9 43.94499999999999Z" transform="translate(165.06, 0)"/>
      <path d="M3.4000000000000004 37.4Q3.4000000000000004 22.184999999999995 12.495000000000001 13.344999999999995Q21.59 4.5049999999999955 40.800000000000004 4.5049999999999955Q67.66000000000001 4.5049999999999955 76.75500000000001 22.949999999999996Q69.105 25.584999999999994 58.82000000000001 30.854999999999997Q56.355000000000004 26.095 51.042500000000004 23.799999999999997Q45.730000000000004 21.504999999999995 40.205000000000005 21.504999999999995Q32.045 21.504999999999995 28.050000000000004 25.797499999999996Q24.055000000000003 30.089999999999996 24.055000000000003 36.379999999999995Q24.055000000000003 43.18 28.347500000000004 47.4725Q32.64 51.765 41.480000000000004 51.765Q48.535000000000004 51.765 52.7 49.4275Q56.865 47.09 58.82000000000001 41.989999999999995Q65.79 45.73 76.67 50.405Q72.42 60.69 62.475 64.77Q52.53 68.85 40.800000000000004 68.85Q21.59 68.85 12.495000000000001 60.69Q3.4000000000000004 52.53 3.4000000000000004 37.4Z" transform="translate(239.60000000000002, 0)"/>
      <path d="M3.4000000000000004 36.635Q3.4000000000000004 21.504999999999995 12.537500000000001 13.004999999999995Q21.675 4.5049999999999955 41.225 4.5049999999999955Q60.86000000000001 4.5049999999999955 69.9975 13.004999999999995Q79.135 21.504999999999995 79.135 36.635Q79.135 52.019999999999996 70.04 60.434999999999995Q60.94500000000001 68.85 41.225 68.85Q21.76 68.85 12.580000000000002 60.3925Q3.4000000000000004 51.935 3.4000000000000004 36.635ZM58.99 36.635Q58.99 29.154999999999994 54.825 25.499999999999996Q50.660000000000004 21.845 41.225 21.845Q31.875000000000004 21.845 27.71 25.499999999999996Q23.545 29.154999999999994 23.545 36.635Q23.545 44.2 27.71 47.855000000000004Q31.875000000000004 51.51 41.225 51.51Q50.660000000000004 51.51 54.825 47.897499999999994Q58.99 44.285 58.99 36.635Z" transform="translate(315.755, 0)"/>
      <path d="M76.415 24.139999999999993Q63.07000000000001 23.714999999999996 50.49 23.629999999999995V68.0H29.240000000000002V23.629999999999995Q16.575000000000003 23.714999999999996 3.4000000000000004 24.139999999999993V6.289999999999992H76.415Z" transform="translate(394.29, 0)"/>
      <path d="M11.9 43.94499999999999Q17.935000000000002 47.43 25.925 49.385000000000005Q33.915 51.34 40.800000000000004 51.34Q47.855000000000004 51.34 50.745000000000005 50.1075Q53.635000000000005 48.875 53.635000000000005 47.43Q53.635000000000005 42.245 37.825 42.245Q20.485000000000003 42.245 12.665000000000003 38.63249999999999Q4.845000000000001 35.019999999999996 4.845000000000001 26.945Q4.845000000000001 15.469999999999999 14.365000000000002 10.029999999999998Q23.885 4.589999999999996 39.1 4.589999999999996Q47.940000000000005 4.589999999999996 57.2475 6.842499999999998Q66.555 9.094999999999999 74.03500000000001 13.004999999999995Q71.57000000000001 18.614999999999995 68.85000000000001 26.689999999999998Q68.34 28.39 68.0 29.239999999999995Q63.665000000000006 25.754999999999995 54.910000000000004 23.417499999999997Q46.155 21.08 39.440000000000005 21.08Q31.365000000000002 21.08 28.560000000000002 22.1425Q25.755000000000003 23.205 25.755000000000003 25.244999999999997Q25.755000000000003 27.284999999999997 29.622500000000002 28.5175Q33.49 29.75 40.800000000000004 29.75Q58.82000000000001 29.75 66.98 33.8725Q75.14 37.995 75.14 46.495Q75.14 58.394999999999996 66.47 63.622499999999995Q57.800000000000004 68.85 40.205000000000005 68.85Q30.770000000000003 68.85 20.995 66.7675Q11.22 64.685 3.4000000000000004 60.69Q6.29 56.355 8.2025 52.614999999999995Q10.115 48.875 11.9 43.94499999999999Z" transform="translate(470.105, 0)"/>
    </g>
    <g fill="#D69E2E" transform="translate(2, 2)">
      <path d="M82.875 6.289999999999992 89.50500000000001 68.0H67.49000000000001L66.13000000000001 23.97L57.63 68.0H35.36L26.69 24.309999999999995L25.415000000000003 68.0H3.4000000000000004L10.030000000000001 6.289999999999992H38.93L46.325 46.495L52.785000000000004 6.289999999999992Z" transform="translate(0, 0)"/>
      <path d="M57.035000000000004 68.0Q55.42 63.155 52.7 55.845H25.585L21.335 68.0H0.0L23.8 6.289999999999992H55.080000000000005L79.05000000000001 68.0ZM47.855000000000004 42.584999999999994Q44.625 33.66 41.225 24.735L39.185 19.209999999999994Q36.21 26.945 30.430000000000003 42.584999999999994Z" transform="translate(88.905, 0)"/>
      <path d="M11.9 43.94499999999999Q17.935000000000002 47.43 25.925 49.385000000000005Q33.915 51.34 40.800000000000004 51.34Q47.855000000000004 51.34 50.745000000000005 50.1075Q53.635000000000005 48.875 53.635000000000005 47.43Q53.635000000000005 42.245 37.825 42.245Q20.485000000000003 42.245 12.665000000000003 38.63249999999999Q4.845000000000001 35.019999999999996 4.845000000000001 26.945Q4.845000000000001 15.469999999999999 14.365000000000002 10.029999999999998Q23.885 4.589999999999996 39.1 4.589999999999996Q47.940000000000005 4.589999999999996 57.2475 6.842499999999998Q66.555 9.094999999999999 74.03500000000001 13.004999999999995Q71.57000000000001 18.614999999999995 68.85000000000001 26.689999999999998Q68.34 28.39 68.0 29.239999999999995Q63.665000000000006 25.754999999999995 54.910000000000004 23.417499999999997Q46.155 21.08 39.440000000000005 21.08Q31.365000000000002 21.08 28.560000000000002 22.1425Q25.755000000000003 23.205 25.755000000000003 25.244999999999997Q25.755000000000003 27.284999999999997 29.622500000000002 28.5175Q33.49 29.75 40.800000000000004 29.75Q58.82000000000001 29.75 66.98 33.8725Q75.14 37.995 75.14 46.495Q75.14 58.394999999999996 66.47 63.622499999999995Q57.800000000000004 68.85 40.205000000000005 68.85Q30.770000000000003 68.85 20.995 66.7675Q11.22 64.685 3.4000000000000004 60.69Q6.29 56.355 8.2025 52.614999999999995Q10.115 48.875 11.9 43.94499999999999Z" transform="translate(165.06, 0)"/>
      <path d="M3.4000000000000004 37.4Q3.4000000000000004 22.184999999999995 12.495000000000001 13.344999999999995Q21.59 4.5049999999999955 40.800000000000004 4.5049999999999955Q67.66000000000001 4.5049999999999955 76.75500000000001 22.949999999999996Q69.105 25.584999999999994 58.82000000000001 30.854999999999997Q56.355000000000004 26.095 51.042500000000004 23.799999999999997Q45.730000000000004 21.504999999999995 40.205000000000005 21.504999999999995Q32.045 21.504999999999995 28.050000000000004 25.797499999999996Q24.055000000000003 30.089999999999996 24.055000000000003 36.379999999999995Q24.055000000000003 43.18 28.347500000000004 47.4725Q32.64 51.765 41.480000000000004 51.765Q48.535000000000004 51.765 52.7 49.4275Q56.865 47.09 58.82000000000001 41.989999999999995Q65.79 45.73 76.67 50.405Q72.42 60.69 62.475 64.77Q52.53 68.85 40.800000000000004 68.85Q21.59 68.85 12.495000000000001 60.69Q3.4000000000000004 52.53 3.4000000000000004 37.4Z" transform="translate(239.60000000000002, 0)"/>
      <path d="M3.4000000000000004 36.635Q3.4000000000000004 21.504999999999995 12.537500000000001 13.004999999999995Q21.675 4.5049999999999955 41.225 4.5049999999999955Q60.86000000000001 4.5049999999999955 69.9975 13.004999999999995Q79.135 21.504999999999995 79.135 36.635Q79.135 52.019999999999996 70.04 60.434999999999995Q60.94500000000001 68.85 41.225 68.85Q21.76 68.85 12.580000000000002 60.3925Q3.4000000000000004 51.935 3.4000000000000004 36.635ZM58.99 36.635Q58.99 29.154999999999994 54.825 25.499999999999996Q50.660000000000004 21.845 41.225 21.845Q31.875000000000004 21.845 27.71 25.499999999999996Q23.545 29.154999999999994 23.545 36.635Q23.545 44.2 27.71 47.855000000000004Q31.875000000000004 51.51 41.225 51.51Q50.660000000000004 51.51 54.825 47.897499999999994Q58.99 44.285 58.99 36.635Z" transform="translate(315.755, 0)"/>
      <path d="M76.415 24.139999999999993Q63.07000000000001 23.714999999999996 50.49 23.629999999999995V68.0H29.240000000000002V23.629999999999995Q16.575000000000003 23.714999999999996 3.4000000000000004 24.139999999999993V6.289999999999992H76.415Z" transform="translate(394.29, 0)"/>
      <path d="M11.9 43.94499999999999Q17.935000000000002 47.43 25.925 49.385000000000005Q33.915 51.34 40.800000000000004 51.34Q47.855000000000004 51.34 50.745000000000005 50.1075Q53.635000000000005 48.875 53.635000000000005 47.43Q53.635000000000005 42.245 37.825 42.245Q20.485000000000003 42.245 12.665000000000003 38.63249999999999Q4.845000000000001 35.019999999999996 4.845000000000001 26.945Q4.845000000000001 15.469999999999999 14.365000000000002 10.029999999999998Q23.885 4.589999999999996 39.1 4.589999999999996Q47.940000000000005 4.589999999999996 57.2475 6.842499999999998Q66.555 9.094999999999999 74.03500000000001 13.004999999999995Q71.57000000000001 18.614999999999995 68.85000000000001 26.689999999999998Q68.34 28.39 68.0 29.239999999999995Q63.665000000000006 25.754999999999995 54.910000000000004 23.417499999999997Q46.155 21.08 39.440000000000005 21.08Q31.365000000000002 21.08 28.560000000000002 22.1425Q25.755000000000003 23.205 25.755000000000003 25.244999999999997Q25.755000000000003 27.284999999999997 29.622500000000002 28.5175Q33.49 29.75 40.800000000000004 29.75Q58.82000000000001 29.75 66.98 33.8725Q75.14 37.995 75.14 46.495Q75.14 58.394999999999996 66.47 63.622499999999995Q57.800000000000004 68.85 40.205000000000005 68.85Q30.770000000000003 68.85 20.995 66.7675Q11.22 64.685 3.4000000000000004 60.69Q6.29 56.355 8.2025 52.614999999999995Q10.115 48.875 11.9 43.94499999999999Z" transform="translate(470.105, 0)"/>
    </g>
    
    <!-- White outer border -->
    <g fill="none" stroke="#FFFFFF" stroke-width="19.336571397103363" stroke-linejoin="round">
      <path d="M82.875 6.289999999999992 89.50500000000001 68.0H67.49000000000001L66.13000000000001 23.97L57.63 68.0H35.36L26.69 24.309999999999995L25.415000000000003 68.0H3.4000000000000004L10.030000000000001 6.289999999999992H38.93L46.325 46.495L52.785000000000004 6.289999999999992Z" transform="translate(0, 0)"/>
      <path d="M57.035000000000004 68.0Q55.42 63.155 52.7 55.845H25.585L21.335 68.0H0.0L23.8 6.289999999999992H55.080000000000005L79.05000000000001 68.0ZM47.855000000000004 42.584999999999994Q44.625 33.66 41.225 24.735L39.185 19.209999999999994Q36.21 26.945 30.430000000000003 42.584999999999994Z" transform="translate(88.905, 0)"/>
      <path d="M11.9 43.94499999999999Q17.935000000000002 47.43 25.925 49.385000000000005Q33.915 51.34 40.800000000000004 51.34Q47.855000000000004 51.34 50.745000000000005 50.1075Q53.635000000000005 48.875 53.635000000000005 47.43Q53.635000000000005 42.245 37.825 42.245Q20.485000000000003 42.245 12.665000000000003 38.63249999999999Q4.845000000000001 35.019999999999996 4.845000000000001 26.945Q4.845000000000001 15.469999999999999 14.365000000000002 10.029999999999998Q23.885 4.589999999999996 39.1 4.589999999999996Q47.940000000000005 4.589999999999996 57.2475 6.842499999999998Q66.555 9.094999999999999 74.03500000000001 13.004999999999995Q71.57000000000001 18.614999999999995 68.85000000000001 26.689999999999998Q68.34 28.39 68.0 29.239999999999995Q63.665000000000006 25.754999999999995 54.910000000000004 23.417499999999997Q46.155 21.08 39.440000000000005 21.08Q31.365000000000002 21.08 28.560000000000002 22.1425Q25.755000000000003 23.205 25.755000000000003 25.244999999999997Q25.755000000000003 27.284999999999997 29.622500000000002 28.5175Q33.49 29.75 40.800000000000004 29.75Q58.82000000000001 29.75 66.98 33.8725Q75.14 37.995 75.14 46.495Q75.14 58.394999999999996 66.47 63.622499999999995Q57.800000000000004 68.85 40.205000000000005 68.85Q30.770000000000003 68.85 20.995 66.7675Q11.22 64.685 3.4000000000000004 60.69Q6.29 56.355 8.2025 52.614999999999995Q10.115 48.875 11.9 43.94499999999999Z" transform="translate(165.06, 0)"/>
      <path d="M3.4000000000000004 37.4Q3.4000000000000004 22.184999999999995 12.495000000000001 13.344999999999995Q21.59 4.5049999999999955 40.800000000000004 4.5049999999999955Q67.66000000000001 4.5049999999999955 76.75500000000001 22.949999999999996Q69.105 25.584999999999994 58.82000000000001 30.854999999999997Q56.355000000000004 26.095 51.042500000000004 23.799999999999997Q45.730000000000004 21.504999999999995 40.205000000000005 21.504999999999995Q32.045 21.504999999999995 28.050000000000004 25.797499999999996Q24.055000000000003 30.089999999999996 24.055000000000003 36.379999999999995Q24.055000000000003 43.18 28.347500000000004 47.4725Q32.64 51.765 41.480000000000004 51.765Q48.535000000000004 51.765 52.7 49.4275Q56.865 47.09 58.82000000000001 41.989999999999995Q65.79 45.73 76.67 50.405Q72.42 60.69 62.475 64.77Q52.53 68.85 40.800000000000004 68.85Q21.59 68.85 12.495000000000001 60.69Q3.4000000000000004 52.53 3.4000000000000004 37.4Z" transform="translate(239.60000000000002, 0)"/>
      <path d="M3.4000000000000004 36.635Q3.4000000000000004 21.504999999999995 12.537500000000001 13.004999999999995Q21.675 4.5049999999999955 41.225 4.5049999999999955Q60.86000000000001 4.5049999999999955 69.9975 13.004999999999995Q79.135 21.504999999999995 79.135 36.635Q79.135 52.019999999999996 70.04 60.434999999999995Q60.94500000000001 68.85 41.225 68.85Q21.76 68.85 12.580000000000002 60.3925Q3.4000000000000004 51.935 3.4000000000000004 36.635ZM58.99 36.635Q58.99 29.154999999999994 54.825 25.499999999999996Q50.660000000000004 21.845 41.225 21.845Q31.875000000000004 21.845 27.71 25.499999999999996Q23.545 29.154999999999994 23.545 36.635Q23.545 44.2 27.71 47.855000000000004Q31.875000000000004 51.51 41.225 51.51Q50.660000000000004 51.51 54.825 47.897499999999994Q58.99 44.285 58.99 36.635Z" transform="translate(315.755, 0)"/>
      <path d="M76.415 24.139999999999993Q63.07000000000001 23.714999999999996 50.49 23.629999999999995V68.0H29.240000000000002V23.629999999999995Q16.575000000000003 23.714999999999996 3.4000000000000004 24.139999999999993V6.289999999999992H76.415Z" transform="translate(394.29, 0)"/>
      <path d="M11.9 43.94499999999999Q17.935000000000002 47.43 25.925 49.385000000000005Q33.915 51.34 40.800000000000004 51.34Q47.855000000000004 51.34 50.745000000000005 50.1075Q53.635000000000005 48.875 53.635000000000005 47.43Q53.635000000000005 42.245 37.825 42.245Q20.485000000000003 42.245 12.665000000000003 38.63249999999999Q4.845000000000001 35.019999999999996 4.845000000000001 26.945Q4.845000000000001 15.469999999999999 14.365000000000002 10.029999999999998Q23.885 4.589999999999996 39.1 4.589999999999996Q47.940000000000005 4.589999999999996 57.2475 6.842499999999998Q66.555 9.094999999999999 74.03500000000001 13.004999999999995Q71.57000000000001 18.614999999999995 68.85000000000001 26.689999999999998Q68.34 28.39 68.0 29.239999999999995Q63.665000000000006 25.754999999999995 54.910000000000004 23.417499999999997Q46.155 21.08 39.440000000000005 21.08Q31.365000000000002 21.08 28.560000000000002 22.1425Q25.755000000000003 23.205 25.755000000000003 25.244999999999997Q25.755000000000003 27.284999999999997 29.622500000000002 28.5175Q33.49 29.75 40.800000000000004 29.75Q58.82000000000001 29.75 66.98 33.8725Q75.14 37.995 75.14 46.495Q75.14 58.394999999999996 66.47 63.622499999999995Q57.800000000000004 68.85 40.205000000000005 68.85Q30.770000000000003 68.85 20.995 66.7675Q11.22 64.685 3.4000000000000004 60.69Q6.29 56.355 8.2025 52.614999999999995Q10.115 48.875 11.9 43.94499999999999Z" transform="translate(470.105, 0)"/>
    </g>
    
    <!-- Dark yellow border -->
    <g fill="none" stroke="#854D0E" stroke-width="12.085357123189603" stroke-linejoin="round">
      <path d="M82.875 6.289999999999992 89.50500000000001 68.0H67.49000000000001L66.13000000000001 23.97L57.63 68.0H35.36L26.69 24.309999999999995L25.415000000000003 68.0H3.4000000000000004L10.030000000000001 6.289999999999992H38.93L46.325 46.495L52.785000000000004 6.289999999999992Z" transform="translate(0, 0)"/>
      <path d="M57.035000000000004 68.0Q55.42 63.155 52.7 55.845H25.585L21.335 68.0H0.0L23.8 6.289999999999992H55.080000000000005L79.05000000000001 68.0ZM47.855000000000004 42.584999999999994Q44.625 33.66 41.225 24.735L39.185 19.209999999999994Q36.21 26.945 30.430000000000003 42.584999999999994Z" transform="translate(88.905, 0)"/>
      <path d="M11.9 43.94499999999999Q17.935000000000002 47.43 25.925 49.385000000000005Q33.915 51.34 40.800000000000004 51.34Q47.855000000000004 51.34 50.745000000000005 50.1075Q53.635000000000005 48.875 53.635000000000005 47.43Q53.635000000000005 42.245 37.825 42.245Q20.485000000000003 42.245 12.665000000000003 38.63249999999999Q4.845000000000001 35.019999999999996 4.845000000000001 26.945Q4.845000000000001 15.469999999999999 14.365000000000002 10.029999999999998Q23.885 4.589999999999996 39.1 4.589999999999996Q47.940000000000005 4.589999999999996 57.2475 6.842499999999998Q66.555 9.094999999999999 74.03500000000001 13.004999999999995Q71.57000000000001 18.614999999999995 68.85000000000001 26.689999999999998Q68.34 28.39 68.0 29.239999999999995Q63.665000000000006 25.754999999999995 54.910000000000004 23.417499999999997Q46.155 21.08 39.440000000000005 21.08Q31.365000000000002 21.08 28.560000000000002 22.1425Q25.755000000000003 23.205 25.755000000000003 25.244999999999997Q25.755000000000003 27.284999999999997 29.622500000000002 28.5175Q33.49 29.75 40.800000000000004 29.75Q58.82000000000001 29.75 66.98 33.8725Q75.14 37.995 75.14 46.495Q75.14 58.394999999999996 66.47 63.622499999999995Q57.800000000000004 68.85 40.205000000000005 68.85Q30.770000000000003 68.85 20.995 66.7675Q11.22 64.685 3.4000000000000004 60.69Q6.29 56.355 8.2025 52.614999999999995Q10.115 48.875 11.9 43.94499999999999Z" transform="translate(165.06, 0)"/>
      <path d="M3.4000000000000004 37.4Q3.4000000000000004 22.184999999999995 12.495000000000001 13.344999999999995Q21.59 4.5049999999999955 40.800000000000004 4.5049999999999955Q67.66000000000001 4.5049999999999955 76.75500000000001 22.949999999999996Q69.105 25.584999999999994 58.82000000000001 30.854999999999997Q56.355000000000004 26.095 51.042500000000004 23.799999999999997Q45.730000000000004 21.504999999999995 40.205000000000005 21.504999999999995Q32.045 21.504999999999995 28.050000000000004 25.797499999999996Q24.055000000000003 30.089999999999996 24.055000000000003 36.379999999999995Q24.055000000000003 43.18 28.347500000000004 47.4725Q32.64 51.765 41.480000000000004 51.765Q48.535000000000004 51.765 52.7 49.4275Q56.865 47.09 58.82000000000001 41.989999999999995Q65.79 45.73 76.67 50.405Q72.42 60.69 62.475 64.77Q52.53 68.85 40.800000000000004 68.85Q21.59 68.85 12.495000000000001 60.69Q3.4000000000000004 52.53 3.4000000000000004 37.4Z" transform="translate(239.60000000000002, 0)"/>
      <path d="M3.4000000000000004 36.635Q3.4000000000000004 21.504999999999995 12.537500000000001 13.004999999999995Q21.675 4.5049999999999955 41.225 4.5049999999999955Q60.86000000000001 4.5049999999999955 69.9975 13.004999999999995Q79.135 21.504999999999995 79.135 36.635Q79.135 52.019999999999996 70.04 60.434999999999995Q60.94500000000001 68.85 41.225 68.85Q21.76 68.85 12.580000000000002 60.3925Q3.4000000000000004 51.935 3.4000000000000004 36.635ZM58.99 36.635Q58.99 29.154999999999994 54.825 25.499999999999996Q50.660000000000004 21.845 41.225 21.845Q31.875000000000004 21.845 27.71 25.499999999999996Q23.545 29.154999999999994 23.545 36.635Q23.545 44.2 27.71 47.855000000000004Q31.875000000000004 51.51 41.225 51.51Q50.660000000000004 51.51 54.825 47.897499999999994Q58.99 44.285 58.99 36.635Z" transform="translate(315.755, 0)"/>
      <path d="M76.415 24.139999999999993Q63.07000000000001 23.714999999999996 50.49 23.629999999999995V68.0H29.240000000000002V23.629999999999995Q16.575000000000003 23.714999999999996 3.4000000000000004 24.139999999999993V6.289999999999992H76.415Z" transform="translate(394.29, 0)"/>
      <path d="M11.9 43.94499999999999Q17.935000000000002 47.43 25.925 49.385000000000005Q33.915 51.34 40.800000000000004 51.34Q47.855000000000004 51.34 50.745000000000005 50.1075Q53.635000000000005 48.875 53.635000000000005 47.43Q53.635000000000005 42.245 37.825 42.245Q20.485000000000003 42.245 12.665000000000003 38.63249999999999Q4.845000000000001 35.019999999999996 4.845000000000001 26.945Q4.845000000000001 15.469999999999999 14.365000000000002 10.029999999999998Q23.885 4.589999999999996 39.1 4.589999999999996Q47.940000000000005 4.589999999999996 57.2475 6.842499999999998Q66.555 9.094999999999999 74.03500000000001 13.004999999999995Q71.57000000000001 18.614999999999995 68.85000000000001 26.689999999999998Q68.34 28.39 68.0 29.239999999999995Q63.665000000000006 25.754999999999995 54.910000000000004 23.417499999999997Q46.155 21.08 39.440000000000005 21.08Q31.365000000000002 21.08 28.560000000000002 22.1425Q25.755000000000003 23.205 25.755000000000003 25.244999999999997Q25.755000000000003 27.284999999999997 29.622500000000002 28.5175Q33.49 29.75 40.800000000000004 29.75Q58.82000000000001 29.75 66.98 33.8725Q75.14 37.995 75.14 46.495Q75.14 58.394999999999996 66.47 63.622499999999995Q57.800000000000004 68.85 40.205000000000005 68.85Q30.770000000000003 68.85 20.995 66.7675Q11.22 64.685 3.4000000000000004 60.69Q6.29 56.355 8.2025 52.614999999999995Q10.115 48.875 11.9 43.94499999999999Z" transform="translate(470.105, 0)"/>
    </g>
    
    <!-- Inner white border at 70% opacity -->
    <g fill="none" stroke="#FFFFFF" stroke-width="2.4170714246379204" stroke-linejoin="round" opacity="0.7">
      <path d="M82.875 6.289999999999992 89.50500000000001 68.0H67.49000000000001L66.13000000000001 23.97L57.63 68.0H35.36L26.69 24.309999999999995L25.415000000000003 68.0H3.4000000000000004L10.030000000000001 6.289999999999992H38.93L46.325 46.495L52.785000000000004 6.289999999999992Z" transform="translate(0, 0)"/>
      <path d="M57.035000000000004 68.0Q55.42 63.155 52.7 55.845H25.585L21.335 68.0H0.0L23.8 6.289999999999992H55.080000000000005L79.05000000000001 68.0ZM47.855000000000004 42.584999999999994Q44.625 33.66 41.225 24.735L39.185 19.209999999999994Q36.21 26.945 30.430000000000003 42.584999999999994Z" transform="translate(88.905, 0)"/>
      <path d="M11.9 43.94499999999999Q17.935000000000002 47.43 25.925 49.385000000000005Q33.915 51.34 40.800000000000004 51.34Q47.855000000000004 51.34 50.745000000000005 50.1075Q53.635000000000005 48.875 53.635000000000005 47.43Q53.635000000000005 42.245 37.825 42.245Q20.485000000000003 42.245 12.665000000000003 38.63249999999999Q4.845000000000001 35.019999999999996 4.845000000000001 26.945Q4.845000000000001 15.469999999999999 14.365000000000002 10.029999999999998Q23.885 4.589999999999996 39.1 4.589999999999996Q47.940000000000005 4.589999999999996 57.2475 6.842499999999998Q66.555 9.094999999999999 74.03500000000001 13.004999999999995Q71.57000000000001 18.614999999999995 68.85000000000001 26.689999999999998Q68.34 28.39 68.0 29.239999999999995Q63.665000000000006 25.754999999999995 54.910000000000004 23.417499999999997Q46.155 21.08 39.440000000000005 21.08Q31.365000000000002 21.08 28.560000000000002 22.1425Q25.755000000000003 23.205 25.755000000000003 25.244999999999997Q25.755000000000003 27.284999999999997 29.622500000000002 28.5175Q33.49 29.75 40.800000000000004 29.75Q58.82000000000001 29.75 66.98 33.8725Q75.14 37.995 75.14 46.495Q75.14 58.394999999999996 66.47 63.622499999999995Q57.800000000000004 68.85 40.205000000000005 68.85Q30.770000000000003 68.85 20.995 66.7675Q11.22 64.685 3.4000000000000004 60.69Q6.29 56.355 8.2025 52.614999999999995Q10.115 48.875 11.9 43.94499999999999Z" transform="translate(165.06, 0)"/>
      <path d="M3.4000000000000004 37.4Q3.4000000000000004 22.184999999999995 12.495000000000001 13.344999999999995Q21.59 4.5049999999999955 40.800000000000004 4.5049999999999955Q67.66000000000001 4.5049999999999955 76.75500000000001 22.949999999999996Q69.105 25.584999999999994 58.82000000000001 30.854999999999997Q56.355000000000004 26.095 51.042500000000004 23.799999999999997Q45.730000000000004 21.504999999999995 40.205000000000005 21.504999999999995Q32.045 21.504999999999995 28.050000000000004 25.797499999999996Q24.055000000000003 30.089999999999996 24.055000000000003 36.379999999999995Q24.055000000000003 43.18 28.347500000000004 47.4725Q32.64 51.765 41.480000000000004 51.765Q48.535000000000004 51.765 52.7 49.4275Q56.865 47.09 58.82000000000001 41.989999999999995Q65.79 45.73 76.67 50.405Q72.42 60.69 62.475 64.77Q52.53 68.85 40.800000000000004 68.85Q21.59 68.85 12.495000000000001 60.69Q3.4000000000000004 52.53 3.4000000000000004 37.4Z" transform="translate(239.60000000000002, 0)"/>
      <path d="M3.4000000000000004 36.635Q3.4000000000000004 21.504999999999995 12.537500000000001 13.004999999999995Q21.675 4.5049999999999955 41.225 4.5049999999999955Q60.86000000000001 4.5049999999999955 69.9975 13.004999999999995Q79.135 21.504999999999995 79.135 36.635Q79.135 52.019999999999996 70.04 60.434999999999995Q60.94500000000001 68.85 41.225 68.85Q21.76 68.85 12.580000000000002 60.3925Q3.4000000000000004 51.935 3.4000000000000004 36.635ZM58.99 36.635Q58.99 29.154999999999994 54.825 25.499999999999996Q50.660000000000004 21.845 41.225 21.845Q31.875000000000004 21.845 27.71 25.499999999999996Q23.545 29.154999999999994 23.545 36.635Q23.545 44.2 27.71 47.855000000000004Q31.875000000000004 51.51 41.225 51.51Q50.660000000000004 51.51 54.825 47.897499999999994Q58.99 44.285 58.99 36.635Z" transform="translate(315.755, 0)"/>
      <path d="M76.415 24.139999999999993Q63.07000000000001 23.714999999999996 50.49 23.629999999999995V68.0H29.240000000000002V23.629999999999995Q16.575000000000003 23.714999999999996 3.4000000000000004 24.139999999999993V6.289999999999992H76.415Z" transform="translate(394.29, 0)"/>
      <path d="M11.9 43.94499999999999Q17.935000000000002 47.43 25.925 49.385000000000005Q33.915 51.34 40.800000000000004 51.34Q47.855000000000004 51.34 50.745000000000005 50.1075Q53.635000000000005 48.875 53.635000000000005 47.43Q53.635000000000005 42.245 37.825 42.245Q20.485000000000003 42.245 12.665000000000003 38.63249999999999Q4.845000000000001 35.019999999999996 4.845000000000001 26.945Q4.845000000000001 15.469999999999999 14.365000000000002 10.029999999999998Q23.885 4.589999999999996 39.1 4.589999999999996Q47.940000000000005 4.589999999999996 57.2475 6.842499999999998Q66.555 9.094999999999999 74.03500000000001 13.004999999999995Q71.57000000000001 18.614999999999995 68.85000000000001 26.689999999999998Q68.34 28.39 68.0 29.239999999999995Q63.665000000000006 25.754999999999995 54.910000000000004 23.417499999999997Q46.155 21.08 39.440000000000005 21.08Q31.365000000000002 21.08 28.560000000000002 22.1425Q25.755000000000003 23.205 25.755000000000003 25.244999999999997Q25.755000000000003 27.284999999999997 29.622500000000002 28.5175Q33.49 29.75 40.800000000000004 29.75Q58.82000000000001 29.75 66.98 33.8725Q75.14 37.995 75.14 46.495Q75.14 58.394999999999996 66.47 63.622499999999995Q57.800000000000004 68.85 40.205000000000005 68.85Q30.770000000000003 68.85 20.995 66.7675Q11.22 64.685 3.4000000000000004 60.69Q6.29 56.355 8.2025 52.614999999999995Q10.115 48.875 11.9 43.94499999999999Z" transform="translate(470.105, 0)"/>
    </g>
    
    <!-- Main orange gradient fill -->
    <g fill="url(#orangeGradient)">
      <path d="M82.875 6.289999999999992 89.50500000000001 68.0H67.49000000000001L66.13000000000001 23.97L57.63 68.0H35.36L26.69 24.309999999999995L25.415000000000003 68.0H3.4000000000000004L10.030000000000001 6.289999999999992H38.93L46.325 46.495L52.785000000000004 6.289999999999992Z" transform="translate(0, 0)"/>
      <path d="M57.035000000000004 68.0Q55.42 63.155 52.7 55.845H25.585L21.335 68.0H0.0L23.8 6.289999999999992H55.080000000000005L79.05000000000001 68.0ZM47.855000000000004 42.584999999999994Q44.625 33.66 41.225 24.735L39.185 19.209999999999994Q36.21 26.945 30.430000000000003 42.584999999999994Z" transform="translate(88.905, 0)"/>
      <path d="M11.9 43.94499999999999Q17.935000000000002 47.43 25.925 49.385000000000005Q33.915 51.34 40.800000000000004 51.34Q47.855000000000004 51.34 50.745000000000005 50.1075Q53.635000000000005 48.875 53.635000000000005 47.43Q53.635000000000005 42.245 37.825 42.245Q20.485000000000003 42.245 12.665000000000003 38.63249999999999Q4.845000000000001 35.019999999999996 4.845000000000001 26.945Q4.845000000000001 15.469999999999999 14.365000000000002 10.029999999999998Q23.885 4.589999999999996 39.1 4.589999999999996Q47.940000000000005 4.589999999999996 57.2475 6.842499999999998Q66.555 9.094999999999999 74.03500000000001 13.004999999999995Q71.57000000000001 18.614999999999995 68.85000000000001 26.689999999999998Q68.34 28.39 68.0 29.239999999999995Q63.665000000000006 25.754999999999995 54.910000000000004 23.417499999999997Q46.155 21.08 39.440000000000005 21.08Q31.365000000000002 21.08 28.560000000000002 22.1425Q25.755000000000003 23.205 25.755000000000003 25.244999999999997Q25.755000000000003 27.284999999999997 29.622500000000002 28.5175Q33.49 29.75 40.800000000000004 29.75Q58.82000000000001 29.75 66.98 33.8725Q75.14 37.995 75.14 46.495Q75.14 58.394999999999996 66.47 63.622499999999995Q57.800000000000004 68.85 40.205000000000005 68.85Q30.770000000000003 68.85 20.995 66.7675Q11.22 64.685 3.4000000000000004 60.69Q6.29 56.355 8.2025 52.614999999999995Q10.115 48.875 11.9 43.94499999999999Z" transform="translate(165.06, 0)"/>
      <path d="M3.4000000000000004 37.4Q3.4000000000000004 22.184999999999995 12.495000000000001 13.344999999999995Q21.59 4.5049999999999955 40.800000000000004 4.5049999999999955Q67.66000000000001 4.5049999999999955 76.75500000000001 22.949999999999996Q69.105 25.584999999999994 58.82000000000001 30.854999999999997Q56.355000000000004 26.095 51.042500000000004 23.799999999999997Q45.730000000000004 21.504999999999995 40.205000000000005 21.504999999999995Q32.045 21.504999999999995 28.050000000000004 25.797499999999996Q24.055000000000003 30.089999999999996 24.055000000000003 36.379999999999995Q24.055000000000003 43.18 28.347500000000004 47.4725Q32.64 51.765 41.480000000000004 51.765Q48.535000000000004 51.765 52.7 49.4275Q56.865 47.09 58.82000000000001 41.989999999999995Q65.79 45.73 76.67 50.405Q72.42 60.69 62.475 64.77Q52.53 68.85 40.800000000000004 68.85Q21.59 68.85 12.495000000000001 60.69Q3.4000000000000004 52.53 3.4000000000000004 37.4Z" transform="translate(239.60000000000002, 0)"/>
      <path d="M3.4000000000000004 36.635Q3.4000000000000004 21.504999999999995 12.537500000000001 13.004999999999995Q21.675 4.5049999999999955 41.225 4.5049999999999955Q60.86000000000001 4.5049999999999955 69.9975 13.004999999999995Q79.135 21.504999999999995 79.135 36.635Q79.135 52.019999999999996 70.04 60.434999999999995Q60.94500000000001 68.85 41.225 68.85Q21.76 68.85 12.580000000000002 60.3925Q3.4000000000000004 51.935 3.4000000000000004 36.635ZM58.99 36.635Q58.99 29.154999999999994 54.825 25.499999999999996Q50.660000000000004 21.845 41.225 21.845Q31.875000000000004 21.845 27.71 25.499999999999996Q23.545 29.154999999999994 23.545 36.635Q23.545 44.2 27.71 47.855000000000004Q31.875000000000004 51.51 41.225 51.51Q50.660000000000004 51.51 54.825 47.897499999999994Q58.99 44.285 58.99 36.635Z" transform="translate(315.755, 0)"/>
      <path d="M76.415 24.139999999999993Q63.07000000000001 23.714999999999996 50.49 23.629999999999995V68.0H29.240000000000002V23.629999999999995Q16.575000000000003 23.714999999999996 3.4000000000000004 24.139999999999993V6.289999999999992H76.415Z" transform="translate(394.29, 0)"/>
      <path d="M11.9 43.94499999999999Q17.935000000000002 47.43 25.925 49.385000000000005Q33.915 51.34 40.800000000000004 51.34Q47.855000000000004 51.34 50.745000000000005 50.1075Q53.635000000000005 48.875 53.635000000000005 47.43Q53.635000000000005 42.245 37.825 42.245Q20.485000000000003 42.245 12.665000000000003 38.63249999999999Q4.845000000000001 35.019999999999996 4.845000000000001 26.945Q4.845000000000001 15.469999999999999 14.365000000000002 10.029999999999998Q23.885 4.589999999999996 39.1 4.589999999999996Q47.940000000000005 4.589999999999996 57.2475 6.842499999999998Q66.555 9.094999999999999 74.03500000000001 13.004999999999995Q71.57000000000001 18.614999999999995 68.85000000000001 26.689999999999998Q68.34 28.39 68.0 29.239999999999995Q63.665000000000006 25.754999999999995 54.910000000000004 23.417499999999997Q46.155 21.08 39.440000000000005 21.08Q31.365000000000002 21.08 28.560000000000002 22.1425Q25.755000000000003 23.205 25.755000000000003 25.244999999999997Q25.755000000000003 27.284999999999997 29.622500000000002 28.5175Q33.49 29.75 40.800000000000004 29.75Q58.82000000000001 29.75 66.98 33.8725Q75.14 37.995 75.14 46.495Q75.14 58.394999999999996 66.47 63.622499999999995Q57.800000000000004 68.85 40.205000000000005 68.85Q30.770000000000003 68.85 20.995 66.7675Q11.22 64.685 3.4000000000000004 60.69Q6.29 56.355 8.2025 52.614999999999995Q10.115 48.875 11.9 43.94499999999999Z" transform="translate(470.105, 0)"/>
    </g>
    
    <!-- Highlight overlay -->
    <g fill="url(#orangeHighlight)">
      <path d="M82.875 6.289999999999992 89.50500000000001 68.0H67.49000000000001L66.13000000000001 23.97L57.63 68.0H35.36L26.69 24.309999999999995L25.415000000000003 68.0H3.4000000000000004L10.030000000000001 6.289999999999992H38.93L46.325 46.495L52.785000000000004 6.289999999999992Z" transform="translate(0, 0)"/>
      <path d="M57.035000000000004 68.0Q55.42 63.155 52.7 55.845H25.585L21.335 68.0H0.0L23.8 6.289999999999992H55.080000000000005L79.05000000000001 68.0ZM47.855000000000004 42.584999999999994Q44.625 33.66 41.225 24.735L39.185 19.209999999999994Q36.21 26.945 30.430000000000003 42.584999999999994Z" transform="translate(88.905, 0)"/>
      <path d="M11.9 43.94499999999999Q17.935000000000002 47.43 25.925 49.385000000000005Q33.915 51.34 40.800000000000004 51.34Q47.855000000000004 51.34 50.745000000000005 50.1075Q53.635000000000005 48.875 53.635000000000005 47.43Q53.635000000000005 42.245 37.825 42.245Q20.485000000000003 42.245 12.665000000000003 38.63249999999999Q4.845000000000001 35.019999999999996 4.845000000000001 26.945Q4.845000000000001 15.469999999999999 14.365000000000002 10.029999999999998Q23.885 4.589999999999996 39.1 4.589999999999996Q47.940000000000005 4.589999999999996 57.2475 6.842499999999998Q66.555 9.094999999999999 74.03500000000001 13.004999999999995Q71.57000000000001 18.614999999999995 68.85000000000001 26.689999999999998Q68.34 28.39 68.0 29.239999999999995Q63.665000000000006 25.754999999999995 54.910000000000004 23.417499999999997Q46.155 21.08 39.440000000000005 21.08Q31.365000000000002 21.08 28.560000000000002 22.1425Q25.755000000000003 23.205 25.755000000000003 25.244999999999997Q25.755000000000003 27.284999999999997 29.622500000000002 28.5175Q33.49 29.75 40.800000000000004 29.75Q58.82000000000001 29.75 66.98 33.8725Q75.14 37.995 75.14 46.495Q75.14 58.394999999999996 66.47 63.622499999999995Q57.800000000000004 68.85 40.205000000000005 68.85Q30.770000000000003 68.85 20.995 66.7675Q11.22 64.685 3.4000000000000004 60.69Q6.29 56.355 8.2025 52.614999999999995Q10.115 48.875 11.9 43.94499999999999Z" transform="translate(165.06, 0)"/>
      <path d="M3.4000000000000004 37.4Q3.4000000000000004 22.184999999999995 12.495000000000001 13.344999999999995Q21.59 4.5049999999999955 40.800000000000004 4.5049999999999955Q67.66000000000001 4.5049999999999955 76.75500000000001 22.949999999999996Q69.105 25.584999999999994 58.82000000000001 30.854999999999997Q56.355000000000004 26.095 51.042500000000004 23.799999999999997Q45.730000000000004 21.504999999999995 40.205000000000005 21.504999999999995Q32.045 21.504999999999995 28.050000000000004 25.797499999999996Q24.055000000000003 30.089999999999996 24.055000000000003 36.379999999999995Q24.055000000000003 43.18 28.347500000000004 47.4725Q32.64 51.765 41.480000000000004 51.765Q48.535000000000004 51.765 52.7 49.4275Q56.865 47.09 58.82000000000001 41.989999999999995Q65.79 45.73 76.67 50.405Q72.42 60.69 62.475 64.77Q52.53 68.85 40.800000000000004 68.85Q21.59 68.85 12.495000000000001 60.69Q3.4000000000000004 52.53 3.4000000000000004 37.4Z" transform="translate(239.60000000000002, 0)"/>
      <path d="M3.4000000000000004 36.635Q3.4000000000000004 21.504999999999995 12.537500000000001 13.004999999999995Q21.675 4.5049999999999955 41.225 4.5049999999999955Q60.86000000000001 4.5049999999999955 69.9975 13.004999999999995Q79.135 21.504999999999995 79.135 36.635Q79.135 52.019999999999996 70.04 60.434999999999995Q60.94500000000001 68.85 41.225 68.85Q21.76 68.85 12.580000000000002 60.3925Q3.4000000000000004 51.935 3.4000000000000004 36.635ZM58.99 36.635Q58.99 29.154999999999994 54.825 25.499999999999996Q50.660000000000004 21.845 41.225 21.845Q31.875000000000004 21.845 27.71 25.499999999999996Q23.545 29.154999999999994 23.545 36.635Q23.545 44.2 27.71 47.855000000000004Q31.875000000000004 51.51 41.225 51.51Q50.660000000000004 51.51 54.825 47.897499999999994Q58.99 44.285 58.99 36.635Z" transform="translate(315.755, 0)"/>
      <path d="M76.415 24.139999999999993Q63.07000000000001 23.714999999999996 50.49 23.629999999999995V68.0H29.240000000000002V23.629999999999995Q16.575000000000003 23.714999999999996 3.4000000000000004 24.139999999999993V6.289999999999992H76.415Z" transform="translate(394.29, 0)"/>
      <path d="M11.9 43.94499999999999Q17.935000000000002 47.43 25.925 49.385000000000005Q33.915 51.34 40.800000000000004 51.34Q47.855000000000004 51.34 50.745000000000005 50.1075Q53.635000000000005 48.875 53.635000000000005 47.43Q53.635000000000005 42.245 37.825 42.245Q20.485000000000003 42.245 12.665000000000003 38.63249999999999Q4.845000000000001 35.019999999999996 4.845000000000001 26.945Q4.845000000000001 15.469999999999999 14.365000000000002 10.029999999999998Q23.885 4.589999999999996 39.1 4.589999999999996Q47.940000000000005 4.589999999999996 57.2475 6.842499999999998Q66.555 9.094999999999999 74.03500000000001 13.004999999999995Q71.57000000000001 18.614999999999995 68.85000000000001 26.689999999999998Q68.34 28.39 68.0 29.239999999999995Q63.665000000000006 25.754999999999995 54.910000000000004 23.417499999999997Q46.155 21.08 39.440000000000005 21.08Q31.365000000000002 21.08 28.560000000000002 22.1425Q25.755000000000003 23.205 25.755000000000003 25.244999999999997Q25.755000000000003 27.284999999999997 29.622500000000002 28.5175Q33.49 29.75 40.800000000000004 29.75Q58.82000000000001 29.75 66.98 33.8725Q75.14 37.995 75.14 46.495Q75.14 58.394999999999996 66.47 63.622499999999995Q57.800000000000004 68.85 40.205000000000005 68.85Q30.770000000000003 68.85 20.995 66.7675Q11.22 64.685 3.4000000000000004 60.69Q6.29 56.355 8.2025 52.614999999999995Q10.115 48.875 11.9 43.94499999999999Z" transform="translate(470.105, 0)"/>
    </g>
  </g>
</svg>
