<svg xmlns="http://www.w3.org/2000/svg" viewBox="63.01 15.00 478.97 152.64">
  <defs>
    <linearGradient id="blueGradient" x1="0%" y1="0%" x2="0%" y2="100%">
      <stop offset="0%" style="stop-color:#C4B5FD"/>
      <stop offset="30%" style="stop-color:#A78BFA"/>
      <stop offset="70%" style="stop-color:#8B5CF6"/>
      <stop offset="100%" style="stop-color:#7C3AED"/>
    </linearGradient>
    <linearGradient id="blueHighlight" x1="0%" y1="0%" x2="0%" y2="100%">
      <stop offset="0%" style="stop-color:#FFFFFF" stop-opacity="0.8"/>
      <stop offset="40%" style="stop-color:#FFFFFF" stop-opacity="0.2"/>
      <stop offset="60%" style="stop-color:#FFFFFF" stop-opacity="0"/>
    </linearGradient>
    <linearGradient id="orangeGradient" x1="0%" y1="0%" x2="0%" y2="100%">
      <stop offset="0%" style="stop-color:#FEF08A"/>
      <stop offset="30%" style="stop-color:#FDE047"/>
      <stop offset="70%" style="stop-color:#FACC15"/>
      <stop offset="100%" style="stop-color:#EAB308"/>
    </linearGradient>
    <linearGradient id="orangeHighlight" x1="0%" y1="0%" x2="0%" y2="100%">
      <stop offset="0%" style="stop-color:#FFFFFF" stop-opacity="0.8"/>
      <stop offset="40%" style="stop-color:#FFFFFF" stop-opacity="0.2"/>
      <stop offset="60%" style="stop-color:#FFFFFF" stop-opacity="0"/>
    </linearGradient>
    <clipPath id="medwayClip">
      <path d="M82.875 6.29 89.505 68H67.49L66.13 23.97L57.63 68H35.36L26.69 24.31L25.415 68H3.4L10.03 6.29H38.93L46.325 46.495L52.785 6.29Z"/>
      <path d="M23.46 52.445Q55.76 52.275 70.295 51.51Q69.7 54.995 69.5725 58.6925Q69.445 62.39 69.445 68H3.4Q4.08 51.51 4.08 37.145Q4.08 22.78 3.4 6.29H69.445V21.675H23.46V29.835Q27.54 29.92 35.53 29.92Q49.045 29.92 63.495 29.41V44.03Q49.045 43.52 35.53 43.52Q27.54 43.52 23.46 43.605Z" transform="translate(88.905, 0)"/>
      <path d="M72.505 36.72Q72.505 46.155 68.255 53.21Q64.005 60.265 55.505 64.1325Q47.005 68 34.595 68Q27.03 68 19.21 68Q11.39 68 3.4 67.915Q4.08 51.17 4.08 36.72Q4.08 22.1 3.4 6.205Q13.515 5.355 30.6 5.355Q46.58 5.355 55.845 9.2225Q65.11 13.09 68.8075 19.9325Q72.505 26.775 72.505 36.72ZM36.975 51.085Q44.88 51.085 47.515 47.26Q50.15 43.435 50.15 36.72Q50.15 30.26 47.3875 26.265Q44.625 22.27 36.975 22.27Q28.73 22.27 24.65 22.78V51.085Z" transform="translate(158.6, 0)"/>
      <path d="M64.6 44.795 69.02 6.29H89.76L78.37 68H52.275L46.495 33.575L39.78 68H14.79L3.4 6.29H24.14L28.475 44.285L35.275 6.29H57.97Z" transform="translate(230.505, 0)"/>
      <path d="M57.035 68Q55.42 63.155 52.7 55.845H25.585L21.335 68H0L23.8 6.29H55.08L79.05 68ZM47.855 42.585Q44.625 33.66 41.225 24.735L39.185 19.21Q36.21 26.945 30.43 42.585Z" transform="translate(309.665, 0)"/>
      <path d="M79.05 6.29 77.435 8.755Q68.34 22.865 61.8375 33.7025Q55.335 44.54 51 53.635V68H28.815V52.19Q25.67 45.815 21.42 39.0575Q17.17 32.3 9.35 20.485Q3.23 11.475 0 6.29H23.8Q26.35 11.475 32.13 21.675Q37.91 32.045 40.035 36.295Q43.01 30.09 48.025 21.08Q53.89 10.54 55.93 6.29Z" transform="translate(373.82, 0)"/>
    </clipPath>
    <clipPath id="mascotsClip">
      <path d="M82.875 6.29 89.505 68H67.49L66.13 23.97L57.63 68H35.36L26.69 24.31L25.415 68H3.4L10.03 6.29H38.93L46.325 46.495L52.785 6.29Z"/>
      <path d="M57.035 68Q55.42 63.155 52.7 55.845H25.585L21.335 68H0L23.8 6.29H55.08L79.05 68ZM47.855 42.585Q44.625 33.66 41.225 24.735L39.185 19.21Q36.21 26.945 30.43 42.585Z" transform="translate(88.905, 0)"/>
      <path d="M11.9 43.945Q17.935 47.43 25.925 49.385Q33.915 51.34 40.8 51.34Q47.855 51.34 50.745 50.1075Q53.635 48.875 53.635 47.43Q53.635 42.245 37.825 42.245Q20.485 42.245 12.665 38.6325Q4.845 35.02 4.845 26.945Q4.845 15.47 14.365 10.03Q23.885 4.59 39.1 4.59Q47.94 4.59 57.2475 6.8425Q66.555 9.095 74.035 13.005Q71.57 18.615 68.85 26.69Q68.34 28.39 68 29.24Q63.665 25.755 54.91 23.4175Q46.155 21.08 39.44 21.08Q31.365 21.08 28.56 22.1425Q25.755 23.205 25.755 25.245Q25.755 27.285 29.6225 28.5175Q33.49 29.75 40.8 29.75Q58.82 29.75 66.98 33.8725Q75.14 37.995 75.14 46.495Q75.14 58.395 66.47 63.6225Q57.8 68.85 40.205 68.85Q30.77 68.85 20.995 66.7675Q11.22 64.685 3.4 60.69Q6.29 56.355 8.2025 52.615Q10.115 48.875 11.9 43.945Z" transform="translate(165.06, 0)"/>
      <path d="M3.4 37.4Q3.4 22.185 12.495 13.345Q21.59 4.505 40.8 4.505Q67.66 4.505 76.755 22.95Q69.105 25.585 58.82 30.855Q56.355 26.095 51.0425 23.8Q45.73 21.505 40.205 21.505Q32.045 21.505 28.05 25.7975Q24.055 30.09 24.055 36.38Q24.055 43.18 28.3475 47.4725Q32.64 51.765 41.48 51.765Q48.535 51.765 52.7 49.4275Q56.865 47.09 58.82 41.99Q65.79 45.73 76.67 50.405Q72.42 60.69 62.475 64.77Q52.53 68.85 40.8 68.85Q21.59 68.85 12.495 60.69Q3.4 52.53 3.4 37.4Z" transform="translate(239.6, 0)"/>
      <path d="M3.4 36.635Q3.4 21.505 12.5375 13.005Q21.675 4.505 41.225 4.505Q60.86 4.505 69.9975 13.005Q79.135 21.505 79.135 36.635Q79.135 52.02 70.04 60.435Q60.945 68.85 41.225 68.85Q21.76 68.85 12.58 60.3925Q3.4 51.935 3.4 36.635ZM58.99 36.635Q58.99 29.155 54.825 25.5Q50.66 21.845 41.225 21.845Q31.875 21.845 27.71 25.5Q23.545 29.155 23.545 36.635Q23.545 44.2 27.71 47.855Q31.875 51.51 41.225 51.51Q50.66 51.51 54.825 47.8975Q58.99 44.285 58.99 36.635Z" transform="translate(315.755, 0)"/>
      <path d="M76.415 24.14Q63.07 23.715 50.49 23.63V68H29.24V23.63Q16.575 23.715 3.4 24.14V6.29H76.415Z" transform="translate(394.29, 0)"/>
      <path d="M11.9 43.945Q17.935 47.43 25.925 49.385Q33.915 51.34 40.8 51.34Q47.855 51.34 50.745 50.1075Q53.635 48.875 53.635 47.43Q53.635 42.245 37.825 42.245Q20.485 42.245 12.665 38.6325Q4.845 35.02 4.845 26.945Q4.845 15.47 14.365 10.03Q23.885 4.59 39.1 4.59Q47.94 4.59 57.2475 6.8425Q66.555 9.095 74.035 13.005Q71.57 18.615 68.85 26.69Q68.34 28.39 68 29.24Q63.665 25.755 54.91 23.4175Q46.155 21.08 39.44 21.08Q31.365 21.08 28.56 22.1425Q25.755 23.205 25.755 25.245Q25.755 27.285 29.6225 28.5175Q33.49 29.75 40.8 29.75Q58.82 29.75 66.98 33.8725Q75.14 37.995 75.14 46.495Q75.14 58.395 66.47 63.6225Q57.8 68.85 40.205 68.85Q30.77 68.85 20.995 66.7675Q11.22 64.685 3.4 60.69Q6.29 56.355 8.2025 52.615Q10.115 48.875 11.9 43.945Z" transform="translate(470.105, 0)"/>
    </clipPath>
  </defs>
  <g transform="translate(73.0125, 100.75) scale(0.827)">
    <g fill="none" stroke="#FFFFFF" stroke-width="19.34" stroke-linejoin="round">
      <path d="M82.875 6.29 89.505 68H67.49L66.13 23.97L57.63 68H35.36L26.69 24.31L25.415 68H3.4L10.03 6.29H38.93L46.325 46.495L52.785 6.29Z"/>
      <path d="M57.035 68Q55.42 63.155 52.7 55.845H25.585L21.335 68H0L23.8 6.29H55.08L79.05 68ZM47.855 42.585Q44.625 33.66 41.225 24.735L39.185 19.21Q36.21 26.945 30.43 42.585Z" transform="translate(88.905, 0)"/>
      <path d="M11.9 43.945Q17.935 47.43 25.925 49.385Q33.915 51.34 40.8 51.34Q47.855 51.34 50.745 50.1075Q53.635 48.875 53.635 47.43Q53.635 42.245 37.825 42.245Q20.485 42.245 12.665 38.6325Q4.845 35.02 4.845 26.945Q4.845 15.47 14.365 10.03Q23.885 4.59 39.1 4.59Q47.94 4.59 57.2475 6.8425Q66.555 9.095 74.035 13.005Q71.57 18.615 68.85 26.69Q68.34 28.39 68 29.24Q63.665 25.755 54.91 23.4175Q46.155 21.08 39.44 21.08Q31.365 21.08 28.56 22.1425Q25.755 23.205 25.755 25.245Q25.755 27.285 29.6225 28.5175Q33.49 29.75 40.8 29.75Q58.82 29.75 66.98 33.8725Q75.14 37.995 75.14 46.495Q75.14 58.395 66.47 63.6225Q57.8 68.85 40.205 68.85Q30.77 68.85 20.995 66.7675Q11.22 64.685 3.4 60.69Q6.29 56.355 8.2025 52.615Q10.115 48.875 11.9 43.945Z" transform="translate(165.06, 0)"/>
      <path d="M3.4 37.4Q3.4 22.185 12.495 13.345Q21.59 4.505 40.8 4.505Q67.66 4.505 76.755 22.95Q69.105 25.585 58.82 30.855Q56.355 26.095 51.0425 23.8Q45.73 21.505 40.205 21.505Q32.045 21.505 28.05 25.7975Q24.055 30.09 24.055 36.38Q24.055 43.18 28.3475 47.4725Q32.64 51.765 41.48 51.765Q48.535 51.765 52.7 49.4275Q56.865 47.09 58.82 41.99Q65.79 45.73 76.67 50.405Q72.42 60.69 62.475 64.77Q52.53 68.85 40.8 68.85Q21.59 68.85 12.495 60.69Q3.4 52.53 3.4 37.4Z" transform="translate(239.6, 0)"/>
      <path d="M3.4 36.635Q3.4 21.505 12.5375 13.005Q21.675 4.505 41.225 4.505Q60.86 4.505 69.9975 13.005Q79.135 21.505 79.135 36.635Q79.135 52.02 70.04 60.435Q60.945 68.85 41.225 68.85Q21.76 68.85 12.58 60.3925Q3.4 51.935 3.4 36.635ZM58.99 36.635Q58.99 29.155 54.825 25.5Q50.66 21.845 41.225 21.845Q31.875 21.845 27.71 25.5Q23.545 29.155 23.545 36.635Q23.545 44.2 27.71 47.855Q31.875 51.51 41.225 51.51Q50.66 51.51 54.825 47.8975Q58.99 44.285 58.99 36.635Z" transform="translate(315.755, 0)"/>
      <path d="M76.415 24.14Q63.07 23.715 50.49 23.63V68H29.24V23.63Q16.575 23.715 3.4 24.14V6.29H76.415Z" transform="translate(394.29, 0)"/>
      <path d="M11.9 43.945Q17.935 47.43 25.925 49.385Q33.915 51.34 40.8 51.34Q47.855 51.34 50.745 50.1075Q53.635 48.875 53.635 47.43Q53.635 42.245 37.825 42.245Q20.485 42.245 12.665 38.6325Q4.845 35.02 4.845 26.945Q4.845 15.47 14.365 10.03Q23.885 4.59 39.1 4.59Q47.94 4.59 57.2475 6.8425Q66.555 9.095 74.035 13.005Q71.57 18.615 68.85 26.69Q68.34 28.39 68 29.24Q63.665 25.755 54.91 23.4175Q46.155 21.08 39.44 21.08Q31.365 21.08 28.56 22.1425Q25.755 23.205 25.755 25.245Q25.755 27.285 29.6225 28.5175Q33.49 29.75 40.8 29.75Q58.82 29.75 66.98 33.8725Q75.14 37.995 75.14 46.495Q75.14 58.395 66.47 63.6225Q57.8 68.85 40.205 68.85Q30.77 68.85 20.995 66.7675Q11.22 64.685 3.4 60.69Q6.29 56.355 8.2025 52.615Q10.115 48.875 11.9 43.945Z" transform="translate(470.105, 0)"/>
    </g>
  </g>
  <g transform="translate(73.0125, 25)">
    <g fill="none" stroke="#FFFFFF" stroke-width="16" stroke-linejoin="round">
      <path d="M82.875 6.29 89.505 68H67.49L66.13 23.97L57.63 68H35.36L26.69 24.31L25.415 68H3.4L10.03 6.29H38.93L46.325 46.495L52.785 6.29Z"/>
      <path d="M23.46 52.445Q55.76 52.275 70.295 51.51Q69.7 54.995 69.5725 58.6925Q69.445 62.39 69.445 68H3.4Q4.08 51.51 4.08 37.145Q4.08 22.78 3.4 6.29H69.445V21.675H23.46V29.835Q27.54 29.92 35.53 29.92Q49.045 29.92 63.495 29.41V44.03Q49.045 43.52 35.53 43.52Q27.54 43.52 23.46 43.605Z" transform="translate(88.905, 0)"/>
      <path d="M72.505 36.72Q72.505 46.155 68.255 53.21Q64.005 60.265 55.505 64.1325Q47.005 68 34.595 68Q27.03 68 19.21 68Q11.39 68 3.4 67.915Q4.08 51.17 4.08 36.72Q4.08 22.1 3.4 6.205Q13.515 5.355 30.6 5.355Q46.58 5.355 55.845 9.2225Q65.11 13.09 68.8075 19.9325Q72.505 26.775 72.505 36.72ZM36.975 51.085Q44.88 51.085 47.515 47.26Q50.15 43.435 50.15 36.72Q50.15 30.26 47.3875 26.265Q44.625 22.27 36.975 22.27Q28.73 22.27 24.65 22.78V51.085Z" transform="translate(158.6, 0)"/>
      <path d="M64.6 44.795 69.02 6.29H89.76L78.37 68H52.275L46.495 33.575L39.78 68H14.79L3.4 6.29H24.14L28.475 44.285L35.275 6.29H57.97Z" transform="translate(230.505, 0)"/>
      <path d="M57.035 68Q55.42 63.155 52.7 55.845H25.585L21.335 68H0L23.8 6.29H55.08L79.05 68ZM47.855 42.585Q44.625 33.66 41.225 24.735L39.185 19.21Q36.21 26.945 30.43 42.585Z" transform="translate(309.665, 0)"/>
      <path d="M79.05 6.29 77.435 8.755Q68.34 22.865 61.8375 33.7025Q55.335 44.54 51 53.635V68H28.815V52.19Q25.67 45.815 21.42 39.0575Q17.17 32.3 9.35 20.485Q3.23 11.475 0 6.29H23.8Q26.35 11.475 32.13 21.675Q37.91 32.045 40.035 36.295Q43.01 30.09 48.025 21.08Q53.89 10.54 55.93 6.29Z" transform="translate(373.82, 0)"/>
    </g>
  </g>
  <g transform="translate(73.0125, 100.75) scale(0.827)">
    <g fill="#71410C" transform="translate(5, 5)">
      <path d="M82.875 6.29 89.505 68H67.49L66.13 23.97L57.63 68H35.36L26.69 24.31L25.415 68H3.4L10.03 6.29H38.93L46.325 46.495L52.785 6.29Z"/>
      <path d="M57.035 68Q55.42 63.155 52.7 55.845H25.585L21.335 68H0L23.8 6.29H55.08L79.05 68ZM47.855 42.585Q44.625 33.66 41.225 24.735L39.185 19.21Q36.21 26.945 30.43 42.585Z" transform="translate(88.905, 0)"/>
      <path d="M11.9 43.945Q17.935 47.43 25.925 49.385Q33.915 51.34 40.8 51.34Q47.855 51.34 50.745 50.1075Q53.635 48.875 53.635 47.43Q53.635 42.245 37.825 42.245Q20.485 42.245 12.665 38.6325Q4.845 35.02 4.845 26.945Q4.845 15.47 14.365 10.03Q23.885 4.59 39.1 4.59Q47.94 4.59 57.2475 6.8425Q66.555 9.095 74.035 13.005Q71.57 18.615 68.85 26.69Q68.34 28.39 68 29.24Q63.665 25.755 54.91 23.4175Q46.155 21.08 39.44 21.08Q31.365 21.08 28.56 22.1425Q25.755 23.205 25.755 25.245Q25.755 27.285 29.6225 28.5175Q33.49 29.75 40.8 29.75Q58.82 29.75 66.98 33.8725Q75.14 37.995 75.14 46.495Q75.14 58.395 66.47 63.6225Q57.8 68.85 40.205 68.85Q30.77 68.85 20.995 66.7675Q11.22 64.685 3.4 60.69Q6.29 56.355 8.2025 52.615Q10.115 48.875 11.9 43.945Z" transform="translate(165.06, 0)"/>
      <path d="M3.4 37.4Q3.4 22.185 12.495 13.345Q21.59 4.505 40.8 4.505Q67.66 4.505 76.755 22.95Q69.105 25.585 58.82 30.855Q56.355 26.095 51.0425 23.8Q45.73 21.505 40.205 21.505Q32.045 21.505 28.05 25.7975Q24.055 30.09 24.055 36.38Q24.055 43.18 28.3475 47.4725Q32.64 51.765 41.48 51.765Q48.535 51.765 52.7 49.4275Q56.865 47.09 58.82 41.99Q65.79 45.73 76.67 50.405Q72.42 60.69 62.475 64.77Q52.53 68.85 40.8 68.85Q21.59 68.85 12.495 60.69Q3.4 52.53 3.4 37.4Z" transform="translate(239.6, 0)"/>
      <path d="M3.4 36.635Q3.4 21.505 12.5375 13.005Q21.675 4.505 41.225 4.505Q60.86 4.505 69.9975 13.005Q79.135 21.505 79.135 36.635Q79.135 52.02 70.04 60.435Q60.945 68.85 41.225 68.85Q21.76 68.85 12.58 60.3925Q3.4 51.935 3.4 36.635ZM58.99 36.635Q58.99 29.155 54.825 25.5Q50.66 21.845 41.225 21.845Q31.875 21.845 27.71 25.5Q23.545 29.155 23.545 36.635Q23.545 44.2 27.71 47.855Q31.875 51.51 41.225 51.51Q50.66 51.51 54.825 47.8975Q58.99 44.285 58.99 36.635Z" transform="translate(315.755, 0)"/>
      <path d="M76.415 24.14Q63.07 23.715 50.49 23.63V68H29.24V23.63Q16.575 23.715 3.4 24.14V6.29H76.415Z" transform="translate(394.29, 0)"/>
      <path d="M11.9 43.945Q17.935 47.43 25.925 49.385Q33.915 51.34 40.8 51.34Q47.855 51.34 50.745 50.1075Q53.635 48.875 53.635 47.43Q53.635 42.245 37.825 42.245Q20.485 42.245 12.665 38.6325Q4.845 35.02 4.845 26.945Q4.845 15.47 14.365 10.03Q23.885 4.59 39.1 4.59Q47.94 4.59 57.2475 6.8425Q66.555 9.095 74.035 13.005Q71.57 18.615 68.85 26.69Q68.34 28.39 68 29.24Q63.665 25.755 54.91 23.4175Q46.155 21.08 39.44 21.08Q31.365 21.08 28.56 22.1425Q25.755 23.205 25.755 25.245Q25.755 27.285 29.6225 28.5175Q33.49 29.75 40.8 29.75Q58.82 29.75 66.98 33.8725Q75.14 37.995 75.14 46.495Q75.14 58.395 66.47 63.6225Q57.8 68.85 40.205 68.85Q30.77 68.85 20.995 66.7675Q11.22 64.685 3.4 60.69Q6.29 56.355 8.2025 52.615Q10.115 48.875 11.9 43.945Z" transform="translate(470.105, 0)"/>
    </g>
    <g fill="none" stroke="#71410C" stroke-width="12.09" stroke-linejoin="round">
      <path d="M82.875 6.29 89.505 68H67.49L66.13 23.97L57.63 68H35.36L26.69 24.31L25.415 68H3.4L10.03 6.29H38.93L46.325 46.495L52.785 6.29Z"/>
      <path d="M57.035 68Q55.42 63.155 52.7 55.845H25.585L21.335 68H0L23.8 6.29H55.08L79.05 68ZM47.855 42.585Q44.625 33.66 41.225 24.735L39.185 19.21Q36.21 26.945 30.43 42.585Z" transform="translate(88.905, 0)"/>
      <path d="M11.9 43.945Q17.935 47.43 25.925 49.385Q33.915 51.34 40.8 51.34Q47.855 51.34 50.745 50.1075Q53.635 48.875 53.635 47.43Q53.635 42.245 37.825 42.245Q20.485 42.245 12.665 38.6325Q4.845 35.02 4.845 26.945Q4.845 15.47 14.365 10.03Q23.885 4.59 39.1 4.59Q47.94 4.59 57.2475 6.8425Q66.555 9.095 74.035 13.005Q71.57 18.615 68.85 26.69Q68.34 28.39 68 29.24Q63.665 25.755 54.91 23.4175Q46.155 21.08 39.44 21.08Q31.365 21.08 28.56 22.1425Q25.755 23.205 25.755 25.245Q25.755 27.285 29.6225 28.5175Q33.49 29.75 40.8 29.75Q58.82 29.75 66.98 33.8725Q75.14 37.995 75.14 46.495Q75.14 58.395 66.47 63.6225Q57.8 68.85 40.205 68.85Q30.77 68.85 20.995 66.7675Q11.22 64.685 3.4 60.69Q6.29 56.355 8.2025 52.615Q10.115 48.875 11.9 43.945Z" transform="translate(165.06, 0)"/>
      <path d="M3.4 37.4Q3.4 22.185 12.495 13.345Q21.59 4.505 40.8 4.505Q67.66 4.505 76.755 22.95Q69.105 25.585 58.82 30.855Q56.355 26.095 51.0425 23.8Q45.73 21.505 40.205 21.505Q32.045 21.505 28.05 25.7975Q24.055 30.09 24.055 36.38Q24.055 43.18 28.3475 47.4725Q32.64 51.765 41.48 51.765Q48.535 51.765 52.7 49.4275Q56.865 47.09 58.82 41.99Q65.79 45.73 76.67 50.405Q72.42 60.69 62.475 64.77Q52.53 68.85 40.8 68.85Q21.59 68.85 12.495 60.69Q3.4 52.53 3.4 37.4Z" transform="translate(239.6, 0)"/>
      <path d="M3.4 36.635Q3.4 21.505 12.5375 13.005Q21.675 4.505 41.225 4.505Q60.86 4.505 69.9975 13.005Q79.135 21.505 79.135 36.635Q79.135 52.02 70.04 60.435Q60.945 68.85 41.225 68.85Q21.76 68.85 12.58 60.3925Q3.4 51.935 3.4 36.635ZM58.99 36.635Q58.99 29.155 54.825 25.5Q50.66 21.845 41.225 21.845Q31.875 21.845 27.71 25.5Q23.545 29.155 23.545 36.635Q23.545 44.2 27.71 47.855Q31.875 51.51 41.225 51.51Q50.66 51.51 54.825 47.8975Q58.99 44.285 58.99 36.635Z" transform="translate(315.755, 0)"/>
      <path d="M76.415 24.14Q63.07 23.715 50.49 23.63V68H29.24V23.63Q16.575 23.715 3.4 24.14V6.29H76.415Z" transform="translate(394.29, 0)"/>
      <path d="M11.9 43.945Q17.935 47.43 25.925 49.385Q33.915 51.34 40.8 51.34Q47.855 51.34 50.745 50.1075Q53.635 48.875 53.635 47.43Q53.635 42.245 37.825 42.245Q20.485 42.245 12.665 38.6325Q4.845 35.02 4.845 26.945Q4.845 15.47 14.365 10.03Q23.885 4.59 39.1 4.59Q47.94 4.59 57.2475 6.8425Q66.555 9.095 74.035 13.005Q71.57 18.615 68.85 26.69Q68.34 28.39 68 29.24Q63.665 25.755 54.91 23.4175Q46.155 21.08 39.44 21.08Q31.365 21.08 28.56 22.1425Q25.755 23.205 25.755 25.245Q25.755 27.285 29.6225 28.5175Q33.49 29.75 40.8 29.75Q58.82 29.75 66.98 33.8725Q75.14 37.995 75.14 46.495Q75.14 58.395 66.47 63.6225Q57.8 68.85 40.205 68.85Q30.77 68.85 20.995 66.7675Q11.22 64.685 3.4 60.69Q6.29 56.355 8.2025 52.615Q10.115 48.875 11.9 43.945Z" transform="translate(470.105, 0)"/>
    </g>
    <g fill="url(#orangeGradient)">
      <path d="M82.875 6.29 89.505 68H67.49L66.13 23.97L57.63 68H35.36L26.69 24.31L25.415 68H3.4L10.03 6.29H38.93L46.325 46.495L52.785 6.29Z"/>
      <path d="M57.035 68Q55.42 63.155 52.7 55.845H25.585L21.335 68H0L23.8 6.29H55.08L79.05 68ZM47.855 42.585Q44.625 33.66 41.225 24.735L39.185 19.21Q36.21 26.945 30.43 42.585Z" transform="translate(88.905, 0)"/>
      <path d="M11.9 43.945Q17.935 47.43 25.925 49.385Q33.915 51.34 40.8 51.34Q47.855 51.34 50.745 50.1075Q53.635 48.875 53.635 47.43Q53.635 42.245 37.825 42.245Q20.485 42.245 12.665 38.6325Q4.845 35.02 4.845 26.945Q4.845 15.47 14.365 10.03Q23.885 4.59 39.1 4.59Q47.94 4.59 57.2475 6.8425Q66.555 9.095 74.035 13.005Q71.57 18.615 68.85 26.69Q68.34 28.39 68 29.24Q63.665 25.755 54.91 23.4175Q46.155 21.08 39.44 21.08Q31.365 21.08 28.56 22.1425Q25.755 23.205 25.755 25.245Q25.755 27.285 29.6225 28.5175Q33.49 29.75 40.8 29.75Q58.82 29.75 66.98 33.8725Q75.14 37.995 75.14 46.495Q75.14 58.395 66.47 63.6225Q57.8 68.85 40.205 68.85Q30.77 68.85 20.995 66.7675Q11.22 64.685 3.4 60.69Q6.29 56.355 8.2025 52.615Q10.115 48.875 11.9 43.945Z" transform="translate(165.06, 0)"/>
      <path d="M3.4 37.4Q3.4 22.185 12.495 13.345Q21.59 4.505 40.8 4.505Q67.66 4.505 76.755 22.95Q69.105 25.585 58.82 30.855Q56.355 26.095 51.0425 23.8Q45.73 21.505 40.205 21.505Q32.045 21.505 28.05 25.7975Q24.055 30.09 24.055 36.38Q24.055 43.18 28.3475 47.4725Q32.64 51.765 41.48 51.765Q48.535 51.765 52.7 49.4275Q56.865 47.09 58.82 41.99Q65.79 45.73 76.67 50.405Q72.42 60.69 62.475 64.77Q52.53 68.85 40.8 68.85Q21.59 68.85 12.495 60.69Q3.4 52.53 3.4 37.4Z" transform="translate(239.6, 0)"/>
      <path d="M3.4 36.635Q3.4 21.505 12.5375 13.005Q21.675 4.505 41.225 4.505Q60.86 4.505 69.9975 13.005Q79.135 21.505 79.135 36.635Q79.135 52.02 70.04 60.435Q60.945 68.85 41.225 68.85Q21.76 68.85 12.58 60.3925Q3.4 51.935 3.4 36.635ZM58.99 36.635Q58.99 29.155 54.825 25.5Q50.66 21.845 41.225 21.845Q31.875 21.845 27.71 25.5Q23.545 29.155 23.545 36.635Q23.545 44.2 27.71 47.855Q31.875 51.51 41.225 51.51Q50.66 51.51 54.825 47.8975Q58.99 44.285 58.99 36.635Z" transform="translate(315.755, 0)"/>
      <path d="M76.415 24.14Q63.07 23.715 50.49 23.63V68H29.24V23.63Q16.575 23.715 3.4 24.14V6.29H76.415Z" transform="translate(394.29, 0)"/>
      <path d="M11.9 43.945Q17.935 47.43 25.925 49.385Q33.915 51.34 40.8 51.34Q47.855 51.34 50.745 50.1075Q53.635 48.875 53.635 47.43Q53.635 42.245 37.825 42.245Q20.485 42.245 12.665 38.6325Q4.845 35.02 4.845 26.945Q4.845 15.47 14.365 10.03Q23.885 4.59 39.1 4.59Q47.94 4.59 57.2475 6.8425Q66.555 9.095 74.035 13.005Q71.57 18.615 68.85 26.69Q68.34 28.39 68 29.24Q63.665 25.755 54.91 23.4175Q46.155 21.08 39.44 21.08Q31.365 21.08 28.56 22.1425Q25.755 23.205 25.755 25.245Q25.755 27.285 29.6225 28.5175Q33.49 29.75 40.8 29.75Q58.82 29.75 66.98 33.8725Q75.14 37.995 75.14 46.495Q75.14 58.395 66.47 63.6225Q57.8 68.85 40.205 68.85Q30.77 68.85 20.995 66.7675Q11.22 64.685 3.4 60.69Q6.29 56.355 8.2025 52.615Q10.115 48.875 11.9 43.945Z" transform="translate(470.105, 0)"/>
    </g>
    <g fill="url(#orangeHighlight)">
      <path d="M82.875 6.29 89.505 68H67.49L66.13 23.97L57.63 68H35.36L26.69 24.31L25.415 68H3.4L10.03 6.29H38.93L46.325 46.495L52.785 6.29Z"/>
      <path d="M57.035 68Q55.42 63.155 52.7 55.845H25.585L21.335 68H0L23.8 6.29H55.08L79.05 68ZM47.855 42.585Q44.625 33.66 41.225 24.735L39.185 19.21Q36.21 26.945 30.43 42.585Z" transform="translate(88.905, 0)"/>
      <path d="M11.9 43.945Q17.935 47.43 25.925 49.385Q33.915 51.34 40.8 51.34Q47.855 51.34 50.745 50.1075Q53.635 48.875 53.635 47.43Q53.635 42.245 37.825 42.245Q20.485 42.245 12.665 38.6325Q4.845 35.02 4.845 26.945Q4.845 15.47 14.365 10.03Q23.885 4.59 39.1 4.59Q47.94 4.59 57.2475 6.8425Q66.555 9.095 74.035 13.005Q71.57 18.615 68.85 26.69Q68.34 28.39 68 29.24Q63.665 25.755 54.91 23.4175Q46.155 21.08 39.44 21.08Q31.365 21.08 28.56 22.1425Q25.755 23.205 25.755 25.245Q25.755 27.285 29.6225 28.5175Q33.49 29.75 40.8 29.75Q58.82 29.75 66.98 33.8725Q75.14 37.995 75.14 46.495Q75.14 58.395 66.47 63.6225Q57.8 68.85 40.205 68.85Q30.77 68.85 20.995 66.7675Q11.22 64.685 3.4 60.69Q6.29 56.355 8.2025 52.615Q10.115 48.875 11.9 43.945Z" transform="translate(165.06, 0)"/>
      <path d="M3.4 37.4Q3.4 22.185 12.495 13.345Q21.59 4.505 40.8 4.505Q67.66 4.505 76.755 22.95Q69.105 25.585 58.82 30.855Q56.355 26.095 51.0425 23.8Q45.73 21.505 40.205 21.505Q32.045 21.505 28.05 25.7975Q24.055 30.09 24.055 36.38Q24.055 43.18 28.3475 47.4725Q32.64 51.765 41.48 51.765Q48.535 51.765 52.7 49.4275Q56.865 47.09 58.82 41.99Q65.79 45.73 76.67 50.405Q72.42 60.69 62.475 64.77Q52.53 68.85 40.8 68.85Q21.59 68.85 12.495 60.69Q3.4 52.53 3.4 37.4Z" transform="translate(239.6, 0)"/>
      <path d="M3.4 36.635Q3.4 21.505 12.5375 13.005Q21.675 4.505 41.225 4.505Q60.86 4.505 69.9975 13.005Q79.135 21.505 79.135 36.635Q79.135 52.02 70.04 60.435Q60.945 68.85 41.225 68.85Q21.76 68.85 12.58 60.3925Q3.4 51.935 3.4 36.635ZM58.99 36.635Q58.99 29.155 54.825 25.5Q50.66 21.845 41.225 21.845Q31.875 21.845 27.71 25.5Q23.545 29.155 23.545 36.635Q23.545 44.2 27.71 47.855Q31.875 51.51 41.225 51.51Q50.66 51.51 54.825 47.8975Q58.99 44.285 58.99 36.635Z" transform="translate(315.755, 0)"/>
      <path d="M76.415 24.14Q63.07 23.715 50.49 23.63V68H29.24V23.63Q16.575 23.715 3.4 24.14V6.29H76.415Z" transform="translate(394.29, 0)"/>
      <path d="M11.9 43.945Q17.935 47.43 25.925 49.385Q33.915 51.34 40.8 51.34Q47.855 51.34 50.745 50.1075Q53.635 48.875 53.635 47.43Q53.635 42.245 37.825 42.245Q20.485 42.245 12.665 38.6325Q4.845 35.02 4.845 26.945Q4.845 15.47 14.365 10.03Q23.885 4.59 39.1 4.59Q47.94 4.59 57.2475 6.8425Q66.555 9.095 74.035 13.005Q71.57 18.615 68.85 26.69Q68.34 28.39 68 29.24Q63.665 25.755 54.91 23.4175Q46.155 21.08 39.44 21.08Q31.365 21.08 28.56 22.1425Q25.755 23.205 25.755 25.245Q25.755 27.285 29.6225 28.5175Q33.49 29.75 40.8 29.75Q58.82 29.75 66.98 33.8725Q75.14 37.995 75.14 46.495Q75.14 58.395 66.47 63.6225Q57.8 68.85 40.205 68.85Q30.77 68.85 20.995 66.7675Q11.22 64.685 3.4 60.69Q6.29 56.355 8.2025 52.615Q10.115 48.875 11.9 43.945Z" transform="translate(470.105, 0)"/>
    </g>
  </g>
  <g transform="translate(73.0125, 25)">
    <g fill="#4C1D95" transform="translate(5, 5)">
      <path d="M82.875 6.29 89.505 68H67.49L66.13 23.97L57.63 68H35.36L26.69 24.31L25.415 68H3.4L10.03 6.29H38.93L46.325 46.495L52.785 6.29Z"/>
      <path d="M23.46 52.445Q55.76 52.275 70.295 51.51Q69.7 54.995 69.5725 58.6925Q69.445 62.39 69.445 68H3.4Q4.08 51.51 4.08 37.145Q4.08 22.78 3.4 6.29H69.445V21.675H23.46V29.835Q27.54 29.92 35.53 29.92Q49.045 29.92 63.495 29.41V44.03Q49.045 43.52 35.53 43.52Q27.54 43.52 23.46 43.605Z" transform="translate(88.905, 0)"/>
      <path d="M72.505 36.72Q72.505 46.155 68.255 53.21Q64.005 60.265 55.505 64.1325Q47.005 68 34.595 68Q27.03 68 19.21 68Q11.39 68 3.4 67.915Q4.08 51.17 4.08 36.72Q4.08 22.1 3.4 6.205Q13.515 5.355 30.6 5.355Q46.58 5.355 55.845 9.2225Q65.11 13.09 68.8075 19.9325Q72.505 26.775 72.505 36.72ZM36.975 51.085Q44.88 51.085 47.515 47.26Q50.15 43.435 50.15 36.72Q50.15 30.26 47.3875 26.265Q44.625 22.27 36.975 22.27Q28.73 22.27 24.65 22.78V51.085Z" transform="translate(158.6, 0)"/>
      <path d="M64.6 44.795 69.02 6.29H89.76L78.37 68H52.275L46.495 33.575L39.78 68H14.79L3.4 6.29H24.14L28.475 44.285L35.275 6.29H57.97Z" transform="translate(230.505, 0)"/>
      <path d="M57.035 68Q55.42 63.155 52.7 55.845H25.585L21.335 68H0L23.8 6.29H55.08L79.05 68ZM47.855 42.585Q44.625 33.66 41.225 24.735L39.185 19.21Q36.21 26.945 30.43 42.585Z" transform="translate(309.665, 0)"/>
      <path d="M79.05 6.29 77.435 8.755Q68.34 22.865 61.8375 33.7025Q55.335 44.54 51 53.635V68H28.815V52.19Q25.67 45.815 21.42 39.0575Q17.17 32.3 9.35 20.485Q3.23 11.475 0 6.29H23.8Q26.35 11.475 32.13 21.675Q37.91 32.045 40.035 36.295Q43.01 30.09 48.025 21.08Q53.89 10.54 55.93 6.29Z" transform="translate(373.82, 0)"/>
    </g>
    <g fill="none" stroke="#4C1D95" stroke-width="10" stroke-linejoin="round">
      <path d="M82.875 6.29 89.505 68H67.49L66.13 23.97L57.63 68H35.36L26.69 24.31L25.415 68H3.4L10.03 6.29H38.93L46.325 46.495L52.785 6.29Z"/>
      <path d="M23.46 52.445Q55.76 52.275 70.295 51.51Q69.7 54.995 69.5725 58.6925Q69.445 62.39 69.445 68H3.4Q4.08 51.51 4.08 37.145Q4.08 22.78 3.4 6.29H69.445V21.675H23.46V29.835Q27.54 29.92 35.53 29.92Q49.045 29.92 63.495 29.41V44.03Q49.045 43.52 35.53 43.52Q27.54 43.52 23.46 43.605Z" transform="translate(88.905, 0)"/>
      <path d="M72.505 36.72Q72.505 46.155 68.255 53.21Q64.005 60.265 55.505 64.1325Q47.005 68 34.595 68Q27.03 68 19.21 68Q11.39 68 3.4 67.915Q4.08 51.17 4.08 36.72Q4.08 22.1 3.4 6.205Q13.515 5.355 30.6 5.355Q46.58 5.355 55.845 9.2225Q65.11 13.09 68.8075 19.9325Q72.505 26.775 72.505 36.72ZM36.975 51.085Q44.88 51.085 47.515 47.26Q50.15 43.435 50.15 36.72Q50.15 30.26 47.3875 26.265Q44.625 22.27 36.975 22.27Q28.73 22.27 24.65 22.78V51.085Z" transform="translate(158.6, 0)"/>
      <path d="M64.6 44.795 69.02 6.29H89.76L78.37 68H52.275L46.495 33.575L39.78 68H14.79L3.4 6.29H24.14L28.475 44.285L35.275 6.29H57.97Z" transform="translate(230.505, 0)"/>
      <path d="M57.035 68Q55.42 63.155 52.7 55.845H25.585L21.335 68H0L23.8 6.29H55.08L79.05 68ZM47.855 42.585Q44.625 33.66 41.225 24.735L39.185 19.21Q36.21 26.945 30.43 42.585Z" transform="translate(309.665, 0)"/>
      <path d="M79.05 6.29 77.435 8.755Q68.34 22.865 61.8375 33.7025Q55.335 44.54 51 53.635V68H28.815V52.19Q25.67 45.815 21.42 39.0575Q17.17 32.3 9.35 20.485Q3.23 11.475 0 6.29H23.8Q26.35 11.475 32.13 21.675Q37.91 32.045 40.035 36.295Q43.01 30.09 48.025 21.08Q53.89 10.54 55.93 6.29Z" transform="translate(373.82, 0)"/>
    </g>
    <g fill="url(#blueGradient)">
      <path d="M82.875 6.29 89.505 68H67.49L66.13 23.97L57.63 68H35.36L26.69 24.31L25.415 68H3.4L10.03 6.29H38.93L46.325 46.495L52.785 6.29Z"/>
      <path d="M23.46 52.445Q55.76 52.275 70.295 51.51Q69.7 54.995 69.5725 58.6925Q69.445 62.39 69.445 68H3.4Q4.08 51.51 4.08 37.145Q4.08 22.78 3.4 6.29H69.445V21.675H23.46V29.835Q27.54 29.92 35.53 29.92Q49.045 29.92 63.495 29.41V44.03Q49.045 43.52 35.53 43.52Q27.54 43.52 23.46 43.605Z" transform="translate(88.905, 0)"/>
      <path d="M72.505 36.72Q72.505 46.155 68.255 53.21Q64.005 60.265 55.505 64.1325Q47.005 68 34.595 68Q27.03 68 19.21 68Q11.39 68 3.4 67.915Q4.08 51.17 4.08 36.72Q4.08 22.1 3.4 6.205Q13.515 5.355 30.6 5.355Q46.58 5.355 55.845 9.2225Q65.11 13.09 68.8075 19.9325Q72.505 26.775 72.505 36.72ZM36.975 51.085Q44.88 51.085 47.515 47.26Q50.15 43.435 50.15 36.72Q50.15 30.26 47.3875 26.265Q44.625 22.27 36.975 22.27Q28.73 22.27 24.65 22.78V51.085Z" transform="translate(158.6, 0)"/>
      <path d="M64.6 44.795 69.02 6.29H89.76L78.37 68H52.275L46.495 33.575L39.78 68H14.79L3.4 6.29H24.14L28.475 44.285L35.275 6.29H57.97Z" transform="translate(230.505, 0)"/>
      <path d="M57.035 68Q55.42 63.155 52.7 55.845H25.585L21.335 68H0L23.8 6.29H55.08L79.05 68ZM47.855 42.585Q44.625 33.66 41.225 24.735L39.185 19.21Q36.21 26.945 30.43 42.585Z" transform="translate(309.665, 0)"/>
      <path d="M79.05 6.29 77.435 8.755Q68.34 22.865 61.8375 33.7025Q55.335 44.54 51 53.635V68H28.815V52.19Q25.67 45.815 21.42 39.0575Q17.17 32.3 9.35 20.485Q3.23 11.475 0 6.29H23.8Q26.35 11.475 32.13 21.675Q37.91 32.045 40.035 36.295Q43.01 30.09 48.025 21.08Q53.89 10.54 55.93 6.29Z" transform="translate(373.82, 0)"/>
    </g>
    <g fill="url(#blueHighlight)">
      <path d="M82.875 6.29 89.505 68H67.49L66.13 23.97L57.63 68H35.36L26.69 24.31L25.415 68H3.4L10.03 6.29H38.93L46.325 46.495L52.785 6.29Z"/>
      <path d="M23.46 52.445Q55.76 52.275 70.295 51.51Q69.7 54.995 69.5725 58.6925Q69.445 62.39 69.445 68H3.4Q4.08 51.51 4.08 37.145Q4.08 22.78 3.4 6.29H69.445V21.675H23.46V29.835Q27.54 29.92 35.53 29.92Q49.045 29.92 63.495 29.41V44.03Q49.045 43.52 35.53 43.52Q27.54 43.52 23.46 43.605Z" transform="translate(88.905, 0)"/>
      <path d="M72.505 36.72Q72.505 46.155 68.255 53.21Q64.005 60.265 55.505 64.1325Q47.005 68 34.595 68Q27.03 68 19.21 68Q11.39 68 3.4 67.915Q4.08 51.17 4.08 36.72Q4.08 22.1 3.4 6.205Q13.515 5.355 30.6 5.355Q46.58 5.355 55.845 9.2225Q65.11 13.09 68.8075 19.9325Q72.505 26.775 72.505 36.72ZM36.975 51.085Q44.88 51.085 47.515 47.26Q50.15 43.435 50.15 36.72Q50.15 30.26 47.3875 26.265Q44.625 22.27 36.975 22.27Q28.73 22.27 24.65 22.78V51.085Z" transform="translate(158.6, 0)"/>
      <path d="M64.6 44.795 69.02 6.29H89.76L78.37 68H52.275L46.495 33.575L39.78 68H14.79L3.4 6.29H24.14L28.475 44.285L35.275 6.29H57.97Z" transform="translate(230.505, 0)"/>
      <path d="M57.035 68Q55.42 63.155 52.7 55.845H25.585L21.335 68H0L23.8 6.29H55.08L79.05 68ZM47.855 42.585Q44.625 33.66 41.225 24.735L39.185 19.21Q36.21 26.945 30.43 42.585Z" transform="translate(309.665, 0)"/>
      <path d="M79.05 6.29 77.435 8.755Q68.34 22.865 61.8375 33.7025Q55.335 44.54 51 53.635V68H28.815V52.19Q25.67 45.815 21.42 39.0575Q17.17 32.3 9.35 20.485Q3.23 11.475 0 6.29H23.8Q26.35 11.475 32.13 21.675Q37.91 32.045 40.035 36.295Q43.01 30.09 48.025 21.08Q53.89 10.54 55.93 6.29Z" transform="translate(373.82, 0)"/>
    </g>
  </g>
</svg>